<?xml version="1.0" encoding="utf-8"?>
<!-- Generator: Adobe Illustrator 24.2.1, SVG Export Plug-In . SVG Version: 6.00 Build 0)  -->
<svg version="1.1" id="Capa_1" xmlns="http://www.w3.org/2000/svg" xmlns:xlink="http://www.w3.org/1999/xlink" x="0px" y="0px"
	 viewBox="0 0 316.8 190.8" style="enable-background:new 0 0 316.8 190.8;" xml:space="preserve">
<style type="text/css">
	.st0{fill:#595757;}
	.st1{fill:#717071;}
	.st2{fill:#E9BEBF;}
	.st3{fill:#C185B7;}
	.st4{fill:#FFFFFF;}
	.st5{fill:#ADAEAE;}
	.st6{fill:#231815;}
	.st7{fill:#5D5E5E;}
	.st8{fill:#B365A4;}
	.st9{fill:#C286B8;}
	.st10{fill:#F2A5AF;}
	.st11{fill:#DF2A13;}
	.st12{fill:#E35228;}
	.st13{clip-path:url(#SVGID_2_);}
	.st14{fill:#E56035;}
	.st15{fill:none;stroke:#E9EFB1;stroke-width:0.25;stroke-linecap:round;stroke-linejoin:round;stroke-miterlimit:10;}
	.st16{fill:none;stroke:#FFFFFF;stroke-width:3;stroke-linecap:round;stroke-linejoin:round;stroke-dasharray:1.9983,9.9917;}
</style>
<g>
	<g>
		<g>
			<path class="st0" d="M122.1,89.7c3.4-4.4,0.8-10.4-2-14.3c-1.4-1.9-2.8-3.8-5.1-4.5c-2.4-0.8-5.2-0.5-7.6,0.1
				c1.1,0.6,2.3,1.3,3.4,1.9c-0.2-1.3-0.4-2.6-0.6-3.9c-0.1-0.6-0.2-1.2-0.2-1.8c0.1,0.7,0-0.3-0.1-0.4c0-0.3-0.1-0.6-0.1-0.9
				c-0.3-2.5-0.6-5.1-1.1-7.6c-1.1,1.1-2.3,2.3-3.4,3.4c3.7,0.6,7.5,0.2,11.1-0.7c3.7-0.9,6.7-3.1,7.9-6.8c0.5-1.6,0.7-3.4,0.6-5.1
				c-0.1-2-1.2-3.5-3-4.4c-3.4-1.8-7-3.3-10.6-4.6c-2-0.7-3.9-1.3-6-1.8c-2.4-0.6-4.8-1-7.3-0.6c1,0.4,2.1,0.8,3.1,1.3
				c-0.8-1.2-1.6-2.3-2.5-3.3c0.3,0.7,0.5,1.3,0.8,2c0-2,0-3.9-0.3-5.9c-0.3-1.9-0.7-3.7-2-5.2c-1.4-1.7-4-2.4-5.7-0.7
				c-0.9,0.8-1.3,2-1.7,3.1c-0.4,1-0.7,1.9-0.9,2.9c1.4-0.6,2.7-1.1,4.1-1.7c-5.3-4-11.7-6.3-18.3-6.8c0.9,0.9,1.8,1.8,2.8,2.8
				c0.1-1.7,0.1-3.5-0.4-5.1c0,0.5,0,1,0,1.5c0.4-1.6,0.1-3.3-1-4.6c-1.2-1.3-2.7-1.5-4.4-1.5c0.9,0.7,1.8,1.4,2.7,2
				c-0.3-1.3-0.7-2.6-1.9-3.4c-0.9-0.6-1.9-0.7-3-0.6c-1.7,0.1-3,0.8-4.2,1.9c-2.4,2.1-4.5,5.2-5.3,8.3c0.4-0.6,0.8-1.1,1.3-1.7
				c-0.7,0.3-1.4,0.7-2.2,1c0.9,0,1.9,0,2.8,0c-2.4-1.2-5.1-1.3-7.5,0.1c0.7-0.1,1.4-0.2,2.1-0.3c-1.1-0.3-2.2-0.6-3.3-1
				c-0.5-0.2-1.1-0.4-1.6-0.6c-0.1,0-0.2-0.1-0.4-0.2c0.1,0,0.3,0.2,0,0s-0.7-0.3-1-0.4c-2.1-1-4-2.3-5.9-3.5
				c-2.1-1.3-4.5-2.3-7-2.2c-2.7,0.1-5.2,1.5-6.5,3.9C29.1,22.6,29,26,30,29.1c1.1-1.1,2.3-2.3,3.4-3.4c-6.2-0.9-12.4,0.8-17,5.1
				c-4.2,3.9-6.6,9.7-6.3,15.4c0.2,3.9,1.5,7.8,3.8,10.9c0.6-1.4,1.1-2.7,1.7-4.1c-4.9,1.6-7,8.3-5.2,12.8c0.9,2.3,2.5,4.2,4.6,5.4
				c0.2,0.1,0.4,0.2,0.7,0.4c0.3,0.1,0.8,0.2,1.1,0.4h-0.1c-0.2,0-0.2,0,0,0.1c0.1,0.1,0.3,0.2,0.3,0.3c0.3,0.2,0.6,0.4,0.9,0.7
				c1,0.8,2.1,1.5,3.2,2.2c2.4,1.6,4.9,3.2,7.4,4.6c-0.4-1-0.8-2.1-1.3-3.1c-0.6,2.8-1.2,5.6-1.8,8.4c-0.3,1.3-0.6,2.7-1,4
				c-0.5,1.6-0.8,3.2-1.2,4.9c-0.5,2.1-0.9,4.2-1.4,6.3c-0.9,4.3-1.7,8.5-2.8,12.8c-0.3,1-0.5,2.1-0.9,3.1c0,0.1-0.1,0.2-0.1,0.4
				c-0.1,0.3-0.2,0,0.1-0.2c-0.1,0.1-0.2,0.4-0.3,0.5c-0.3,0.5-0.6,0.9-0.9,1.4c-1.2,1.8-2.2,3.7-3.1,5.6c-3.6,7.9-5.2,17-2.9,25.5
				c1.1,4.1,3.1,7.9,5.9,11.1c1.5,1.6,3.2,3.1,5,4.3c2.1,1.4,4.4,2.3,6.7,3.3c2.5,1,4.9,1.8,7.6,2.2c2.5,0.4,5.1-0.2,7.6-0.8
				c5.8-1.4,11.5-3.1,17.3-4.5c1.6-0.4,3.2-0.8,4.7-1.1c-1.1-1.1-2.3-2.3-3.4-3.4c0,0.1-0.3,0.7-0.2,0.8c0,0,0.3-0.6,0.1-0.2
				c-0.1,0.1-0.1,0.2-0.2,0.3c-0.3,0.6-0.7,1.1-1,1.6c-0.1,0.1-0.3,0.4,0.1-0.1c-0.1,0.1-0.2,0.2-0.2,0.3c-0.2,0.2-0.4,0.4-0.5,0.7
				c-0.4,0.4-0.7,0.8-1.1,1.3c-0.7,0.9-1.5,1.8-1.7,3c-0.3,1.6,0.4,3.1,1.9,3.9c2.3,1.2,5.3,0.4,7.5-0.3c3.2-1,6.5-2.5,9.4-4.4
				c1.5-1,3-2.1,4.3-3.3c0.5-0.4,1.1-0.9,1.6-1.3c0.2-0.2,0.5-0.4,0.7-0.6c0.2-0.1,1.1-0.9,0.4-0.3c-0.5,0.1-0.9,0.3-1.4,0.4
				c3.1,0.1,5.3,0.4,8.3,1.1c1.3,0.3,2.7,0.4,4.1,0.7c0.3,0.1,0.6,0.2,0.9,0.3c0.1,0,0.5,0.2,0.1,0c0.1,0,0.2,0.1,0.3,0.1
				c0.7,0.3,1.4,0.6,2.1,0.9c3.6,1.4,7.9,2,11.6,0.5c3.8-1.5,6.5-4.6,8.3-8.2c0.6-1.1,1-2.3,1.5-3.5c0-0.1,0.1-0.2,0.1-0.3
				c0,0.1-0.3,0.6-0.2,0.3c0-0.1,0.1-0.1,0.1-0.2c0.1-0.1,0.1-0.3,0.2-0.4c0.3-0.7,0.6-1.4,0.9-2.1c1.3-3,1.9-6.1,2.2-9.4
				c0.5-5.9-0.2-11.9-1.1-17.8c-1.6-10.3-4.3-20.3-6.5-30.4c-0.3-1.2-0.5-2.5-0.8-3.7c-0.9,1.2-1.8,2.3-2.7,3.5
				c1.9-0.2,3.9-0.5,5.7-0.9c1.7-0.4,3.4-1.1,4.7-2.4c1-1,1.1-2.9,0-3.9s-2.8-1.1-3.9,0c-0.1,0.1-0.2,0.2-0.3,0.3
				c0.3-0.2,0.3-0.2,0,0c-0.1,0.1-1,0.5-0.4,0.2c-0.6,0.2-1.2,0.4-1.8,0.5c-0.7,0.2-1.4,0.3-2.1,0.4c-0.4,0.1-0.8,0.1-1.2,0.2
				c0.2,0,0.2,0-0.1,0c-0.2,0-0.4,0-0.6,0.1c-1.9,0.2-3.1,1.6-2.7,3.5c1.4,6.9,3.2,13.6,4.7,20.5c0.7,3,1.3,6,1.8,9.1
				c0.2,1.3,0.5,2.6,0.7,3.9c0.1,0.6,0.2,1.2,0.3,1.8c0,0.1,0,0.8,0.1,0.8c-0.1,0-0.1-0.6,0-0.2c0,0.2,0,0.4,0.1,0.5
				c0.5,3.7,0.8,7.3,0.7,11c0,1.3-0.1,2.6-0.2,3.9c0,0.2,0,0.3-0.1,0.5c0-0.3,0.1-0.8,0-0.2c0,0.3-0.1,0.5-0.1,0.8
				c-0.1,0.5-0.2,1-0.3,1.5c-0.2,0.9-0.4,1.7-0.7,2.5c-0.1,0.4-0.3,0.7-0.4,1.1c-0.1,0.2-0.1,0.3-0.2,0.5c-0.2,0.5,0.3-0.6,0.2-0.4
				c0,0.1-0.1,0.2-0.1,0.3c-0.4,0.9-0.9,1.9-1.2,2.8c-0.1,0.3-0.2,0.7-0.4,1c-0.1,0.1-0.1,0.3-0.2,0.4c-0.3,0.6,0.2-0.4,0,0
				c-0.3,0.6-0.5,1.2-0.8,1.7s-0.6,1-0.9,1.5c0,0-0.4,0.7-0.5,0.7c0,0,0.4-0.5,0.1-0.1c-0.1,0.1-0.2,0.3-0.3,0.4
				c-0.3,0.4-0.7,0.8-1.1,1.1c-0.2,0.2-0.8,0.5-0.1,0.1c-0.2,0.1-0.4,0.3-0.7,0.5c-0.4,0.3-0.9,0.5-1.3,0.7
				c-0.3,0.2,0.7-0.3,0.2-0.1c-0.1,0-0.2,0.1-0.3,0.1c-0.2,0.1-0.5,0.2-0.8,0.2c-0.3,0.1-0.5,0.1-0.8,0.2c-0.1,0-0.2,0-0.3,0.1
				c-0.6,0.1,0.6,0,0.2,0c-0.5,0-1.1,0.1-1.6,0.1c-0.3,0-0.6,0-0.9-0.1c-0.1,0-0.3-0.1-0.4,0c0.3-0.1,0.6,0.1,0.1,0
				c-0.6-0.1-1.2-0.2-1.8-0.4c-0.6-0.2-1.3-0.4-1.9-0.6c-0.2-0.1-1.1-0.4-0.5-0.2c-0.4-0.2-0.7-0.3-1.1-0.5
				c-1.7-0.8-3.5-0.9-5.3-1.3c-2-0.4-3.9-0.8-5.9-1.1c-0.9-0.1-1.8-0.2-2.8-0.3c-1.2-0.1-2.4-0.3-3.4,0.4c-1.2,0.7-2.2,1.8-3.2,2.7
				c-0.5,0.5-1.1,0.9-1.6,1.3c-0.1,0.1-0.5,0.4-0.1,0.1c-0.1,0.1-0.3,0.2-0.4,0.3c-0.3,0.2-0.7,0.5-1,0.7c-1.4,1-2.9,1.8-4.5,2.5
				c-0.4,0.2-0.9,0.4-1.3,0.6c-0.2,0.1-0.3,0.1-0.5,0.2c0.4-0.2-0.1,0-0.2,0.1c-0.7,0.3-1.4,0.6-2.2,0.8c-0.6,0.2-1.3,0.4-1.9,0.5
				c-0.3,0.1-0.5,0.1-0.8,0.2c-0.5,0.1,0.2,0,0.2,0c-0.1,0-0.3,0-0.5,0s-0.5,0-0.7,0c-0.3,0-0.1-0.2,0.4,0.1c-0.1,0-0.2,0-0.3-0.1
				c-0.5-0.2,0.6,0.4,0.2,0.1c-0.3-0.2,0.4,0.3,0.3,0.3c-0.2-0.2-0.1-0.1,0.3,0.4c0.1,0.2,0.2,0.4,0.2,0.5c0.1,0.3,0.1,1,0,1.1
				c0.1-0.3,0.1,0-0.2,0.4c0.1-0.1,0.2-0.3,0.3-0.4c0-0.1,0.3-0.5,0.4-0.5c-0.1,0-0.4,0.5-0.1,0.2c0.1-0.1,0.2-0.3,0.3-0.4
				c0.9-1,1.7-2.1,2.5-3.2c0.7-1,1.4-2.2,1.7-3.5c0.4-2.1-1.3-3.9-3.4-3.4c-6.1,1.3-12.2,3.1-18.3,4.6c-2.2,0.6-4.5,1.2-6.7,1.6
				c-0.1,0-0.3,0-0.4,0.1c-0.5,0.1,0.1,0,0.1,0c-0.2,0.1-0.6,0.1-0.8,0.1s-0.5,0-0.7,0c-0.1,0-0.2,0-0.3,0c-0.5,0,0.5,0.1,0,0
				c-1.3-0.2-2.6-0.5-3.9-0.9c-1.2-0.4-2.3-0.9-3.5-1.3c-0.3-0.1-0.6-0.3-1-0.4c-0.1,0-0.5-0.2,0,0c-0.1-0.1-0.2-0.1-0.4-0.2
				c-0.5-0.2-1-0.4-1.4-0.7c-0.9-0.5-1.8-1-2.6-1.6c-0.2-0.1-0.4-0.3-0.6-0.4c-0.1,0-0.2-0.1-0.3-0.2c0.2,0.3,0.3,0.3,0.1,0.1
				c-0.4-0.3-0.8-0.7-1.2-1c-0.7-0.7-1.4-1.4-2-2.1c-0.1-0.2-0.3-0.3-0.4-0.5c-0.4-0.5,0.3,0.4-0.1-0.1c-0.3-0.4-0.6-0.8-0.8-1.2
				c-0.5-0.8-1-1.6-1.4-2.4c-0.1-0.2-0.2-0.4-0.3-0.6c0-0.1-0.1-0.3-0.1-0.3s0.3,0.6,0.1,0.2c-0.2-0.4-0.3-0.9-0.5-1.3
				c-0.3-0.9-0.6-1.8-0.8-2.8c-0.1-0.4-0.2-0.9-0.3-1.3c0-0.2-0.1-0.5-0.1-0.7c0-0.1,0-0.2-0.1-0.4c0.2,0.7,0,0.3,0,0.1
				c-0.2-2-0.3-3.9-0.1-5.9c0-0.5,0.1-1,0.1-1.5c0-0.1,0.1-0.7,0.1-0.7s-0.1,0.6,0,0.3c0-0.2,0-0.3,0.1-0.5c0.2-1,0.4-2,0.6-3
				c0.5-2,1.1-4,1.9-5.9c0.1-0.1,0.2-0.5-0.1,0.1c0-0.1,0.1-0.2,0.2-0.4c0.1-0.2,0.2-0.4,0.3-0.6c0.2-0.5,0.5-1,0.7-1.5
				c0.5-0.9,1-1.8,1.5-2.7c0.6-0.9,1.2-1.8,1.8-2.7c0.7-0.9,1-2.2,1.3-3.3c1.1-3.9,1.9-8,2.7-12c0.8-4,1.6-7.9,2.6-11.9
				c0.3-1.2,0.7-2.3,0.9-3.5c0.5-2.2,1-4.3,1.4-6.5c0.3-1.5,0.6-3,1-4.4c0.3-1.2-0.2-2.5-1.3-3.1c-2.5-1.4-4.9-2.9-7.3-4.5
				c-1.2-0.8-2.3-1.6-3.5-2.5c-0.5-0.3-1.5-1.4-2.1-1.3c-0.2-0.1-0.1,0,0.2,0.1c-0.1-0.1-0.3-0.1-0.4-0.2c-0.3-0.1-0.5-0.3-0.7-0.4
				c-0.3-0.2-0.2-0.2,0,0c-0.1-0.1-0.2-0.2-0.3-0.3c-0.2-0.1-0.3-0.3-0.5-0.5c-0.1-0.1-0.6-0.8-0.3-0.3c-0.2-0.2-0.3-0.5-0.5-0.7
				c-0.1-0.1-0.4-1-0.2-0.3c-0.1-0.2-0.1-0.4-0.2-0.6c-0.1-0.3-0.1-0.6-0.2-0.9c0.1,0.7,0-0.3,0-0.4c0-0.2,0-0.5,0-0.7
				c0-0.3,0-0.3,0,0.1c0-0.2,0.1-0.3,0.1-0.5c0.1-0.3,0.2-0.6,0.3-0.9c0.1-0.3,0.1-0.3,0,0c0.1-0.1,0.1-0.3,0.2-0.4
				c0.1-0.2,0.2-0.4,0.4-0.6c0.1-0.1,0.2-0.3,0.3-0.4c-0.2,0.3-0.2,0.3,0,0c0.1-0.1,0.8-0.7,0.3-0.3c0.1-0.1,0.2-0.2,0.4-0.2
				c-0.3,0.1-0.3,0.1,0,0c1.5-0.5,2.8-2.6,1.7-4.1c-0.4-0.6-0.8-1.1-1.1-1.7c-0.2-0.3-0.3-0.6-0.5-0.9c-0.1-0.1-0.1-0.3-0.2-0.4
				c-0.1-0.1-0.1-0.2-0.2-0.3c0.1,0.2,0.1,0.3,0,0.1c-0.2-0.7-0.5-1.3-0.7-2c-0.1-0.3-0.2-0.7-0.2-1c0-0.2-0.1-0.3-0.1-0.5
				c-0.1-0.5,0,0.2,0-0.2C16,46.9,16,46.2,16,45.4c0-0.3,0-0.6,0-0.9c0-0.2,0.2-0.9,0.1-1c0,0-0.1,0.7,0,0.1c0-0.1,0-0.3,0.1-0.4
				c0-0.3,0.1-0.5,0.2-0.8c0.1-0.6,0.3-1.2,0.5-1.8c0.1-0.2,0.2-0.5,0.3-0.8c-0.4,0.6,0-0.1,0.1-0.3c0.3-0.5,0.5-1.1,0.9-1.6
				c0.2-0.3,0.3-0.5,0.5-0.8c0.1-0.1,0.5-0.8,0.3-0.4c-0.2,0.3,0,0,0.1-0.1s0.2-0.3,0.3-0.4c0.2-0.2,0.4-0.4,0.6-0.7
				c0.4-0.4,0.8-0.8,1.2-1.2c0.2-0.2,0.4-0.4,0.6-0.5c-0.1,0-0.5,0.4-0.1,0.1c0.2-0.1,0.3-0.2,0.5-0.3c0.4-0.3,0.9-0.6,1.4-0.8
				c0.2-0.1,0.5-0.3,0.7-0.4c0.1-0.1,0.2-0.1,0.4-0.2c0.2-0.1,0.6-0.4,0.1,0c0.5-0.3,1.3-0.5,1.8-0.6c0.6-0.2,1.3-0.3,1.9-0.4
				c0.5-0.1,0,0-0.1,0c0.2-0.1,0.4,0,0.6-0.1c0.4,0,0.7,0,1.1-0.1c0.4,0,0.9,0,1.3,0c0.2,0,0.4,0,0.6,0c0.1,0,0.9,0.1,0.4,0
				c1,0.1,1.9,0.1,2.7-0.7c0.7-0.7,1-1.8,0.7-2.7c-0.2-0.5-0.3-1.1-0.4-1.7c0,0.1,0,0.4,0-0.1c0-0.3,0-0.6,0-0.8
				c0-0.3,0-0.6,0.1-0.8c0,0.1-0.1,0.4,0-0.1c0.1-0.3,0.1-0.5,0.2-0.8c0.1-0.2,0.3-0.7,0.1-0.2c0.1-0.2,0.2-0.4,0.3-0.6
				c0.3-0.6-0.3,0.3,0.1-0.2c0.1-0.1,0.2-0.2,0.3-0.3c0.5-0.5-0.4,0.1,0.2-0.1c0,0,0.7-0.3,0.3-0.2c-0.4,0.1,0.3-0.1,0.3-0.1
				c0.2,0,0.8-0.1,0.2,0c0.2,0,0.5,0,0.7,0c0.1,0,0.9,0.1,0.2,0c0.2,0,0.5,0.1,0.7,0.1c0.4,0.1,0.8,0.2,1.1,0.4
				c-0.5-0.2,0.1,0,0.2,0.1c0.2,0.1,0.4,0.2,0.6,0.3c0.5,0.2,0.9,0.5,1.3,0.8c1.6,1,3.2,2.1,5,3c1.9,1,3.9,1.8,5.9,2.4
				c1.1,0.3,2.6,0.9,3.8,0.6c0.4-0.1,0.6-0.3,0.9-0.4c0.3-0.2-0.4,0.1,0.1,0l0.5-0.1c0,0.1-0.7,0,0,0c0.2,0,0.4,0,0.5,0
				c-0.5-0.1,0,0,0.1,0.1c0.1,0,0.4,0.2,0.5,0.2c0,0-0.8-0.3-0.1,0c1.6,0.8,3-0.1,4.4-0.8c0.9-0.4,1.5-1,1.8-2
				c0.1-0.3,0.2-0.7,0.3-1c-0.3,0.5-0.1,0.2,0,0s0.2-0.3,0.2-0.5c0.2-0.4,0.4-0.8,0.6-1.1c0.2-0.4,0.5-0.7,0.7-1.1
				c0.1-0.1,0.5-0.7,0.1-0.1c0.2-0.2,0.4-0.4,0.5-0.6c0.3-0.3,0.5-0.6,0.8-0.9c0.1-0.1,0.2-0.2,0.3-0.3c0.1-0.1,0.2-0.2,0.3-0.2
				c0.2-0.2,0.2-0.1-0.2,0.1c0.2-0.1,0.5-0.3,0.7-0.5c0.4-0.3-0.7,0.2-0.2,0.1c0.3-0.1,0.3,0.1-0.3,0c0.2,0,0.9,0.1,1.1,0
				c-0.5,0.3-1.7-0.6-1.6-1.1c0,0.3,0.2,0.7,0.3,1c0.3,1.2,1.5,2,2.7,2c0.1,0,1,0,1,0c0,0.3-1.1-0.7-0.6-0.2
				c-0.2-0.2-0.3-0.3-0.3-0.6c0.1,0.3,0.1,0.2,0-0.2c0,0.3,0,0.3,0.1-0.2c-0.1,0.3-0.1,0.6-0.1,0.9s0.1,0.7,0.2,1c0-0.3,0-0.3,0,0.1
				s0.1,0.7,0.1,1.1c0,0.7,0,1.5,0,2.2c-0.1,1.6,1.3,2.6,2.8,2.8c0.4,0,0.8,0.1,1.2,0.1c0.1,0,0.6,0.1,0.3,0c-0.3,0,0.2,0,0.3,0
				c0.7,0.1,1.5,0.3,2.2,0.4c1.5,0.3,3,0.8,4.4,1.3c0.2,0.1,0.3,0.1,0.5,0.2c0.4,0.2-0.3-0.2,0.1,0s0.7,0.3,1.1,0.5
				c0.7,0.3,1.3,0.7,2,1.1c1.2,0.7,2.4,1.5,3.5,2.4c1.4,1.1,3.7,0,4.1-1.7c0.2-0.9,0.5-1.7,0.8-2.5s-0.2,0.5,0.2-0.4
				c0.1-0.2,0.2-0.3,0.2-0.5c0.1-0.2,0.1-0.2,0-0.1c-0.6,0.7-1.4,0.8-2.6,0.3c0,0,0.1,0,0.1,0.1c0,0,0.2,0.2,0.3,0.2
				c-0.1,0-0.5-0.5-0.2-0.2c0.1,0.1,0.1,0.1,0.2,0.2s0.1,0.1-0.1-0.2c0,0.1,0.2,0.3,0.2,0.3c0.3,0.5-0.1-0.3,0.1,0.1
				c0,0.1,0.1,0.2,0.1,0.3c0.1,0.4,0.2,0.7,0.3,1.1c0.1,0.4,0.1,0.7,0.2,1.1c0.1,0.4-0.1-0.7,0,0.1c0,0.2,0,0.4,0.1,0.6
				c0.1,0.8,0.1,1.6,0.1,2.4c0,0.4,0,0.8,0,1.2c0,1.1,0.4,1.6,1.1,2.4c0.1,0.2,0.3,0.4,0.4,0.6c-0.2-0.3,0.1,0.1,0.2,0.2
				c0.3,0.4,0.5,0.7,0.8,1.1c0.8,1.1,1.8,1.5,3.1,1.3c0.5-0.1,0.1,0,0,0c0.2,0,0.4,0,0.6,0c0.4,0,0.8,0,1.2,0.1c-0.4,0,0.1,0,0.1,0
				c0.2,0,0.5,0.1,0.7,0.1c0.4,0.1,0.9,0.2,1.3,0.3c1.6,0.4,3.1,0.8,4.6,1.3s3,1,4.5,1.6c0.4,0.1,0.7,0.3,1,0.4
				c0.2,0.1,0.3,0.1,0.5,0.2c-0.4-0.2,0.1,0,0.1,0.1c0.8,0.3,1.5,0.7,2.3,1c0.7,0.3,1.4,0.7,2,1c0.3,0.1,0.6,0.3,0.9,0.4
				c0.5,0.2-0.2,0-0.1-0.1c0.1,0.1,0.1,0.1,0.2,0.2c0.1,0.2,0.1,0.1-0.2-0.2c0.2,0.3-0.2-0.1-0.1-0.2l0.1,0.3c-0.1,0,0-0.7,0-0.2
				c0,0.2,0,0.3,0,0.5c0,0.3,0,0.7,0,1c0,0.2,0,0.3,0,0.5c0-0.6,0,0.1,0,0.2c-0.1,0.3-0.1,0.6-0.2,0.9c0,0.2-0.1,0.3-0.2,0.5
				c0,0.1-0.2,0.4,0,0c-0.2,0.3-0.3,0.6-0.5,0.8c-0.1,0.1-0.3,0.3,0,0c-0.1,0.1-0.2,0.3-0.4,0.4c-0.1,0.1-0.3,0.3-0.4,0.4
				c0.1-0.1,0.5-0.3,0,0c-0.3,0.2-0.5,0.3-0.8,0.5c-0.1,0.1-0.3,0.1-0.4,0.2c0.1,0,0.5-0.2,0,0c-0.3,0.1-0.6,0.2-1,0.3
				c-0.7,0.2-1.4,0.4-2.1,0.5c-0.4,0.1-0.7,0.1-1.1,0.2c-0.2,0-0.4,0.1-0.5,0.1s-0.2,0-0.3,0c0.2,0,0.3,0,0.1,0
				c-0.9,0.1-1.7,0.2-2.6,0.2c-0.5,0-0.9,0-1.4,0c-0.2,0-0.4,0-0.5,0c-0.6-0.1,0.3,0.1-0.3-0.1c-2.2-0.4-3.8,1.2-3.4,3.4
				c0.2,1.1,0.3,2.1,0.5,3.2c0.1,0.4,0.1,0.4,0,0c0,0.2,0.1,0.4,0.1,0.6c0,0.3,0.1,0.6,0.1,0.8c0.1,0.7,0.2,1.4,0.3,2.1
				c0.3,2.6,0.7,5.3,1.1,7.9c0.2,1.5,2.1,2.2,3.4,1.9c0.2-0.1,0.5-0.1,0.7-0.2c0.1,0,1-0.1,0.3-0.1c0.4-0.1,0.9-0.1,1.3-0.1
				c0.5,0,1,0,1.5,0c0.6,0-0.5-0.1,0.1,0c0.2,0,0.4,0.1,0.6,0.1c0.6,0.2,0,0.1,0,0s0.7,0.6,0.3,0.1c-0.3-0.4,0.1,0.1,0.2,0.2
				c0.2,0.2,0.3,0.4,0.5,0.5c0.1,0.1,0.2,0.3,0.4,0.4c0.1,0.1,0.5,0.6,0.2,0.2s0.1,0.2,0.2,0.3c0.1,0.2,0.3,0.4,0.4,0.5
				c0.6,0.8,1.1,1.6,1.5,2.4c0.1,0.2,0.2,0.4,0.3,0.6c0.1,0.2,0.3,0.6,0.1,0.2c0.2,0.5,0.4,1,0.5,1.5c0.1,0.2,0.1,0.4,0.2,0.7
				c0,0.2,0.3,0.7,0,0.1c0.1,0.3,0.1,1.2,0,1.5c0-0.1,0-0.2,0-0.3c0,0.1-0.1,0.3-0.1,0.4c-0.1,0.2-0.1,0.4-0.2,0.6
				c0.2-0.6,0-0.1-0.1,0.1c-0.1,0.3-0.3,0.5-0.5,0.7c-0.9,1.2-0.2,3.1,1,3.8C119.8,91.5,121.2,90.9,122.1,89.7z"/>
		</g>
		<g>
			<path class="st0" d="M33.7,65.2c0.1,0,0.2,0,0.3-0.1c-1.1-1.1-2.3-2.3-3.4-3.4c0,0.1,0,0.1,0,0.2c1.4-0.6,2.7-1.1,4.1-1.7
				c-0.1,0-0.2-0.1-0.2-0.1c-0.3-0.2-0.7-0.3-1-0.3c-0.4-0.1-0.7-0.1-1.1,0c-0.4,0.1-0.7,0.3-0.9,0.5c-0.3,0.2-0.5,0.5-0.7,0.8
				c-0.1,0.2-0.2,0.4-0.3,0.7c-0.1,0.5-0.1,1,0,1.5c0.1,0.2,0.2,0.4,0.3,0.7c0.2,0.4,0.6,0.7,1,1c0.1,0,0.2,0.1,0.2,0.1
				c0.4,0.3,0.9,0.4,1.4,0.4c0.4,0,0.7-0.1,1.1-0.2c0.3-0.1,0.6-0.3,0.9-0.6c0.3-0.3,0.6-0.8,0.7-1.2c0-0.1,0-0.1,0-0.2
				c0.1-0.5,0.1-1,0-1.5s-0.4-0.9-0.7-1.2s-0.8-0.6-1.2-0.7c-0.5-0.1-1-0.1-1.5,0c-0.1,0-0.2,0-0.3,0.1c-0.4,0.1-0.7,0.3-0.9,0.5
				c-0.3,0.2-0.5,0.5-0.7,0.8s-0.3,0.7-0.3,1c-0.1,0.4-0.1,0.7,0,1.1c0.1,0.2,0.2,0.4,0.3,0.7c0.2,0.4,0.6,0.7,1,1
				c0.2,0.1,0.4,0.2,0.7,0.3C32.7,65.3,33.2,65.3,33.7,65.2z"/>
		</g>
	</g>
	<g>
		<g>
			<path class="st0" d="M295.2,114.7c-1.4-5.1-2.3-10.3-3.4-15.4c-0.5-2.4-1-4.8-1.6-7.2c-0.4-1.6-0.9-3.1-1.2-4.7
				c-0.8-3.5-1.5-7-2.3-10.6c-0.4,1-0.8,2.1-1.3,3.1c2.2-1.3,4.4-2.6,6.6-4.1c1.1-0.7,2.1-1.4,3.2-2.2c0.5-0.4,1-0.7,1.5-1.1
				c0.2-0.1,0.6-0.3,0.7-0.5c0,0-0.3,0.2-0.1,0c0.2-0.2,0.7-0.3,1-0.4c4.5-2.1,6.8-7.3,5.6-12c-0.7-2.8-2.7-5.6-5.5-6.5
				c0.6,1.4,1.1,2.7,1.7,4.1c3.8-5.2,4.9-12.3,2.7-18.4c-2-5.5-6.2-9.8-11.7-12c-3.4-1.4-7-1.6-10.6-1.1c1.1,1.1,2.3,2.3,3.4,3.4
				c1.5-4.9,0-12-5.8-13c-2.6-0.5-5.1,0.2-7.4,1.5c-2.1,1.1-3.9,2.6-6,3.6c-0.6,0.3-1.1,0.6-1.7,0.8c-0.1,0.1-0.2,0.1-0.4,0.2
				c0.3-0.1,0.1,0-0.1,0c-0.3,0.1-0.7,0.3-1,0.4c-1.3,0.5-2.6,0.9-3.9,1.2c0.7,0.1,1.4,0.2,2.1,0.3c-2.3-1.3-5.1-1.3-7.4,0
				c0.9,0,1.9,0,2.8,0c-0.8-0.4-1.6-0.8-2.4-1.2c0.4,0.6,0.8,1.1,1.3,1.7c-1-3.4-3.3-6.8-6.2-8.9c-1.3-0.9-2.7-1.3-4.3-1.2
				c-1.5,0.1-2.7,0.8-3.3,2.1c-0.6,1.1-0.8,2.4-0.9,3.6c1.1-0.6,2.3-1.3,3.4-1.9c-2.4-0.9-4.8,0.3-5.6,2.7c-0.5,1.6-0.5,3.5-0.4,5.2
				c0.9-0.9,1.8-1.8,2.8-2.8c-6.7,0.5-13.1,2.8-18.5,6.8c1.4,0.6,2.7,1.1,4.1,1.7c-0.2-1-0.5-1.9-0.9-2.8c-0.5-1.1-0.9-2.3-1.8-3.2
				c-1.7-1.7-4.3-1-5.7,0.7c-2.5,3-2.3,7.4-2.3,11c0.3-0.7,0.5-1.3,0.8-2c-0.9,1.1-1.7,2.2-2.5,3.3c1-0.4,2.1-0.8,3.1-1.3
				c-4-0.7-8.1,0.7-11.9,1.9c-3.7,1.2-7.3,2.7-10.7,4.4c-1.7,0.9-3.3,1.7-4,3.7c-0.5,1.6-0.3,3.7,0,5.3c0.8,3.8,3.5,6.5,7.2,7.7
				c1.8,0.6,3.7,0.8,5.6,1.1c2.2,0.3,4.4,0.3,6.6-0.1c-1.1-1.1-2.3-2.3-3.4-3.4c-0.4,2.5-0.7,5.1-1.1,7.6c0,0.3-0.1,0.6-0.1,0.9
				c0,0.1-0.1,0.9-0.1,0.6s-0.1,0.5-0.1,0.6c0,0.3-0.1,0.6-0.1,0.9c-0.2,1.3-0.4,2.7-0.6,4c1.1-0.6,2.3-1.3,3.4-1.9
				c-2.4-0.6-5.3-0.9-7.7,0c-2.4,0.8-3.8,2.9-5.3,4.9c-1.4,1.9-2.6,4.2-3,6.6c-0.5,2.8-0.1,6.2,2.2,8.2c1.3,1.1,2.8,1.7,4.5,2.1
				c1.8,0.4,3.7,0.7,5.5,0.9c-0.9-1.2-1.8-2.3-2.7-3.5c-2.2,10.4-5,20.6-6.8,31c-1.1,6.3-2,12.8-1.7,19.3c0.2,3.4,0.7,6.9,1.9,10.1
				c0.3,0.7,0.6,1.5,0.9,2.2c0.1,0.3,0.2,0.5,0.3,0.8c0.1,0.1,0.1,0.2,0.2,0.3c0,0.1,0.1,0.1,0.1,0.2c0,0.1,0.1,0.2-0.1-0.1
				c-0.3-0.5,0,0.1,0.1,0.2c1.4,4,3.6,7.8,7.1,10.3c3.3,2.3,7.5,2.6,11.3,1.7c1-0.2,2-0.6,3-0.9c0.6-0.3,1.3-0.5,1.9-0.8
				c0.1-0.1,0.3-0.1,0.4-0.2c-0.1,0-0.3,0.1,0,0c0.4-0.1,0.7-0.2,1.1-0.3c1.3-0.3,2.6-0.4,3.9-0.7c0.7-0.2,1.3-0.3,2-0.4
				c0.4-0.1,0.8-0.1,1.2-0.2c0.1,0,0.3,0,0.4-0.1c0.1,0,0.7-0.1,0.3,0c1.5-0.2,2.9-0.3,4.4-0.3c-0.5-0.1-0.9-0.3-1.4-0.4
				c-0.7-0.5,0.1,0.1,0.3,0.2c0.2,0.2,0.4,0.3,0.6,0.5c0.5,0.4,1,0.9,1.6,1.3c1.2,1,2.4,2,3.6,2.8c2.8,2,6,3.5,9.3,4.7
				c2.3,0.9,5.1,1.7,7.6,1.1c1.4-0.3,2.5-1.3,2.9-2.7c0.4-1.3-0.2-2.6-0.9-3.6c-0.8-1.1-1.9-2.1-2.6-3.3c0.4,0.6-0.1-0.2-0.3-0.4
				c-0.2-0.3-0.3-0.5-0.5-0.8c-0.1-0.2-0.3-0.7-0.4-0.8c0.2,0.1,0.2,0.6,0.1,0.1c0-0.2-0.1-0.4-0.1-0.6c-1.1,1.1-2.3,2.3-3.4,3.4
				c4.4,1,8.7,2.1,13.1,3.3c3.6,1,7.2,2,10.9,2.8c1.6,0.3,3.3,0.7,5,0.5c2-0.2,4-0.7,5.9-1.4c3.2-1.2,6.6-2.5,9.4-4.5
				c5-3.4,8.6-8.4,10.3-14.1c1.7-5.7,1.7-11.8,0.4-17.6c-0.7-3.4-1.9-6.6-3.4-9.7c-0.7-1.5-1.6-3-2.5-4.4c-0.4-0.7-0.9-1.4-1.4-2
				l-0.1-0.2c0.2,0.4,0.2,0.5,0.1,0.2c0-0.1-0.1-0.2-0.1-0.4C295.5,115.8,295.4,115.2,295.2,114.7c-0.4-1.4-2-2.4-3.4-1.9
				s-2.3,1.9-1.9,3.4c0.2,0.8,0.4,1.6,0.7,2.3c0.3,0.8,0.8,1.5,1.3,2.2c0.8,1.2,1.5,2.4,2.2,3.7c0.3,0.6,0.6,1.2,0.9,1.7
				c0.2,0.3,0.3,0.7,0.5,1.1c0.1,0.1,0.1,0.2,0.2,0.4c0.1,0.3,0.1,0.2-0.1-0.1c0,0.1,0.1,0.2,0.1,0.4c0.5,1.3,1,2.6,1.4,4
				c0.4,1.3,0.7,2.7,0.9,4c0.1,0.4,0.1,0.7,0.2,1.1c0.1,0.4,0-0.2,0-0.2s0.1,0.5,0.1,0.6c0.1,0.7,0.1,1.3,0.2,2
				c0.1,1.4,0.1,2.8,0,4.2c0,0.3,0,0.6-0.1,0.9c0,0.2,0,0.4-0.1,0.5c0,0.2-0.1,0.4,0-0.2c-0.2,0.7-0.2,1.4-0.4,2.1
				c-0.3,1.3-0.6,2.5-1.1,3.7c-0.1,0.2-0.3,0.5-0.3,0.8c0.1-0.6,0.1-0.3,0,0c-0.1,0.2-0.1,0.3-0.2,0.5c-0.3,0.6-0.6,1.1-0.9,1.7
				c-0.3,0.6-0.7,1.1-1,1.6c-0.1,0.1-0.5,0.6-0.5,0.7c0-0.2,0.4-0.5,0,0c-0.1,0.1-0.2,0.3-0.3,0.4c-0.9,1-1.8,2-2.9,2.8
				c-0.1,0.1-0.2,0.2-0.4,0.3c-0.5,0.4,0.5-0.4,0,0c-0.3,0.2-0.5,0.4-0.8,0.5c-0.6,0.4-1.3,0.8-1.9,1.2c-0.6,0.3-1.2,0.6-1.8,0.9
				c-0.2,0.1-0.4,0.2-0.6,0.2c-0.6,0.3,0.6-0.2-0.2,0.1c-0.5,0.2-1,0.4-1.4,0.6c-1.6,0.6-3.1,1.2-4.8,1.6c-0.4,0.1-0.8,0.2-1.2,0.3
				c-0.3,0-0.5,0.1-0.8,0.1c-0.9,0.2,0.5,0-0.1,0c-0.3,0-0.6,0-0.9,0c-0.2,0-0.4,0-0.6,0s-0.8-0.1-0.1,0c-1.7-0.2-3.4-0.7-5-1.1
				c-2.1-0.6-4.3-1.1-6.4-1.7c-4.7-1.3-9.4-2.5-14.2-3.6c-2.1-0.5-3.8,1.3-3.4,3.4c0.5,2.6,2.6,4.7,4.2,6.7c0.1,0.1,0.2,0.2,0.3,0.3
				c0.3,0.4,0-0.1-0.1-0.1c0.1,0,0.3,0.4,0.4,0.5c0.1,0.1,0.2,0.3,0.3,0.4c-0.3-0.3-0.3-0.7-0.2-0.4s0,0.1-0.1-0.5
				c0-0.2,0.1-0.4,0.1-0.6c0.1-0.3,0.5-0.9,0.5-1c-0.2,0.2,0.7-0.5,0.3-0.2c-0.5,0.3,0.7-0.3,0.2-0.1c-0.1,0-0.2,0-0.3,0.1
				c0,0,0.8,0,0.4-0.1c-0.2,0-0.5,0-0.7,0c-0.1,0-0.3,0-0.4,0c-0.4,0,0.7,0.1,0.2,0c-0.3-0.1-0.5-0.1-0.8-0.2
				c-0.7-0.1-1.3-0.3-1.9-0.5c-0.7-0.2-1.5-0.5-2.2-0.8c-0.1,0-0.6-0.3-0.2-0.1c-0.2-0.1-0.3-0.1-0.5-0.2c-0.4-0.2-0.9-0.4-1.3-0.6
				c-1.6-0.7-3.1-1.6-4.5-2.5c-0.3-0.2-0.7-0.5-1-0.7c-0.1-0.1-0.3-0.2-0.4-0.3c0.4,0.3,0,0-0.1-0.1c-0.6-0.4-1.1-0.9-1.6-1.3
				c-1.1-0.9-2.1-1.9-3.2-2.7c-1-0.7-2.3-0.5-3.4-0.4c-0.9,0.1-1.8,0.2-2.8,0.3c-2,0.3-3.9,0.7-5.9,1.1c-1.8,0.4-3.6,0.5-5.3,1.3
				c-0.4,0.2-0.7,0.3-1.1,0.5c0.6-0.3-0.3,0.1-0.5,0.2c-0.6,0.2-1.2,0.4-1.9,0.6c-0.6,0.2-1.2,0.3-1.8,0.4c-0.5,0.1-0.2-0.1,0.1,0
				c0,0-0.3,0-0.4,0c-0.3,0-0.6,0-0.9,0.1c-0.5,0-1.1-0.1-1.6-0.1c-0.4,0,0.7,0.1,0.2,0c-0.1,0-0.2,0-0.3-0.1
				c-0.3,0-0.5-0.1-0.8-0.2c-0.3-0.1-0.5-0.1-0.8-0.2c-0.1,0-0.2-0.1-0.3-0.1c-0.5-0.2,0.5,0.3,0.2,0.1c-0.4-0.2-0.9-0.4-1.3-0.7
				c-0.2-0.1-0.4-0.3-0.7-0.5c0,0,0.5,0.4,0.2,0.1c-0.1-0.1-0.2-0.2-0.3-0.3c-0.4-0.4-0.8-0.7-1.1-1.1c-0.1-0.1-0.2-0.2-0.3-0.3
				c-0.4-0.4,0,0.1,0.1,0.1c-0.1,0-0.4-0.6-0.5-0.7c-0.3-0.5-0.6-1-0.9-1.5c-0.3-0.6-0.6-1.1-0.8-1.7c-0.2-0.4,0.2,0.6,0,0
				c-0.1-0.1-0.1-0.3-0.2-0.4c-0.1-0.3-0.3-0.7-0.4-1c-0.2-0.6-0.5-1.3-0.8-1.9c-0.1-0.3-0.3-0.6-0.4-1c0-0.1-0.1-0.2-0.1-0.3
				c-0.1-0.3,0.3,0.8,0.2,0.4c-0.1-0.2-0.1-0.3-0.2-0.5c-0.3-0.8-0.6-1.5-0.8-2.3c-0.3-0.9-0.5-1.9-0.6-2.8c0-0.3-0.1-0.5-0.1-0.8
				s-0.1-0.8,0,0.2c0-0.2,0-0.3-0.1-0.5c-0.1-0.6-0.1-1.2-0.2-1.9c-0.2-3.3,0-6.6,0.3-9.9c0.1-1.1,0.2-2.1,0.4-3.2
				c0-0.1,0-0.3,0.1-0.4c0.1-0.5,0.1,0,0,0.1c0.1,0,0.1-0.7,0.1-0.8c0.1-0.6,0.2-1.2,0.3-1.8c0.4-2.8,0.9-5.5,1.5-8.3
				c1.4-6.9,3.2-13.7,4.7-20.5c0.4-1.6,0.7-3.1,1-4.7c0.4-1.9-0.8-3.3-2.7-3.5c-0.3,0-0.6-0.1-0.9-0.1c0.4,0.1-0.5-0.1-0.6-0.1
				c-0.6-0.1-1.3-0.2-1.9-0.3c-0.5-0.1-1-0.2-1.5-0.3c-0.2-0.1-0.4-0.1-0.7-0.2c-0.1,0-0.2-0.1-0.3-0.1c0.4,0.1,0.2,0.1-0.1-0.1
				c-0.1-0.1-0.6-0.4-0.4-0.2c0.3,0.2-0.1-0.1-0.1-0.1s0.3,0.4,0.1,0.1c-0.1-0.2-0.3-0.4-0.4-0.6c0-0.1-0.1-0.4,0-0.1
				c0.1,0.4,0-0.1,0-0.2c-0.1-0.2-0.1-0.4-0.1-0.6c-0.1-0.3,0.1,0.2,0,0.2V85c0-0.2,0-0.5,0-0.7c0-0.1,0-0.2,0-0.3
				c0-0.4-0.1,0.5,0,0.1c0.1-0.5,0.2-0.9,0.3-1.4c0.1-0.2,0.1-0.4,0.2-0.6c0-0.1,0.1-0.2,0.1-0.3c0.1-0.4-0.2,0.4,0,0
				c0.5-0.9,0.9-1.8,1.5-2.6c0.3-0.4,0.5-0.7,0.8-1.1c0.1-0.2,0.3-0.3,0.4-0.5c0.2-0.2-0.2,0.3-0.2,0.3l0.2-0.2
				c0.3-0.3,0.5-0.6,0.8-0.9c0.1-0.2,0.3-0.3,0.5-0.5s-0.2,0.2-0.2,0.2s0.3-0.1,0.3-0.2c0.1-0.1,0.2-0.2,0,0c-0.2,0.1-0.2,0.1-0.1,0
				c0.1,0,0.2-0.1,0.3-0.1c0.2-0.1,0.5-0.1,0.7-0.2c0.3-0.1-0.2,0-0.2,0c0.1,0,0.3,0,0.4,0c0.3,0,0.6,0,0.9,0c0.5,0,1,0,1.6,0.1
				c0.1,0,0.4,0.1,0.1,0c-0.4-0.1,0.2,0,0.3,0.1c0.3,0.1,0.6,0.1,0.9,0.2c1.3,0.3,3.2-0.4,3.4-1.9c0.4-2.6,0.8-5.2,1.1-7.9
				c0.1-0.6,0.2-1.3,0.3-1.9c0-0.3,0.1-0.6,0.1-1c0-0.2,0.1-0.4,0.1-0.6c0,0.3,0,0.4,0,0.1c0.2-1.1,0.3-2.2,0.5-3.4
				c0.4-2.2-1.2-3.8-3.4-3.4c-0.5,0.1-0.2,0-0.1,0c-0.2,0-0.4,0-0.5,0.1c-0.4,0-0.7,0-1.1,0c-0.8,0-1.7,0-2.5-0.1
				c-0.1,0-1.1-0.1-0.6-0.1c-0.3,0-0.7-0.1-1-0.2c-0.7-0.1-1.4-0.2-2-0.4c-0.6-0.1-1.2-0.3-1.8-0.5c-0.1-0.1-0.3-0.1-0.4-0.2
				c0.5,0.2,0.2,0.1,0,0c-0.3-0.2-0.6-0.4-1-0.6c-0.1-0.1-0.4-0.3,0,0c-0.1-0.1-0.2-0.2-0.3-0.3s-0.6-0.7-0.3-0.3
				c-0.2-0.3-0.3-0.5-0.5-0.8c-0.3-0.4-0.1-0.1,0,0c-0.1-0.2-0.2-0.5-0.2-0.7c-0.1-0.3-0.2-0.6-0.2-0.9c0-0.2-0.1-0.3-0.1-0.5
				c0,0.1,0,0.5,0,0c0-0.3,0-0.6,0-1c0-0.2,0-0.3,0-0.5c0-0.1,0-0.2,0-0.3c0-0.2,0-0.1,0,0.3c0,0,0.1-0.4,0.1-0.3
				c0,0-0.3,0.6-0.1,0.2c0,0-0.4,0.6-0.1,0.2c0.3-0.4-0.1,0.3-0.1,0.1s1.8-0.9,2-1.1c0.7-0.3,1.4-0.7,2-1c0.3-0.2,0.7-0.3,1-0.5
				c0.2-0.1,0.3-0.2,0.5-0.2c-0.3,0.1,0.1-0.1,0.3-0.1c1.5-0.6,3-1.2,4.5-1.7c1.7-0.6,3.4-1.1,5.1-1.5c0.9-0.2,1.8-0.5,2.7-0.6
				c0.6-0.1,0.3,0,0.1,0c0.3,0,0.6,0,0.9-0.1c0.2,0,0.4,0,0.6,0c0.7,0-0.3-0.1,0.3,0c1.3,0.2,2.4-0.2,3.1-1.3c0.2-0.3,0.5-0.7,0.7-1
				c0,0,0.4-0.5,0.3-0.4c-0.1,0.2,0.3-0.3,0.3-0.4c0.6-0.8,1.1-1.4,1.2-2.4c0-0.4,0-0.8,0-1.2c0-0.8,0-1.6,0-2.4
				c0-0.2,0-0.5,0.1-0.7c0-0.3,0-0.3,0,0c0.1-0.4,0.1-0.8,0.2-1.2c0.1-0.3,0.1-0.7,0.2-1c0-0.1,0.1-0.3,0.1-0.4c0.1-0.4-0.2,0.2,0,0
				c0-0.1,0.3-0.4,0.3-0.4c0,0.3-0.4,0.2,0,0.1l0.1-0.1c0.2-0.1,0.1-0.1-0.3,0.2c0.1,0,0.1-0.1,0.2-0.1c0,0,0.1-0.1,0.2-0.1
				c-0.8-0.1-1.6-0.1-2.5-0.2c-0.2-0.3-0.2-0.3-0.1-0.1c0,0.2,0.2,0.4,0.3,0.6c0,0.1,0.1,0.2,0.1,0.3c-0.1-0.2-0.1-0.2,0,0
				c0.3,0.9,0.6,1.7,0.8,2.7c0.3,1.6,2.7,2.7,4.1,1.7c1.1-0.9,2.3-1.6,3.5-2.3c0.7-0.4,1.3-0.7,2-1c0.4-0.2,0.7-0.3,1.1-0.5
				c0.4-0.2-0.4,0.1,0.1,0c0.2-0.1,0.4-0.2,0.6-0.2c1.4-0.5,2.8-1,4.3-1.3c0.8-0.2,1.5-0.3,2.3-0.4c0.2,0,0.3,0,0,0
				c0.2,0,0.3,0,0.5-0.1c0.4,0,0.9-0.1,1.3-0.1c1.4-0.1,2.8-1.2,2.8-2.8c0-1.1,0-2.1,0.1-3.2c0-0.6,0,0,0,0c-0.1,0,0.4-0.9,0-0.1
				c0-0.1,0.1-0.1,0.1-0.2c-0.3,0.5-0.7,0.8-1.3,0.8c-0.1,0-0.2,0-0.3,0c0.2,0,0.3,0.1,0.5,0.2c1.3,0.5,3.2-0.5,3.4-1.9
				c0.1-0.6,0.2-1.1,0.3-1.7c0-0.2,0.1-0.4,0.1-0.6c0-0.1,0-0.2,0.1-0.3c0.1-0.3,0.1-0.3-0.1,0.1c-0.4,0.3-0.7,0.5-1.1,0.8
				c-0.5,0-0.6,0.1-0.3,0c0.1,0,0.3,0,0.5,0s0.4,0.1,0.5,0c-0.5,0.1-0.6-0.1-0.3,0c0.5,0.1-0.6-0.4-0.2-0.1c0.1,0.1,0.2,0.1,0.3,0.2
				s0.2,0.1,0.3,0.2c0.5,0.3-0.5-0.4,0,0c0.5,0.5,1,1,1.5,1.5c0.1,0.2,0.3,0.3,0.4,0.5c-0.4-0.5-0.1-0.1,0,0
				c0.3,0.4,0.5,0.7,0.7,1.1c0.4,0.7,0.8,1.4,1.1,2.1c-0.3-0.7,0.1,0.3,0.1,0.5c0.3,1,0.8,1.6,1.7,2c1.5,0.7,3.1,1.8,4.8,1
				c0.7-0.3-0.3,0,0.1-0.1c0.2,0,0.4-0.1,0.6-0.2c-0.6,0.1,0.1,0,0.2,0c0.5,0,0.2,0,0,0c0.3,0,0.5,0.1,0.7,0.2c-0.5-0.2,0,0,0.1,0.1
				c1,0.5,1.9,0.4,2.9,0.1c2.1-0.5,4.1-1.3,6-2.2c1.8-0.8,3.5-1.8,5.1-2.9c0.7-0.5,1.4-1,2.2-1.4c0.4-0.2,0.8-0.4,1.2-0.6
				c-0.5,0.2,0.2-0.1,0.3-0.1c0.3-0.1,0.5-0.2,0.8-0.2c0.2,0,0.4-0.1,0.6-0.1c-0.7,0.1,0.3,0,0.4,0c0.2,0,0.3,0,0.5,0
				c-0.7,0,0.2,0.1,0.4,0.1c0.5,0.1,0.1,0,0,0c0.1,0.1,0.9,0.6,0.4,0.2c0.2,0.1,0.3,0.3,0.4,0.4s0.2,0.2,0.2,0.3
				c-0.2-0.2-0.2-0.2,0,0c0.1,0.2,0.2,0.4,0.3,0.6c-0.2-0.4,0,0,0.1,0.2c0.1,0.3,0.1,0.5,0.2,0.8c0.2,0.8,0-0.4,0.1,0.4
				c0,0.6,0,1.1,0,1.7c0.1-0.5-0.1,0.4-0.1,0.4c-0.1,0.4-0.2,0.7-0.3,1.1c-0.3,0.9,0,2,0.7,2.7c0.8,0.8,1.7,0.9,2.7,0.7
				c-0.4,0.1,0.1,0,0.1,0c0.2,0,0.4,0,0.6-0.1c0.4,0,0.9,0,1.3,0c0.6,0,1.3,0.1,1.9,0.1c0.4,0-0.5-0.1-0.1,0c0.1,0,0.3,0,0.4,0.1
				c0.3,0.1,0.6,0.1,0.9,0.2c0.6,0.1,1.1,0.3,1.7,0.5c0.3,0.1,0.6,0.2,0.9,0.3c-0.1,0-0.6-0.3-0.1,0c0.1,0.1,0.2,0.1,0.4,0.2
				c0.5,0.3,1.1,0.5,1.6,0.9c0.4,0.3,1,0.5,1.3,0.9c-0.4-0.5,0,0,0.2,0.2c0.3,0.2,0.5,0.4,0.7,0.7c0.4,0.4,0.8,0.7,1.1,1.1
				c0.2,0.2,0.4,0.5,0.6,0.7c0.2,0.3-0.3-0.4-0.1-0.1c0.1,0.1,0.2,0.3,0.3,0.4c0.3,0.5,0.6,0.9,0.9,1.4c0.1,0.3,0.3,0.5,0.4,0.8
				c0.1,0.1,0.1,0.2,0.2,0.4c0,0.1,0.3,0.6,0.1,0.2c-0.1-0.4,0.2,0.4,0.2,0.5c0.1,0.3,0.2,0.6,0.3,0.9c0.2,0.6,0.3,1.2,0.4,1.8
				c0,0.2,0.2,1,0.1,0.3c0.1,0.3,0.1,0.6,0.1,0.8c0.1,0.7,0.1,1.4,0,2.1c0,0.4-0.1,0.9-0.1,1.3c0-0.1,0.1-0.5,0,0
				c0,0.2-0.1,0.4-0.1,0.6c-0.2,0.8-0.4,1.5-0.6,2.3c-0.1,0.2-0.1,0.3-0.2,0.5c-0.2,0.6,0.1-0.3-0.1,0.3c-0.2,0.4-0.4,0.7-0.6,1.1
				c-0.4,0.7-0.8,1.4-1.3,2.1c-1.1,1.5,0.1,3.6,1.7,4.1c0.3,0.1,0.3,0.1,0,0c0.1,0.1,0.3,0.1,0.4,0.2c-0.5-0.4,0.2,0.3,0.3,0.3
				c0.2,0.2,0.2,0.2,0,0c0.1,0.1,0.2,0.2,0.3,0.4c0.1,0.2,0.2,0.4,0.4,0.6c0.1,0.1,0.1,0.3,0.2,0.4c-0.1-0.3-0.1-0.3,0,0
				s0.2,0.6,0.3,0.9c0,0.1,0.1,0.3,0.1,0.5c0-0.3,0-0.4,0-0.2c0,0.3,0,0.5,0,0.8c0,0.1-0.1,1.1,0,0.4c0,0.3-0.1,0.6-0.2,0.9
				c-0.1,0.2-0.1,0.4-0.2,0.6c0.2-0.7-0.1,0.2-0.2,0.3c-0.1,0.3-0.3,0.5-0.5,0.7c0.4-0.5-0.1,0.1-0.2,0.2c-0.2,0.2-0.4,0.4-0.5,0.5
				s-0.2,0.2-0.3,0.3c0.3-0.2,0.3-0.2,0,0c-0.2,0.1-0.5,0.3-0.7,0.4s-0.6,0.3-0.1,0.1c-0.5,0.2-0.9,0.4-1.3,0.7
				c-0.3,0.2-0.6,0.5-0.9,0.7c-1.2,0.8-2.3,1.7-3.5,2.5c-2.4,1.6-4.8,3.1-7.3,4.5c-1.1,0.6-1.5,1.9-1.3,3.1c0.7,3.3,1.4,6.5,2.1,9.8
				c0.4,1.6,0.8,3.1,1.2,4.7c1.3,5.1,2.2,10.2,3.3,15.3c0.6,2.7,1.1,5.3,1.8,8c0.4,1.4,2,2.4,3.4,1.9
				C294.7,117.6,295.6,116.2,295.2,114.7z"/>
		</g>
	</g>
	<g>
		<path class="st1" d="M211.9,57.1c3.8-2.5,9.1-10.1,6.3-14.6c-0.9-1.3-2.5-2-4.1-2.1s-3.1,0.2-4.7,0.6c-5.7,1.4-11.2,3.5-16.3,6.2
			c-1.2,0.5-1.7,1.3-1.6,2.6c0,2.2,0.4,4.5,1.8,6.1c1.8,2.1,4.7,2.7,7.3,3.1c3.7,0.6,8,0.9,10.9-1.5"/>
	</g>
	<g>
		<path class="st2" d="M197.9,56.9c-2.7-1.7-2.3-2.8-1.7-3.8c0.5-0.7,1.3-0.9,2.1-1.2c5.1-1.6,10.6-2.4,15.8-4
			c1.5-0.5,3.1-1.2,4.5-2.3c-0.6,1.8-0.6,2.4-1.5,4.3c-1,2.3-3.3,5.1-7.1,6.7C207.1,57.8,201.8,59.3,197.9,56.9z"/>
	</g>
	<g>
		<path class="st1" d="M229.5,157.9c3,1,6.1,5.4,11.8,8.3c6,3.1,11.1,4.4,12.3,2.9s-8.5-7.7-3.2-11.2
			C251.5,157.3,229.5,157.9,229.5,157.9z"/>
	</g>
	<g>
		<circle class="st3" cx="283.7" cy="45.5" r="17.2"/>
	</g>
	<g>
		<g>
			<g>
				<path class="st4" d="M281.4,40.3C281.4,40.1,281.4,40.3,281.4,40.3C281.4,40.4,281.4,40.3,281.4,40.3c0.1-0.1,0.2-0.2,0.3-0.3
					c0.2-0.2,0.4-0.2,0.7-0.2c0.8,0.3,1,1.2,1,1.9c0.1,1.1,0,2.2,0,3.4s0,2.4-0.1,3.6c0,1.2,1.8,1.2,1.8,0c0-1.6,0-3.1,0.1-4.7
					c0-1.5,0.2-3.1-0.5-4.4c-0.6-1.1-1.9-1.9-3.2-1.6c-1.1,0.3-2.3,1.5-1.9,2.7C280,41.9,281.8,41.5,281.4,40.3L281.4,40.3z"/>
			</g>
		</g>
		<g>
			<g>
				<path class="st4" d="M285.3,40.3C285.2,40.1,285.3,40.3,285.3,40.3c0-0.1,0.1-0.1,0.2-0.2c0.1-0.1,0.4-0.2,0.5-0.3
					c0.5-0.1,0.9,0.4,1.1,0.9c0.3,0.7,0.2,1.5,0.2,2.2c0,0.6-0.1,1.2-0.2,1.8c-0.1,1.3-0.1,2.7,0.8,3.7c0.5,0.6,1.2,0.9,1.9,1
					c0.8,0.1,1.5-0.1,2.3-0.2c0.5,0,0.9-0.4,0.9-0.9s-0.4-1-0.9-0.9c-0.9,0.1-2.3,0.6-2.9-0.3c-0.5-0.8-0.3-2-0.2-2.9
					c0.1-1.2,0.3-2.6-0.1-3.8c-0.4-1.3-1.5-2.4-2.9-2.4c-1.3,0-3,1.4-2.5,2.8C283.9,41.9,285.7,41.5,285.3,40.3L285.3,40.3z"/>
			</g>
		</g>
		<g>
			<g>
				<path class="st4" d="M277.7,40.3C277.6,40.1,277.7,40.3,277.7,40.3C277.7,40.4,277.7,40.3,277.7,40.3c0.1-0.1,0.2-0.2,0.3-0.3
					c0.2-0.2,0.4-0.2,0.7-0.2c0.8,0.3,1,1.2,1,1.9c0.1,1.1,0,2.2,0,3.4s0,2.4-0.1,3.6c0,1.2,1.8,1.2,1.8,0c0-1.6,0-3.1,0.1-4.7
					c0-1.5,0.2-3.1-0.5-4.4c-0.6-1.1-1.9-1.9-3.2-1.6c-1.1,0.3-2.3,1.5-1.9,2.7S278.1,41.5,277.7,40.3L277.7,40.3z"/>
			</g>
		</g>
		<g>
			<g>
				<path class="st4" d="M291.2,47.6c0.4,0.5,0.9,0.9,1.5,1.3c-0.1-0.5-0.1-1-0.2-1.4c-0.3,0.3-0.6,0.5-1,0.8c0.1,0,0.1-0.1,0.2-0.1
					c-0.3,0.2-0.6,0.5-1,0.7c-0.2,0.1-0.4,0.3-0.4,0.6c-0.1,0.2,0,0.5,0.1,0.7c0.3,0.4,0.8,0.6,1.3,0.3c0.7-0.5,1.5-1.1,2.1-1.7
					c0.2-0.2,0.3-0.5,0.3-0.8s-0.2-0.5-0.4-0.7c-0.1-0.1-0.2-0.2-0.3-0.2c0.1,0,0.1,0.1,0.2,0.1c-0.3-0.3-0.7-0.6-0.9-0.9
					c-0.1-0.2-0.4-0.3-0.7-0.3c-0.2,0-0.5,0.1-0.7,0.3S291,46.7,291,47C290.9,47.3,291,47.5,291.2,47.6L291.2,47.6z"/>
			</g>
		</g>
	</g>
	<g>
		<path class="st4" d="M293.5,118.2c-1.4-2.2-5.1-23.3-6.7-28.2c-4.9-11.1-4.8-23.6-8.3-35.1c-11.7-36-58.6-39.7-69.1-2.4
			c-3.1,7.5-1.5,17.5-9.8,51.3c-8.9,36.3-5,42.9-2.3,48.9c3.4,10.2,10,13.8,19.9,9.1c1.8-0.9,3.6-0.8,5.7-1.3
			c15.3-3.8,31.7,2.4,46.2,5.8c2,0.5,6,1.6,8,1.3c3.7-0.5,5.8-1.5,9.3-2.9C304.8,156.9,304.8,133.7,293.5,118.2z"/>
	</g>
	<g>
		<path class="st4" d="M293.5,118.2c-1.4-2.2-6-26.6-6.7-28.2s-4.8-23.6-8.3-35.1c-11.7-36-58.6-39.7-69.1-2.4
			c-3.1,7.5-1.5,17.5-9.8,51.3c-8.9,36.3-5,42.9-2.3,48.9c3.4,10.2,10,13.8,19.9,9.1c1.8-0.9,3.6-0.8,5.7-1.3
			c15.3-3.8,31.7,2.4,46.2,5.8c2,0.5,6,1.6,8,1.3c3.7-0.5,5.8-1.5,9.3-2.9C304.8,156.9,304.8,133.7,293.5,118.2z"/>
	</g>
	<g>
		<path class="st5" d="M209.9,50.8c-0.1,0.6-0.3,1.1-0.5,1.6l0,0c-1.4,3.4-1.8,7.4-2.7,13.9c3.1,0.4,6.5-0.9,9.3-2
			c4.4-1.8,8.4-3.6,10.9-8.5s3.7-8.2,4.3-11.2c0.5-3,0.1-13.3-2.4-15c-0.5-0.3-1.2-0.2-2.1,0C219.3,33.7,213.2,40.6,209.9,50.8z"/>
	</g>
	<g>
		<path class="st5" d="M238.1,41.3c-2.7-4.2-2-10.1,3.1-11.9c2-0.8,6.2,1.4,6.4-0.9c0.3-3.2,5.1-1,7.3-1.1c1.9-0.1,3.1,0.8,4.8,1.6
			c1.5,0.7,2.6,2,3.8,3.2c2.2,2.2,4.7,4.2,6.6,6.8s2.9,6.1,1.6,9.1c-1.9,4.6-7.4,5.5-11.8,5.6c-4.7,0.2-9.2,0.1-13.4-3.4
			C242.3,46.6,239.8,43.9,238.1,41.3z"/>
	</g>
	<g>
		<path class="st6" d="M227,53.3c0.7,1.7-0.1,3.6-1.7,4.3c-4,1.5-6.4-4.2-2.5-6C224.4,50.8,226.3,51.6,227,53.3z"/>
	</g>
	<g>
		<path class="st6" d="M251.6,44.9c0.7,1.7-0.1,3.6-1.7,4.3c-4,1.5-6.4-4.2-2.5-6C249,42.4,250.9,43.2,251.6,44.9z"/>
	</g>
	<g>
		<path class="st2" d="M236.6,50.2c3.8-0.5,8.2-0.9,11.3,1.7c2.4,2.1,3,6,1.4,8.7c-1.1,1.8-2.9,3.1-4.7,4.1
			c-5.7,3.4-11.5,4-15.1-2.3c-1-1.5-1-2.9-0.5-4.6c0.6-2.7,1.8-6.1,4.9-6.6C234,51.2,236.6,50.2,236.6,50.2z"/>
	</g>
	<g>
		<g>
			<path class="st1" d="M242.4,56.5c0-0.1,0-0.1,0-0.2c-0.1-0.2-0.1-0.2-0.2-0.4c0-0.1-0.1-0.1-0.1-0.2c-0.2-0.2-0.3-0.2-0.5-0.3
				h-0.1c-0.1,0-0.2,0-0.3,0l0,0c-0.1,0-0.2,0-0.3,0s-0.2,0.1-0.3,0.1c0,0,0,0-0.1,0c-0.1,0.1-0.2,0.1-0.2,0.2
				c-0.1,0.1-0.1,0.2-0.2,0.3c-0.1,0.1-0.1,0.2-0.1,0.3c-0.1,0.2-0.1,0.3-0.1,0.5c0,0.1,0,0.2,0,0.3c0,0.2,0,0.4,0.1,0.5
				c0,0.1,0.1,0.2,0.2,0.3c0.1,0.1,0.2,0.2,0.3,0.2c0.1,0.1,0.2,0.1,0.3,0.1s0.2,0,0.4,0c0.2-0.1,0.4-0.2,0.6-0.4
				c0-0.1,0.1-0.1,0.1-0.2v-0.1h0.1c0.2,0,0.3-0.1,0.4-0.2c0-0.1,0.1-0.1,0.1-0.2c0.1-0.1,0.1-0.3,0.1-0.5
				C242.4,56.6,242.4,56.6,242.4,56.5z"/>
		</g>
		<g>
			<path class="st1" d="M235.8,58.6c0,0,0-0.1-0.1-0.1c-0.1-0.1-0.1-0.2-0.2-0.3l-0.1-0.1c-0.1-0.1-0.2-0.2-0.3-0.2
				c0,0-0.1,0-0.1-0.1c-0.1,0-0.2-0.1-0.3-0.1s-0.2,0-0.4,0c-0.1,0-0.2,0-0.3,0.1s-0.2,0.1-0.3,0.2c-0.1,0.1-0.1,0.2-0.2,0.3
				c0,0.1,0,0.2,0,0.2c0,0.2,0,0.3,0.1,0.5c0,0.1,0.1,0.1,0.1,0.2c0.1,0.1,0.2,0.2,0.4,0.2l0,0l0,0l0,0v0.1c0,0.1,0.1,0.2,0.2,0.3
				c0.1,0.1,0.2,0.2,0.3,0.2c0.1,0.1,0.2,0.1,0.3,0.1s0.2,0,0.4,0c0.1,0,0.1-0.1,0.2-0.1c0.1-0.1,0.2-0.2,0.3-0.3
				c0-0.1,0.1-0.1,0.1-0.2c0-0.2,0-0.3,0-0.5C236,58.9,235.9,58.7,235.8,58.6z"/>
		</g>
	</g>
	<g>
		<path class="st1" d="M252.5,30.4c0.1-2.5,3.1-3.3,5.1-3.6c3.8-0.8,7.5-2.3,10.8-4.4c1.7-1.1,3.3-2.3,5.2-3
			c1.9-0.7,4.1-0.8,5.7,0.4c1,0.8,1.7,1.9,2,3.1c1.4,4.7-1.5,9.9-5.7,12.4s-3.3,1-10.4,2.3c-1.8,0.3-3.9,1.6-9-2
			S252.5,30.4,252.5,30.4z"/>
	</g>
	<g>
		<path class="st2" d="M244.6,17.3c3.1,0.3,10.8,11.6,4.3,12.3c-1.6,0.2-3.3,0.3-4.8-0.3c-2.3-1-2.5-2.2-2.5-4.5
			c-0.1-2.2,0.2-4.4,0.8-6.5c0.1-0.5,0.3-1,0.8-1.1C243.4,17.2,244.2,17.3,244.6,17.3z"/>
	</g>
	<g>
		<path class="st2" d="M217.8,29.7c0.6-1.5,1.5-1.9,1.7-2c0.5-0.2,1,0.3,1.2,0.8c1.6,3.6,2.7,7-0.1,10.3c-0.5,0.5-1,1.1-1.6,1.4
			c-2.5,1.2-2-2.3-2.1-3.8C216.8,34.1,217.2,31.2,217.8,29.7z"/>
	</g>
	<g>
		<path class="st2" d="M262.6,36.5c-1-2.7,0.1-4.7,2.1-6.4c2.9-2.6,6.5-4.6,10.2-5.6c1.4-0.4,2.9-0.6,4.1,0.2
			c1.1,0.8,1.4,2.3,1.1,3.6c-0.3,1.3-1.1,2.4-2,3.4c-1.9,2.4-3.5,3.2-6.5,3.6C271.6,35.3,262.6,36.5,262.6,36.5z"/>
	</g>
	<g>
		<g>
			<path class="st7" d="M235.2,63.4c4.1,0.4,8.2-1.8,10-5.5c0.3-0.5-0.8-0.5-1-0.1c-1.6,3.1-5.1,5.1-8.6,4.8c-0.2,0-0.6,0.1-0.7,0.3
				C234.8,63.2,235,63.4,235.2,63.4L235.2,63.4z"/>
		</g>
	</g>
	<g>
		<g>
			<path class="st4" d="M247.8,45.9C247.8,45.8,247.8,45.8,247.8,45.9c-0.1,0-0.1,0.1-0.2,0.1C247.7,45.9,247.7,45.9,247.8,45.9
				c-0.1,0-0.1,0-0.2,0.1C247.7,45.9,247.7,45.9,247.8,45.9c-0.1,0.1-0.1,0-0.2,0C247.7,45.9,247.7,45.9,247.8,45.9
				c0,0.1-0.1,0-0.2,0C247.7,45.9,247.7,46,247.8,45.9c-0.1,0.1-0.1,0-0.2,0c0.1,0,0.1,0.1,0.2,0.2c0.1,0.1,0.2,0.2,0.3,0.2
				c0.1,0.1,0.2,0.1,0.4,0.1c0.1,0,0.2,0,0.4-0.1c0.1,0,0.2-0.1,0.3-0.2c0.2-0.2,0.3-0.4,0.3-0.7c0-0.1,0-0.2,0-0.2
				c0-0.2-0.1-0.3-0.2-0.4l-0.1-0.1c-0.1-0.1-0.2-0.2-0.3-0.2s-0.2-0.1-0.2-0.1c-0.1,0-0.2-0.1-0.3-0.1s-0.3,0-0.4-0.1
				c-0.1,0-0.1,0-0.2,0c-0.1,0-0.3,0-0.4,0.1c-0.1,0-0.2,0.1-0.4,0.1c-0.1,0.1-0.2,0.1-0.3,0.2c-0.1,0.1-0.1,0.2-0.2,0.3
				c0,0.1,0,0.2,0,0.4c0,0.1,0,0.2,0.1,0.3c0.1,0.2,0.3,0.4,0.6,0.4c0.1,0,0.2,0,0.2,0C247.5,46,247.7,45.9,247.8,45.9L247.8,45.9z"
				/>
		</g>
	</g>
	<g>
		<path class="st4" d="M195.8,77.3c1-1.4,1-1.5,2.2-2.7c1.8-2.2,8.1-1.3,10.3,0.1c3.4,2.1,6.3,1.8,6.1,7c-0.2,5-4.4,8.9-9.2,9.2
			c-2.3,0.2-4.5-0.2-6.8-0.7c-1.6-0.3-3.3-0.7-4.4-1.9C191.5,85.1,193.6,80.2,195.8,77.3z"/>
	</g>
	<g>
		<path class="st4" d="M270.9,72.1c2.5-4.8,7.9-8.7,13.1-11.4c2.6-1.5,5.9-4.3,8.1-2.1c2.2,2,2.6,7.2,4,9.8c0.1,0.2,1.4,0.2,0.1,1.3
			c-7.3,5.4-15.2,10.3-23.8,13.4c-1.7,0.7-2.8,0.2-2.8-1.8C269.6,81.2,268.4,76.9,270.9,72.1z"/>
	</g>
	<g>
		<path class="st1" d="M287.4,58.7c0.8-0.9,5.7-3,9.1-3c1-0.1,1.9,0.3,2.5,1c1.9,1.8,2.7,4.7,2.1,7.2c-0.6,2.6-2.5,4.7-5,5.6
			c-1.6,0.6-2.8,0-3.8-1.2c-1.8-2-3.1-4.3-4.7-6.7C287.2,61,286.6,59.6,287.4,58.7z"/>
	</g>
	<g>
		<path class="st1" d="M204.5,88.2c-2.1-1.9-1.9-4.7-0.6-6.9c1.2-2.1,4.8-5.6,6.3-5.6s3.5,1.2,4.9,3.7s1.9,10.2-6.3,10.5
			C206.2,90,204.5,88.2,204.5,88.2z"/>
	</g>
	<g>
		<path class="st1" d="M271.8,133.1c2.9,0.1,5.7,1.4,8.3,2.8c0.6,0.3,1.3,0.7,1.5,1.3s0,1.2-0.2,1.8c-1.2,3.1-3.2,5.9-5.2,8.6
			c-0.9,1.2-2,2.5-3.5,2.4c-1-0.1-1.9-0.8-2.5-1.6c-1.7-2.1-2.9-4.7-2.9-7.4c-0.1-2.7,1.1-5.4,3.2-7.1"/>
	</g>
	<g>
		<path class="st1" d="M201.9,145.8c2.2-2.5,7.2-5.6,11.6-5.9c0.5,0,1,0,1.4,0.2s1.7,1.5,2,1.9c1.3,2.2,1.1,3.7,0.3,6.6
			c-0.2,0.7-0.8,1.4-1.1,2c-0.4,0.6-1.9,1.9-2.5,2.3c-3.5,1.9-5.7,3-9.6,2.2c-0.5-0.1-1.1-0.3-1.5-0.6s-0.6-0.8-0.9-1.3
			C201.6,153.2,199.7,148.3,201.9,145.8z"/>
	</g>
	<g>
		<g>
			<path class="st6" d="M222.9,52.5C222.9,52.5,222.8,52.5,222.9,52.5h-0.1c-0.1,0-0.1,0-0.2,0c-0.1,0-0.2,0-0.2,0c0.1,0,0,0,0,0
				h-0.1c-0.4-0.1-0.7-0.2-1.1-0.3c-0.7-0.2-1.4-0.4-2.1-0.3c-0.2,0-0.6,0.2-0.6,0.4c0,0.3,0.3,0.3,0.5,0.3c0,0,0.1,0,0,0h0.1
				c0.1,0,0.1,0,0.2,0c0.1,0,0.2,0,0.2,0c-0.1,0,0,0,0,0h0.1c0.4,0.1,0.7,0.2,1.1,0.3c0.7,0.2,1.4,0.4,2.1,0.3
				c0.2,0,0.6-0.2,0.6-0.4S223.1,52.5,222.9,52.5L222.9,52.5z"/>
		</g>
	</g>
	<g>
		<g>
			<path class="st6" d="M220.5,54.6c-0.1,0.2-0.3,0.5-0.5,0.7s-0.3,0.4-0.6,0.5c-0.1,0-0.1,0.1-0.2,0.1c0,0-0.1,0-0.1,0.1
				c0,0-0.1,0.1-0.1,0h-0.1c0,0-0.1,0-0.1,0.1c-0.1,0-0.1,0.1-0.2,0.1h-0.1c0,0-0.1,0.1,0,0c0.1,0,0,0-0.1,0h-0.1
				c-0.1,0-0.1,0.1-0.2,0.1c-0.1,0-0.1,0,0,0H218c-0.1,0-0.5,0.2-0.5,0.4c0.1,0.2,0.5,0.1,0.6,0.1c1.3-0.4,2.4-1.2,3.1-2.3
				c0-0.1,0.1-0.1,0-0.2c-0.1-0.1-0.2-0.1-0.3-0.1s-0.3,0-0.4,0.1C220.7,54.5,220.6,54.6,220.5,54.6L220.5,54.6z"/>
		</g>
	</g>
	<g>
		<g>
			<path class="st6" d="M249.7,43.2c0.7-0.4,1.4-0.8,2-1.3c0.1-0.1,0.2-0.1,0.2-0.2c0-0.1,0-0.2-0.1-0.2c-0.2-0.1-0.6-0.1-0.8,0.1
				c-0.6,0.5-1.3,0.9-2,1.3c-0.2,0.1-0.3,0.3-0.1,0.4C249.2,43.4,249.5,43.3,249.7,43.2L249.7,43.2z"/>
		</g>
	</g>
	<g>
		<g>
			<path class="st6" d="M251.4,44.4c1.1,0.1,2.2,0,3.3-0.1c0.2,0,0.5-0.1,0.7-0.2c0.2-0.2-0.2-0.2-0.2-0.2c-1,0.1-2,0.1-3,0
				c-0.2,0-0.5,0.1-0.8,0.2l-0.1,0.1C251.2,44.4,251.3,44.3,251.4,44.4L251.4,44.4z"/>
		</g>
	</g>
	<g>
		<g>
			<g>
				
					<ellipse transform="matrix(0.2298 -0.9732 0.9732 0.2298 167.2275 272.701)" class="st8" cx="255.9" cy="30.7" rx="4.7" ry="4.7"/>
			</g>
			<g>
				<path class="st8" d="M257.5,28.4c-5.1-2.5-10.2-4.9-15.4-7.3c-0.6-0.3-1.3-0.6-1.9-0.2c-0.6,0.4-0.8,1.2-0.8,2
					c-0.2,2.6-0.3,5.4,1.2,7.4c1.3,1.7,3.5,2.4,5.6,2.3s4.2-1,6.1-2"/>
			</g>
			<g>
				<path class="st8" d="M258.1,28.7c4.5-0.9,9.2-1.9,13.5-0.3c0.6,0.2,1.1,0.5,1.4,1c0.3,0.6,0.2,1.3,0.1,2c-0.4,2.1-1,4.4-2.6,5.8
					c-1.9,1.7-4.9,1.7-7.2,0.7c-2.3-1-4.2-2.9-5.9-4.9"/>
			</g>
			<g>
				<path class="st8" d="M254.5,33.8c-1.3,2.1-2.6,4.2-3.9,6.3c-0.2,0.3-0.3,0.5-0.6,0.7c-0.9,0.5-2.1-0.6-3,0
					c-0.5-1.1,0.4-2.2,1.2-3c1.3-1.3,2.6-2.6,3.8-3.9"/>
			</g>
			<g>
				<path class="st8" d="M255.8,32.4c-0.1,2.7-0.3,5.4-0.4,8.1c0,0.8-0.1,1.6,0.4,2.3c0.5,0.7,1.5,0.9,2,0.3
					c0.3-0.3,0.3-0.8,0.3-1.2c0-3.1-0.1-6.3-0.4-9.4"/>
			</g>
		</g>
		<g>
			<path class="st9" d="M261.6,29.7c2.9,1.7,6.6,1.9,9.7,0.7c-1-1.7-3.4-1.9-5.3-1.6s-4,0.9-5.8,0.1"/>
		</g>
	</g>
	<g>
		<g>
			<path class="st9" d="M256,28.7C256.1,28.7,256.2,28.7,256,28.7c0.1,0,0.2,0,0.3,0c0.2,0,0.3,0.1,0.4,0.1h0.1c-0.1,0-0.1,0-0.1,0
				c0.1,0,0.1,0.1,0.2,0.1c0.1,0.1,0.2,0.1,0.4,0.2c0,0,0.1,0,0.1,0.1c-0.1-0.1-0.1-0.1,0,0s0.1,0.1,0.2,0.2s0.2,0.2,0.3,0.3
				c0,0,0.2,0.2,0,0c0,0.1,0.1,0.1,0.1,0.2c0.1,0.1,0.1,0.2,0.2,0.4c0,0,0.1,0.3,0,0c0,0.1,0.1,0.1,0.1,0.2s0.1,0.3,0.1,0.4
				c0,0.2,0-0.2,0,0c0,0.1,0,0.1,0,0.2s0,0.1,0,0.2c0,0.2,0-0.2,0,0c0,0.1,0,0.3-0.1,0.4c0.1-0.1,0.1-0.1,0,0c0,0,0,0,0,0.1
				l-0.1,0.2c0.1-0.1,0.1-0.1,0,0c0,0,0,0-0.1,0.1c-0.1,0,0,0,0.1,0c0,0,0,0-0.1,0c-0.2,0.1,0.1,0,0,0s-0.1,0-0.2,0
				c-0.5,0.1-0.8,0.7-0.6,1.1c0.2,0.5,0.6,0.7,1.1,0.6c0.9-0.1,1.5-0.9,1.7-1.7s0.1-1.7-0.3-2.5c-0.7-1.5-2.2-2.6-3.9-2.7
				c-0.5,0-0.9,0.4-0.9,0.9C255.1,28.3,255.5,28.6,256,28.7L256,28.7z"/>
		</g>
	</g>
	<g>
		<g>
			<path class="st4" d="M222.9,54.5c0.3,0,0.5,0,0.8,0c0.1,0,0.2,0,0.4-0.1c0.1,0,0.2-0.1,0.3-0.2c0.1-0.1,0.2-0.2,0.2-0.3
				c0.1-0.1,0.1-0.2,0.1-0.4c0-0.1,0-0.2,0-0.2c0-0.2-0.1-0.3-0.2-0.4c-0.1,0-0.1-0.1-0.2-0.1c-0.1-0.1-0.3-0.1-0.5-0.1
				c-0.3,0-0.5,0-0.8,0c-0.1,0-0.2,0-0.4,0.1c-0.1,0-0.2,0.1-0.3,0.2c-0.1,0.1-0.2,0.2-0.2,0.3c-0.1,0.1-0.1,0.2-0.1,0.4
				c0,0.1,0,0.2,0,0.2c0,0.2,0.1,0.3,0.2,0.4c0.1,0,0.1,0.1,0.2,0.1C222.5,54.4,222.7,54.5,222.9,54.5L222.9,54.5z"/>
		</g>
	</g>
	<g>
		<g>
			<circle class="st10" cx="30" cy="45.5" r="17.2"/>
		</g>
		<g>
			<g>
				<path class="st4" d="M28.2,46.7c-3.7,0-6.6-3-6.6-6.6c0-3.7,3-6.6,6.6-6.6c3.7,0,6.6,3,6.6,6.6S31.8,46.7,28.2,46.7z M28.2,36
					c-2.2,0-4,1.8-4,4s1.8,4,4,4s4-1.8,4-4S30.4,36,28.2,36z"/>
			</g>
			<g>
				<path class="st4" d="M33.5,51.4H22.8c-0.7,0-1.3-0.6-1.3-1.3s0.6-1.3,1.3-1.3h10.7c0.7,0,1.3,0.6,1.3,1.3
					C34.8,50.8,34.2,51.4,33.5,51.4z"/>
			</g>
			<g>
				<path class="st4" d="M28.2,57.5c-0.7,0-1.3-0.6-1.3-1.3V45.5c0-0.7,0.6-1.3,1.3-1.3c0.7,0,1.3,0.6,1.3,1.3v10.7
					C29.5,56.9,28.9,57.5,28.2,57.5z"/>
			</g>
		</g>
		<g>
			<g>
				<path class="st1" d="M101.9,57.1c-3.8-2.5-9.1-10.1-6.3-14.6c0.9-1.3,2.5-2,4.1-2.1s3.1,0.2,4.7,0.6c5.7,1.4,11.2,3.5,16.3,6.2
					c1.2,0.5,1.7,1.3,1.6,2.6c0,2.2-0.4,4.5-1.8,6.1c-1.8,2.1-4.7,2.7-7.3,3.1c-3.7,0.6-8,0.9-10.9-1.5"/>
			</g>
			<g>
				<path class="st2" d="M115.9,56.9c2.7-1.7,2.3-2.8,1.7-3.8c-0.5-0.7-1.3-0.9-2.1-1.2c-5.1-1.6-10.6-2.4-15.8-4
					c-1.5-0.5-3.1-1.2-4.5-2.3c0.6,1.8,0.6,2.4,1.5,4.3c1,2.3,3.3,5.1,7.1,6.7C106.7,57.8,112,59.3,115.9,56.9z"/>
			</g>
			<g>
				<path class="st1" d="M84.3,157.9c-3,1-6.1,5.4-11.8,8.3c-6,3.1-11.1,4.4-12.3,2.9s8.5-7.7,3.2-11.2
					C62.3,157.3,84.3,157.9,84.3,157.9z"/>
			</g>
			<g>
				<path class="st4" d="M20.3,118.2C21.7,116,25.4,94.9,27,90c4.9-11.1,4.8-23.6,8.3-35.1c11.7-36,58.6-39.7,69.1-2.4
					c3.1,7.5,1.5,17.5,9.8,51.3c8.9,36.3,5,42.9,2.3,48.9c-3.4,10.2-10,13.8-19.9,9.1c-1.8-0.9-3.6-0.8-5.7-1.3
					c-15.3-3.8-31.7,2.4-46.2,5.8c-2,0.5-6,1.6-8,1.3c-3.7-0.5-5.8-1.5-9.3-2.9C9,156.9,9,133.7,20.3,118.2z"/>
			</g>
			<g>
				<path class="st4" d="M20.3,118.2c1.4-2.2,6-26.6,6.7-28.2s4.8-23.6,8.3-35.1c11.7-36,58.6-39.7,69.1-2.4
					c3.1,7.5,1.5,17.5,9.8,51.3c8.9,36.3,5,42.9,2.3,48.9c-3.4,10.2-10,13.8-19.9,9.1c-1.8-0.9-3.6-0.8-5.7-1.3
					c-15.3-3.8-31.7,2.4-46.2,5.8c-2,0.5-6,1.6-8,1.3c-3.7-0.5-5.8-1.5-9.3-2.9C9,156.9,9,133.7,20.3,118.2z"/>
			</g>
			<g>
				<path class="st5" d="M103.9,50.8c0.1,0.6,0.3,1.1,0.5,1.6l0,0c1.4,3.4,1.8,7.4,2.7,13.9c-3.1,0.4-6.5-0.9-9.3-2
					c-4.4-1.8-8.4-3.6-10.9-8.5s-3.7-8.2-4.3-11.2c-0.5-3-0.1-13.3,2.4-15c0.5-0.3,1.2-0.2,2.1,0C94.5,33.7,100.6,40.6,103.9,50.8z"
					/>
			</g>
			<g>
				<path class="st5" d="M75.7,41.3c2.7-4.2,2-10.1-3.1-11.9c-2-0.8-6.2,1.4-6.4-0.9c-0.3-3.2-5.1-1-7.3-1.1
					c-1.9-0.1-3.1,0.8-4.8,1.6c-1.5,0.7-2.6,2-3.8,3.2c-2.2,2.2-4.7,4.2-6.6,6.8s-2.9,6-1.7,9c1.9,4.6,7.4,5.5,11.8,5.6
					c4.7,0.2,9.2,0.1,13.4-3.4C71.5,46.6,74,43.9,75.7,41.3z"/>
			</g>
			<g>
				<path class="st2" d="M77.2,50.2c-3.8-0.5-8.2-0.9-11.3,1.7c-2.4,2.1-3,6-1.4,8.7c1.1,1.8,2.9,3.1,4.7,4.1
					c5.7,3.4,11.5,4,15.1-2.3c1-1.5,1-2.9,0.5-4.6c-0.6-2.7-1.8-6.1-4.9-6.6C79.8,51.2,77.2,50.2,77.2,50.2z"/>
			</g>
			<g>
				<g>
					<path class="st1" d="M71.4,56.5c0-0.1,0-0.1,0-0.2c0.1-0.2,0.1-0.2,0.2-0.4c0-0.1,0.1-0.1,0.1-0.2c0.2-0.2,0.3-0.2,0.5-0.3h0.1
						c0.1,0,0.2,0,0.3,0l0,0c0.1,0,0.2,0,0.3,0c0.1,0,0.2,0.1,0.3,0.1c0,0,0,0,0.1,0c0.1,0.1,0.2,0.1,0.2,0.2
						c0.1,0.1,0.1,0.2,0.2,0.3s0.1,0.2,0.1,0.3c0.1,0.2,0.1,0.3,0.1,0.5c0,0.1,0,0.2,0,0.3c0,0.2,0,0.4-0.1,0.5
						c0,0.1-0.1,0.2-0.2,0.3s-0.2,0.2-0.3,0.2c-0.1,0.1-0.2,0.1-0.3,0.1c-0.1,0-0.2,0-0.4,0c-0.2-0.1-0.4-0.2-0.6-0.4
						c0-0.1-0.1-0.1-0.1-0.2v-0.1h-0.1c-0.2,0-0.3-0.1-0.4-0.2c0-0.1-0.1-0.1-0.1-0.2c-0.1-0.1-0.1-0.3-0.1-0.5
						C71.3,56.6,71.4,56.6,71.4,56.5z"/>
				</g>
				<g>
					<path class="st1" d="M78,58.6C78,58.6,78,58.5,78,58.6c0.2-0.2,0.2-0.3,0.3-0.4l0.1-0.1c0.1-0.1,0.2-0.2,0.3-0.2
						c0,0,0.1,0,0.1-0.1c0.1,0,0.2-0.1,0.3-0.1c0.1,0,0.2,0,0.4,0c0.1,0,0.2,0,0.3,0.1c0.1,0.1,0.2,0.1,0.3,0.2
						c0.1,0.1,0.1,0.2,0.2,0.3c0,0.1,0,0.2,0,0.2c0,0.2,0,0.3-0.1,0.5c0,0.1-0.1,0.1-0.1,0.2c-0.1,0.1-0.2,0.2-0.4,0.2l0,0l0,0l0,0
						v0.1c0,0.1-0.1,0.2-0.2,0.3S79.3,60,79.2,60c-0.1,0.1-0.2,0.1-0.3,0.1c-0.1,0-0.2,0-0.4,0c-0.1,0-0.1-0.1-0.2-0.1
						c-0.1-0.1-0.2-0.2-0.3-0.3c0-0.1-0.1-0.1-0.1-0.2c0-0.2,0-0.3,0-0.5C77.8,58.9,77.9,58.7,78,58.6z"/>
				</g>
			</g>
			<g>
				<path class="st1" d="M61.3,30.4c-0.1-2.5-3.1-3.3-5.1-3.6c-3.8-0.8-7.5-2.3-10.8-4.4c-1.7-1.1-3.3-2.3-5.2-3s-4.1-0.8-5.7,0.4
					c-1,0.8-1.7,1.9-2,3.1c-1.4,4.7,1.5,9.9,5.7,12.4s3.3,1,10.4,2.3c1.8,0.3,3.9,1.6,9-2S61.3,30.4,61.3,30.4z"/>
			</g>
			<g>
				<path class="st2" d="M69.2,17.3c-3.1,0.3-10.8,11.6-4.3,12.3c1.6,0.2,3.3,0.3,4.8-0.3c2.3-1,2.5-2.2,2.5-4.5
					c0.1-2.2-0.2-4.4-0.8-6.5c-0.1-0.5-0.3-1-0.8-1.1C70.4,17.2,69.6,17.3,69.2,17.3z"/>
			</g>
			<g>
				<path class="st2" d="M96,29.7c-0.6-1.5-1.5-1.9-1.7-2c-0.5-0.2-1,0.3-1.2,0.8c-1.6,3.6-2.7,7,0.1,10.3c0.5,0.5,1,1.1,1.6,1.4
					c2.5,1.2,2-2.3,2.1-3.8C97,34.1,96.6,31.2,96,29.7z"/>
			</g>
			<g>
				<path class="st2" d="M51.2,36.5c1-2.7-0.1-4.7-2.1-6.4c-2.9-2.6-6.5-4.6-10.2-5.6c-1.4-0.4-2.9-0.6-4.1,0.2
					c-1.1,0.8-1.4,2.3-1.1,3.6c0.3,1.3,1.1,2.4,2,3.4c1.9,2.4,3.5,3.2,6.5,3.6C42.1,35.3,51.2,36.5,51.2,36.5z"/>
			</g>
			<g>
				<path class="st4" d="M118,77.3c-1-1.4-1-1.5-2.2-2.7c-1.8-2.2-8.1-1.3-10.3,0.1c-3.4,2.1-6.3,1.8-6.1,7c0.2,5,4.4,8.9,9.2,9.2
					c2.3,0.2,4.5-0.2,6.8-0.7c1.6-0.3,3.3-0.7,4.4-1.9C122.3,85.1,120.2,80.2,118,77.3z"/>
			</g>
			<g>
				<path class="st4" d="M42.9,72.1c-2.5-4.8-7.9-8.7-13.1-11.4c-2.6-1.5-5.9-4.3-8.1-2.1c-2.2,2-2.6,7.2-4,9.8
					c-0.1,0.2-1.4,0.2-0.1,1.3c7.3,5.4,15.2,10.3,23.8,13.4c1.7,0.7,2.8,0.2,2.8-1.8C44.2,81.2,45.4,76.9,42.9,72.1z"/>
			</g>
			<g>
				<path class="st1" d="M26.4,58.7c-0.8-0.9-5.7-3-9.1-3c-1-0.1-1.9,0.3-2.5,1c-1.9,1.8-2.7,4.7-2.1,7.2c0.6,2.6,2.5,4.7,5,5.6
					c1.6,0.6,2.8,0,3.8-1.2c1.8-2,3.1-4.3,4.7-6.7C26.6,61,27.2,59.6,26.4,58.7z"/>
			</g>
			<g>
				<path class="st1" d="M109.3,88.2c2.1-1.9,1.9-4.7,0.6-6.9c-1.2-2.1-4.8-5.6-6.3-5.6s-3.5,1.2-4.9,3.7s-1.9,10.2,6.3,10.5
					C107.6,90,109.3,88.2,109.3,88.2z"/>
			</g>
			<g>
				<path class="st1" d="M41.9,133.1c-2.9,0.1-5.7,1.4-8.3,2.8c-0.6,0.3-1.3,0.7-1.5,1.3s0,1.2,0.2,1.8c1.2,3.1,3.2,5.9,5.2,8.6
					c0.9,1.2,2,2.5,3.5,2.4c1-0.1,1.9-0.8,2.5-1.6c1.7-2.1,2.9-4.7,2.9-7.4c0.1-2.7-1.1-5.4-3.2-7.1"/>
			</g>
			<g>
				<path class="st1" d="M111.9,145.8c-2.2-2.5-7.2-5.6-11.6-5.9c-0.5,0-1,0-1.4,0.2s-1.7,1.5-2,1.9c-1.3,2.2-1.1,3.7-0.3,6.6
					c0.2,0.7,0.8,1.4,1.1,2c0.4,0.6,1.9,1.9,2.5,2.3c3.5,1.9,5.7,3,9.6,2.2c0.5-0.1,1.1-0.3,1.5-0.6s0.6-0.8,0.9-1.3
					C112.2,153.2,114.1,148.3,111.9,145.8z"/>
			</g>
		</g>
		<g>
			<g>
				<path class="st6" d="M86.7,53.3c-0.7,1.7,0.1,3.6,1.7,4.3c4,1.5,6.4-4.2,2.5-6C89.4,50.8,87.4,51.6,86.7,53.3z"/>
			</g>
			<g>
				<g>
					<path class="st7" d="M78.6,62.8c-3.7,0.3-7.4-1.8-9-5.1c-0.1-0.3-1.2,0.1-1.1,0.3c1.8,3.5,5.7,5.6,9.7,5.2
						c0.2,0,0.6-0.1,0.7-0.3C79,62.8,78.8,62.8,78.6,62.8L78.6,62.8z"/>
				</g>
			</g>
		</g>
		<g>
			<g>
				<g>
					<path class="st11" d="M56.5,28.4c5.1-2.5,10.2-4.9,15.4-7.3c0.6-0.3,1.3-0.6,1.9-0.2s0.8,1.2,0.8,2c0.2,2.6,0.3,5.4-1.2,7.4
						c-1.3,1.7-3.5,2.4-5.6,2.3s-4.2-1-6.1-2"/>
				</g>
				<g>
					<path class="st11" d="M55.9,28.7c-4.5-0.9-9.2-1.9-13.5-0.3c-0.6,0.2-1.1,0.5-1.4,1c-0.3,0.6-0.2,1.3-0.1,2
						c0.4,2.1,1,4.4,2.6,5.8c1.9,1.7,4.9,1.7,7.2,0.7s4.2-2.9,5.9-4.9"/>
				</g>
				<g>
					<circle class="st12" cx="58.1" cy="30.7" r="4.7"/>
				</g>
				<g>
					<circle class="st11" cx="55.1" cy="31.9" r="3.3"/>
				</g>
			</g>
		</g>
		<g>
			<g>
				<path class="st6" d="M59.4,43.8c2.5,0.9,4.7,2.3,6.8,4c0-0.1,0-0.2,0-0.2C64.1,47.9,62,48,59.9,48c-0.1,0-0.7,0-0.4,0.3
					c0.3,0.2,0.9,0.3,1.2,0.3c2.3,0.1,4.7-0.1,7-0.4c0.2,0,0.1-0.1,0-0.2c-2.2-1.8-4.7-3.2-7.4-4.2c-0.3-0.1-0.9-0.3-1.3-0.1
					C58.8,43.5,59.3,43.7,59.4,43.8L59.4,43.8z"/>
			</g>
		</g>
		<g>
			<g>
				<path class="st6" d="M91.2,51.2c0.9-0.3,1.8-0.8,2.6-1.5c0.2-0.2-0.2-0.2-0.2-0.2c-0.1,0-0.3,0-0.4,0.1c-0.1,0-0.2,0.1-0.3,0.2
					c-0.1,0.1-0.3,0.3-0.5,0.4l-0.1,0.1l0,0c0,0,0,0-0.1,0c-0.1,0.1-0.2,0.1-0.3,0.2c-0.1,0.1-0.2,0.1-0.3,0.2c-0.1,0,0.1,0,0,0
					c0,0,0,0-0.1,0s-0.1,0-0.2,0.1c0,0-0.1,0-0.1,0.1h-0.1c0,0,0.1,0,0,0S90.9,51,90.8,51c-0.1,0-0.5,0.2-0.3,0.3c0.1,0,0.2,0,0.3,0
					C90.9,51.2,91.1,51.2,91.2,51.2L91.2,51.2z"/>
			</g>
		</g>
		<g>
			<g>
				<path class="st6" d="M92.9,53.2c1.3,0.1,2.6,0,3.8,0c0.2,0,0.6-0.1,0.7-0.2c0.2-0.2-0.1-0.2-0.2-0.2c-1.2,0.1-2.4,0.1-3.6,0
					c-0.2,0-0.5,0.1-0.8,0.2C92.7,53,92.7,53.1,92.9,53.2L92.9,53.2z"/>
			</g>
		</g>
		<g>
			<g>
				<defs>
					<path id="SVGID_1_" d="M74.7,22.9c-0.1-0.7-0.2-1.6-0.8-2c-0.6-0.3-1.3-0.1-1.9,0.2c-3.8,1.8-7.7,3.6-11.5,5.4
						c-1.3-0.7-2.9-0.8-4.3-0.1c-0.9,0.4-1.6,1.1-2.1,1.9c-3.9-0.8-7.9-1.3-11.6,0c-0.6,0.2-1.1,0.5-1.4,1c-0.3,0.6-0.2,1.3-0.1,2
						c0.4,2.1,1,4.4,2.6,5.8c1.9,1.7,4.9,1.7,7.2,0.7c1.8-0.8,3.2-2.1,4.6-3.5c1.4,1,3.2,1.3,4.9,0.5c1.5-0.7,2.5-2.1,2.6-3.7
						c1.6,0.8,3.3,1.3,5,1.4c2.1,0.1,4.4-0.6,5.6-2.3C75,28.3,74.8,25.5,74.7,22.9z"/>
				</defs>
				<clipPath id="SVGID_2_">
					<use xlink:href="#SVGID_1_"  style="overflow:visible;"/>
				</clipPath>
				<g class="st13">
					<g>
						<path class="st14" d="M46.8,40.2c-1.4-1.1-1.5-3.9,0-5c1.4-1.1,3.7,0.3,3.7,2.3s-2.4,3.3-3.7,2.1c-0.5-0.5-0.8-1.4-0.3-1.9"/>
					</g>
					<g>
						<path class="st14" d="M71,34.6c-0.2,0.6-1.4,0.2-2-0.2c-1.1-0.9-2.3-1.9-2.7-3.1s0.4-2.6,2-3c1.9-0.4,3.8,0.7,4.3,2
							c0.1,0.4,0.2,0.8,0,1.2c-0.4,0.9-2.2,1.3-3.3,0.7c-1.1-0.5-1.2-1.8-0.2-2.4s2.8-0.4,3.4,0.4"/>
					</g>
					<g>
						<path class="st14" d="M46,26.8c0.2,1.2,0.9,2.3,1.8,2.7c0.9,0.4,2.1,0.2,2.9-0.6c0.2-0.2,0.5-0.5,0.5-0.9
							c0.1-0.9-0.6-1.6-1.4-1.7c-0.7-0.1-1.5,0.1-2.2-0.1"/>
					</g>
					<g>
						<path class="st14" d="M69.4,21.3c-0.1,1.2,1.1,2.1,2.3,2.2c1.1,0.1,2.2-0.4,2.7-1.3s0.1-2.3-0.9-2.7c-0.4-0.2-0.9-0.2-1.3-0.2
							c-0.5,0-1,0-1.5,0c-0.3,0-0.6,0-0.9,0.1s-0.5,0.4-0.5,0.7"/>
					</g>
					<g>
						<path class="st14" d="M44.2,31.7c0.3-0.3,0.7-0.7,1.2-0.6c0.5,0,0.9,0.5,0.6,0.9c-0.3,0-0.6-0.3-0.9-0.3
							c-0.3,0-0.7,0.4-0.4,0.6c0.5,0.1,1-0.2,1.1-0.7"/>
					</g>
					<g>
						<path class="st14" d="M70.1,23.9"/>
					</g>
				</g>
			</g>
		</g>
		<g>
			<g>
				<path class="st4" d="M91,52.1c-0.3,0-0.5,0-0.8,0c-0.1,0-0.2,0-0.4,0.1c-0.1,0-0.2,0.1-0.3,0.2c-0.1,0.1-0.2,0.2-0.2,0.3
					c-0.1,0.1-0.1,0.2-0.1,0.4c0,0.1,0,0.2,0,0.2c0,0.2,0.1,0.3,0.2,0.4c0.1,0,0.1,0.1,0.2,0.1c0.1,0.1,0.3,0.1,0.5,0.1
					c0.3,0,0.5,0,0.8,0c0.1,0,0.2,0,0.4-0.1c0.1,0,0.2-0.1,0.3-0.2c0.1-0.1,0.2-0.2,0.2-0.3c0.1-0.1,0.1-0.2,0.1-0.4
					c0-0.1,0-0.2,0-0.2c0-0.2-0.1-0.3-0.2-0.4c-0.1,0-0.1-0.1-0.2-0.1C91.3,52.1,91.2,52.1,91,52.1L91,52.1z"/>
			</g>
		</g>
	</g>
	<g>
		<path class="st15" d="M196.1,119.9"/>
	</g>
	<g>
		<path class="st15" d="M193.3,119.9"/>
	</g>
</g>
<g>
	<path class="st3" d="M277.5,151.8c-73.7-22.6-152.4-22.6-226.1,0c-3.2,1-6.7-0.7-7.8-3.9c-4-12.3-8-24.5-12-36.8
		c-1-3.2,1.1-6.7,4.8-7.8c83.4-25.6,172.5-25.6,255.9,0c3.7,1.1,5.8,4.7,4.8,7.8c-4,12.3-8,24.5-12,36.8
		C284.2,151.1,280.8,152.8,277.5,151.8z"/>
</g>
<g>
	<path class="st16" d="M272.1,147C202,125.4,127,125.4,56.9,147c-2.9,0.9-6.1-0.6-7-3.5c-3.4-10.3-6.7-20.7-10.1-31
		c-0.9-2.8,1-6,4.3-7.1c78.4-24.2,162.3-24.2,240.8,0c3.3,1,5.2,4.2,4.3,7.1c-3.4,10.3-6.7,20.7-10.1,31
		C278.1,146.3,275,147.9,272.1,147z"/>
</g>
<g>
	<path class="st4" d="M82.8-140c0.1,0,0.3,0,0.4,0c0.2-0.1,0.5-0.2,0.9-0.3c0.7-0.2,1.3-0.3,2-0.4h0.4c1.2,0,2.2,0.4,2.9,1.3
		c0.8,1,1.1,2.3,1.1,3.9v0.8c0,1.1-0.4,2.1-1.1,2.7c-1,0.8-2.1,1.3-3.6,1.3h-0.6c-1.2,0-2.2-0.4-3-1.2c-0.6-0.6-1-1.6-1-3v-0.4
		c0-1,0.1-2.4,0.4-4.1C81.8-139.7,82.2-140,82.8-140z M84.7-149.5c0.1,0,0.3,0,0.4,0.1l0.1-0.1c0.5-0.3,1.3-0.5,2.3-0.7
		c1.1-0.2,2.4-0.3,3.9-0.3h1.4c2.3,0,4,0.4,5,1.2c1.1,0.8,1.6,1.8,1.6,3v0.7c0,1-0.3,1.9-1,2.6c-1,1-3,1.5-6.1,1.6h-2.2
		c-2,0-3.7-0.2-4.9-0.7c-1.6-0.7-2.4-1.8-2.4-3.4v-0.4c0-0.9,0.2-1.8,0.7-2.7C83.9-149.2,84.2-149.4,84.7-149.5z M86.2-138.4
		c-0.5,0-1.1,0.2-1.9,0.5c-0.2,0.1-0.4,0.2-0.6,0.3c-0.2,1.2-0.2,2-0.2,2.6c0,0.8,0.2,1.4,0.5,1.8c0.3,0.4,0.9,0.6,1.7,0.6
		c1,0,1.7-0.3,2.2-0.8c0.4-0.4,0.5-1,0.5-1.8c0-1.1-0.2-1.9-0.6-2.5C87.5-138.2,86.9-138.4,86.2-138.4z M92.6-148.4
		c-2.6,0-4.5,0.2-5.8,0.7c-0.5,0.2-0.9,0.3-1.1,0.3c-0.1,0-0.2,0-0.4,0c-0.2,0.5-0.3,0.9-0.3,1.2c0,1,0.4,1.7,1.3,2
		c0.9,0.4,2.7,0.5,5.4,0.5c1.3,0,2.3-0.1,3.3-0.2c0.7-0.1,1.2-0.3,1.6-0.7s0.6-0.8,0.6-1.4c0-0.8-0.3-1.4-0.8-1.7
		C95.6-148.1,94.3-148.4,92.6-148.4z M92.8-140.2c0.2,0,0.3,0,0.4,0c0.2-0.1,0.5-0.3,0.9-0.4c0.6-0.2,1.2-0.4,1.9-0.4h0.4
		c1.3,0,2.4,0.5,3.1,1.5c0.8,1.1,1.3,2.5,1.3,4.3v0.9c0,1.1-0.3,1.9-1,2.6c-0.9,0.8-1.9,1.2-3.3,1.2h-0.8c-1.4,0-2.6-0.4-3.5-1.3
		c-0.8-0.7-1.1-1.7-1.1-3.2v-0.3c0-1.1,0.1-2.5,0.4-4.2C91.9-140,92.3-140.2,92.8-140.2z M96.1-138.8c-0.4,0-1,0.2-1.8,0.6
		c-0.3,0.2-0.5,0.3-0.8,0.3c-0.2,1.2-0.3,2.1-0.3,2.7c0,0.8,0.2,1.5,0.7,1.9c0.4,0.4,1.2,0.7,2.3,0.7c0.8,0,1.5-0.3,1.9-0.8
		c0.3-0.3,0.4-0.9,0.4-1.7c0-1.3-0.2-2.2-0.6-2.9C97.6-138.5,97-138.8,96.1-138.8z"/>
	<path class="st4" d="M107.2-149.7c0.5,0,1.4,0,2.6,0c0-0.1,0-0.3,0-0.3c0-0.7,0.4-1.1,1-1.1c0.8,0,1.2,0.4,1.3,1.2
		c0,0.1,0,0.2,0,0.3c0.9,0,1.9,0,3,0s2.1,0.1,3,0.1c0-0.2,0.1-0.4,0.1-0.6c0.3-0.7,0.7-1,1.3-1c0.6,0,0.9,0.4,0.9,1
		c0,0.2,0,0.4,0,0.7c1.8,0,2.9,0.1,3.4,0.1c0.8,0.3,1.2,0.6,1.2,1.2c-0.1,0.7-0.5,1-1.2,1c-0.8,0-2,0-3.7,0c0,0.3-0.1,0.6-0.1,0.9
		v0.1c0.5,0.1,0.9,0.2,1.2,0.4c0.5,0.4,0.8,0.8,0.9,1.2v0.3c0,0.4-0.2,0.9-0.5,1.6c0.8,0.1,1.5,0.2,2,0.5c0.7,0.5,1.1,0.9,1.1,1.4
		v0.3c0,0.5-0.2,1.3-0.6,2.4c-0.2,0.4-0.5,0.6-0.9,0.6c-0.6,0-1-0.3-1-0.8c0-0.1,0-0.4,0.1-0.7c0.2-0.6,0.3-1,0.3-1.2
		c0-0.3-0.1-0.5-0.4-0.7c-0.3-0.1-0.8-0.2-1.5-0.2c-0.9,0-2.1,0.2-3.8,0.4c0.1,0.2,0.1,0.3,0.2,0.5c0.1,0.5,0.2,1,0.3,1.5
		c0,0.1,0,0.1,0,0.1c0,0.7-0.4,1.1-1,1.1c-0.8,0-1.2-0.4-1.4-1c-0.2-1-0.3-1.6-0.3-1.8v-0.1c-0.9,0.2-1.9,0.3-2.9,0.5
		c0,0.1,0,0.2,0,0.2c0,0.3-0.2,0.7-0.4,1.1c-0.4,0.5-0.8,1-1.2,1.6c-0.4,0.3-0.8,0.5-1.1,0.5c-0.6-0.1-0.9-0.4-0.9-1
		c0-0.4,0.1-0.7,0.4-1.1c0.2-0.3,0.4-0.6,0.7-0.9c-0.3,0.1-0.6,0.1-0.9,0.2c-0.5,0.1-0.9,0.2-1.3,0.2c-0.8,0-1.2-0.3-1.2-0.8
		c0-0.3,0.1-0.6,0.4-0.8s0.6-0.3,0.9-0.4c2.9-0.5,5.3-0.9,7.2-1.2c-0.2,0-0.4-0.1-0.7-0.1c-0.7-0.1-1-0.4-1-0.9
		c0-0.3,0.1-0.5,0.3-0.6c-0.9,0.1-1.9,0.3-3,0.5c-0.3,0.1-0.6,0.1-0.9,0.1c-0.8,0-1.2-0.3-1.2-0.8c0-0.3,0.2-0.5,0.5-0.8
		s0.5-0.4,0.9-0.4c4.6-0.6,7.5-1,8.9-1.1c-0.1-0.1-0.1-0.2-0.1-0.4s0-0.4,0-0.6c-1.5,0-3.3-0.1-5.3-0.1c0,0.1,0,0.2,0,0.2
		c0,0.1,0,0.2,0,0.3c0,0.7-0.4,1.1-1,1.1c-0.8,0-1.2-0.4-1.4-1c0-0.3-0.1-0.5-0.1-0.7c-1,0-2.1,0-3.2-0.1c-0.8-0.1-1.2-0.5-1.2-1
		C105.7-149.2,106.2-149.6,107.2-149.7z M123.4-136.2c1.3,0,1.9,0.4,2,1c0,0.7-0.4,1-1.1,1.1c-2.7,0-5.1,0.1-7.1,0.2
		c0.1,0.8,0.1,1.6,0.2,2.4c0,0.3,0,0.5,0,0.6c-0.1,0.9-0.4,1.3-1,1.3s-1-0.3-1.2-0.9c0-0.1-0.1-0.3-0.1-0.5
		c-0.1-0.6-0.1-1.2-0.2-1.8c-4.1,2.1-6.4,3.2-6.8,3.2c-0.6,0-0.9-0.3-0.9-0.8c0-0.4,0.3-0.8,0.8-0.9c1.7-0.9,3-1.7,4.1-2.2
		c-1.6,0.2-3.2,0.3-4.6,0.3c-0.8,0-1.3-0.4-1.3-1.1c0-0.6,0.5-0.9,1.4-1c1.8-0.3,4.2-0.5,7.2-0.6c0.2-0.6,0.5-0.9,1-1
		c0.6,0,1,0.3,1.1,0.8c0,0,0,0.1,0.1,0.2C118.8-136.1,121-136.1,123.4-136.2z M118.5-142.6c0.4,0,0.7-0.1,1-0.1c0-0.1,0-0.2,0-0.4
		c0.2-0.5,0.3-0.8,0.3-0.9c0-0.2-0.1-0.3-0.2-0.4c-0.2-0.1-0.4-0.1-0.7-0.1c-0.9,0-2.3,0.2-4.3,0.4c0.3,0,0.6,0.1,0.9,0.1
		c1.1,0.2,1.7,0.3,1.9,0.4C118.1-143.3,118.4-143,118.5-142.6z M118.9-133.3c0.7,0,2.5,0.4,5.4,1.1c0.4,0.3,0.6,0.6,0.6,1
		c-0.1,0.6-0.4,0.9-0.9,0.9c-0.4,0-0.8,0-1.2-0.1c-1.3-0.3-2.7-0.6-4.3-1.1c-0.4-0.3-0.6-0.6-0.6-1
		C117.9-133,118.3-133.3,118.9-133.3z"/>
	<path class="st4" d="M129.4-142.6c0-0.5,0.3-0.8,0.9-1.1c1.3-0.6,2.5-0.8,3.7-0.8c1.6,0,2.9,0.6,3.8,1.9c0.9,1.1,1.4,2.6,1.4,4.6
		c0,2.2-0.3,3.7-0.9,4.7c-1,1.4-2.4,2.2-4.4,2.2c-1.7,0-3.1-0.4-4-1.3c-0.8-0.8-1.2-2.1-1.2-4c0-1.8,0.1-3.6,0.3-5.4
		C129-142.2,129.2-142.4,129.4-142.6z M131.6-149.3c1.3,0,2.5,0.3,3.6,0.8c0.8,0.3,1.3,0.7,1.3,1.2c-0.1,0.8-0.4,1.2-1,1.3
		c-0.2,0-0.4-0.1-0.8-0.3c-0.7-0.3-1.6-0.6-3-0.7c-0.9-0.1-1.4-0.5-1.4-1.2C130.3-148.9,130.8-149.3,131.6-149.3z M133.9-142.5
		c-0.3,0-0.8,0.1-1.5,0.4c-0.5,0.2-0.9,0.4-1.2,0.4c0,0.1,0,0.1,0,0.2c-0.1,0.6-0.1,1.1-0.2,1.6c1,0,1.9,0.1,2.6,0.2
		c0.7,0.2,1,0.5,1,1c-0.1,0.7-0.5,1-1.4,1c-1,0-1.8-0.1-2.4-0.1c0,0.4,0,0.8,0,1.2c0,1.3,0.2,2.1,0.6,2.5c0.4,0.5,1.2,0.8,2.2,0.8
		c1.3,0,2.2-0.4,2.7-1.1c0.5-0.8,0.7-1.9,0.7-3.3c0-1.7-0.3-3-0.9-3.7C135.5-142.1,134.8-142.5,133.9-142.5z M140.5-150.5
		c0.6,0,0.9,0.3,0.9,0.9c0,0.3-0.2,0.6-0.4,1.1c-0.3,0.4-0.5,0.9-0.7,1.4c0.3-0.1,0.7-0.2,1.1-0.3c1.1-0.4,2.3-0.5,3.6-0.5h0.2
		c1.1,0,2.1,0.5,2.8,1.6s1,2.4,1,3.8v0.6c0,1.3-0.2,3.1-0.5,5.4c-0.4,2.3-0.7,4.1-1.1,5.3c-0.3,0.5-0.6,0.8-1,0.8
		c-0.7,0-1-0.4-1.1-1c0-0.2,0.1-0.4,0.1-0.6c0.5-1.8,0.8-3.7,1.1-5.6c0.2-1.8,0.4-3.3,0.4-4.4c0-1.2-0.2-2-0.5-2.6
		c-0.4-0.7-0.9-1.1-1.6-1.1c-0.6,0-1.2,0.1-1.9,0.3c-1,0.2-2,0.5-3.1,0.9c-0.1,0.1-0.2,0.1-0.3,0.1c-0.1,0.2-0.1,0.5-0.2,0.7
		c-0.2,0.7-0.5,1.1-1,1.1c-0.7,0-1-0.5-1-1.2c0-0.5,0.2-1.5,0.7-2.7c0.7-1.7,1.2-2.8,1.6-3.2C139.8-150.3,140.1-150.5,140.5-150.5z
		 M140.8-140c0.5,0,1,0.1,1.5,0.4c1,0.4,1.8,0.8,2.4,1.1c0.7,0.4,1,0.9,1,1.5c-0.1,0.6-0.4,1-1,1s-1.1-0.2-1.5-0.5
		c-0.8-0.4-1.6-0.7-2.6-1c-0.6-0.4-1-0.9-1-1.4C139.7-139.7,140.1-140,140.8-140z"/>
	<path class="st4" d="M155.6-147.8c0.9,0,3.2,0.1,6.9,0.2c0-0.4,0-0.8,0-1.1c0-1.1,0.4-1.7,1.1-1.8c0.7,0,1,0.5,1,1.4
		c0,0.6,0,1.1,0,1.6c3.4,0.1,5.4,0.2,6,0.2c0.1,0,0.2,0.1,0.3,0.1c0,0,0-0.1-0.1-0.1c-0.8-0.7-1.5-1.3-2.1-1.9
		c-0.2-0.2-0.4-0.4-0.4-0.8c0.1-0.5,0.4-0.9,0.9-0.9s0.9,0.2,1.3,0.6c0.5,0.4,0.9,0.8,1.3,1.1c0.5,0.4,0.7,0.8,0.7,1.3
		c-0.1,0.6-0.4,1-1,1.1c0,0,0,0-0.1,0c0.2,0.2,0.3,0.4,0.4,0.7c-0.1,0.7-0.5,1.1-1.3,1.1c-1,0-2.9-0.1-5.8-0.2
		c0.2,2.4,0.6,4.3,1.1,5.6c0.3,0.8,0.5,1.4,0.8,2.1c1.3-1.7,2.6-3.3,3.9-4.7c0.4-0.3,0.7-0.4,1-0.4c0.6,0.1,0.9,0.4,0.9,0.9
		c0,0.3-0.1,0.7-0.4,1c-1.4,1.7-2.8,3.5-4.3,5.3c0.4,0.5,0.8,0.9,1.2,1.3c0.7,0.7,1.8,1.3,3.3,1.9c0.5,0.2,0.8,0.5,0.8,1
		c-0.1,0.6-0.4,1-1,1c-0.7,0-1.5-0.2-2.2-0.6c-1.3-0.7-2.5-1.6-3.5-2.9c-0.6,0.7-1.1,1.5-1.7,2.3c-0.3,0.4-0.6,0.5-0.9,0.6
		c-0.6-0.1-0.9-0.4-0.9-0.9c0-0.4,0.1-0.8,0.4-1.1c0.6-1,1.3-1.9,1.9-2.7c-0.7-1.3-1.3-2.8-1.8-4.5c-0.3-1.5-0.6-3.2-0.8-5.2
		c-1.8-0.1-4-0.2-6.4-0.3c0,0.6-0.2,2.1-0.4,4.4c0.8-0.2,1.5-0.3,2.3-0.3h0.5c1,0,1.8,0.3,2.3,0.9c0.5,0.7,0.8,1.8,0.8,3.1v1
		c0,1.4-0.5,2.7-1.3,4c-0.1,0.5-0.5,0.8-1.1,0.8s-0.9-0.4-0.9-1.1c0-0.3,0.1-0.6,0.4-1c0.5-1.2,0.8-2.3,0.8-3.1c0-1-0.1-1.7-0.2-2.1
		c-0.2-0.3-0.4-0.4-0.7-0.4c-0.5,0-1.3,0.1-2.3,0.4c-0.2,0.1-0.4,0.2-0.6,0.2c-0.1,2.2-0.2,4.5-0.3,6.8c-0.1,0.8-0.5,1.2-1.1,1.2
		s-1-0.5-1-1.3c0-3.2,0.3-7.7,0.8-13.5c0-0.3,0.1-0.5,0.2-0.6c-0.1-0.2-0.1-0.3-0.2-0.5C154.1-147.4,154.6-147.8,155.6-147.8z"/>
	<path class="st4" d="M180.7-150.6c0.9,0,3.3,0.1,7,0.2c4.4,0.2,6.9,0.3,7.6,0.3c0.8,0.3,1.2,0.7,1.2,1.2c-0.1,0.7-0.5,1.1-1.3,1.1
		c-1.8,0-6.2-0.2-13.4-0.5l0,0c0,0.4,0,0.8,0,1.2c0.2,0,0.4-0.1,0.6-0.1c0.7,0,2.4,0.1,5.1,0.2c3.2,0.2,5,0.3,5.5,0.4
		c0.8,0.3,1.2,0.7,1.2,1.2c-0.1,0.7-0.5,1.1-1.3,1.1c-1.3,0-4.9-0.2-10.8-0.5c-0.1,0-0.1,0-0.2,0c0,0.8,0,1.5,0.1,2.2
		c0.1,0,0.2,0,0.3,0c1.9-0.4,5-0.6,9.3-0.7c1.2,0,1.8,0.4,1.9,1c0,0.6-0.4,1-1,1c-3.2,0-5.7,0.2-7.3,0.4c-1,0.1-2,0.2-2.9,0.3h-0.1
		c0,0.3,0,0.6,0.1,0.9c0,0.4,0,0.8,0,1.1c4.3-0.3,8.1-0.6,11.6-1.1c0.8-0.2,1.4-0.3,1.9-0.3c0.8,0,1.2,0.4,1.2,1s-0.3,0.9-0.9,1
		c-0.6,0.2-1.4,0.3-2.6,0.5c0,0,0,0,0.1,0.1c0.8,0.6,1.2,1.3,1.2,2.2c0,0.8-0.3,1.5-0.9,2.3c0.9,0.2,1.8,0.4,2.9,0.6
		c0.5,0.1,0.7,0.5,0.8,1.1c-0.1,0.6-0.4,0.9-1,0.9c-0.5,0-1.1-0.1-1.9-0.3c-1-0.3-2-0.5-2.8-0.8c-0.7,0.4-1.4,0.7-2.2,0.9
		c-1.6,0.4-3.3,0.7-5,0.7c-1.9,0-3.3-0.4-4.1-1.2c-0.7-0.7-1-1.8-1-3.1c0-0.7,0.1-1.4,0.2-2.2c-0.3,0-0.5,0-0.8,0
		c-0.6,0-1.1-0.1-1.4-0.3c-0.3-0.2-0.5-0.5-0.5-1.1c0-0.5,0.4-0.8,1.1-0.8c0.7,0,1.3-0.1,1.9-0.1c-0.1-1.6-0.2-3.4-0.3-5.6
		c-0.1-2.2-0.1-3.5-0.1-4.1c0-0.1,0-0.2,0-0.4c-0.3-0.2-0.5-0.5-0.5-0.8C179.2-150.2,179.7-150.6,180.7-150.6z M181.9-136.4
		c0,0.2-0.1,0.4-0.2,0.7c-0.1,0.5-0.2,1-0.2,1.5c0,0.8,0.2,1.3,0.5,1.7c0.4,0.4,1.2,0.6,2.3,0.6s2.3-0.1,3.7-0.4
		c0.2,0,0.3-0.1,0.5-0.1c-0.5-0.2-0.9-0.4-1.1-0.5c-0.7-0.5-1-1.1-1-2c0-0.7,0.2-1.3,0.5-1.8C185.3-136.5,183.6-136.4,181.9-136.4z
		 M190.5-136.2c-0.7,0-1.2,0.1-1.5,0.4c-0.3,0.2-0.4,0.6-0.4,1c0,0.3,0.4,0.6,1.1,0.8c0.4,0.1,0.9,0.3,1.6,0.4
		c0.1,0,0.2-0.1,0.2-0.2c0.7-0.5,1.1-1,1.1-1.5c0-0.3-0.2-0.6-0.6-0.7C191.6-136.1,191.1-136.2,190.5-136.2z"/>
	<path class="st4" d="M204.3-146.5c0-0.1,0-0.2,0-0.3c0-0.4,0.3-0.8,0.8-1.2c0.8-0.4,1.8-0.8,3.2-1.1s2.7-0.5,4-0.5h1
		c1.6,0,2.9,0.5,3.9,1.4c0.7,0.7,1.3,1.8,1.7,3.2c0.5,1.9,0.7,3.9,0.7,6v0.4c0,2-0.2,3.5-0.6,4.5c-0.6,1.2-1.8,2-3.6,2.5
		c-1.6,0.5-3,0.7-4.3,0.7H210c-2.3,0-4.1-0.8-5.5-2.3c-1.2-1.3-1.9-3.2-1.9-5.6v-0.9c0-1.2,0.1-2.5,0.4-3.9
		C203.4-144.7,203.8-145.7,204.3-146.5z M213.3-147.4h-1c-0.9,0-1.7,0.1-2.5,0.3c-0.8,0.1-1.8,0.5-3,1c0,0.2-0.1,0.3-0.2,0.5
		c-0.7,1.3-1.1,2.4-1.3,3.5c3.1,0.1,5.7,0.3,7.8,0.6c0.7,0.2,1.1,0.5,1.1,1c-0.1,0.7-0.6,1.1-1.5,1.1c-3.1-0.1-5.6-0.3-7.7-0.6
		c0,0.1,0,0.1,0,0.2v0.7c0,1.9,0.4,3.4,1.3,4.5c0.9,1.1,2.1,1.6,3.6,1.6h1.1c1.3,0,2.6-0.2,4-0.7c0.9-0.3,1.5-0.8,1.9-1.5
		c0.3-0.6,0.5-1.8,0.5-3.5v-0.8c0-1.5-0.2-3-0.6-4.6c-0.3-1.3-0.7-2.1-1.3-2.6C215-147.2,214.2-147.4,213.3-147.4z"/>
	<path class="st4" d="M229.2-150.9c0.5,0,0.9,0.3,1,0.7c0.3,0.7,0.6,1.3,1.1,1.8c0.2,0.2,0.3,0.4,0.4,0.6c0.1,0,0.2,0,0.3,0
		c1.5,0,2.3,0.4,2.3,1.1c0,0.6-0.4,1-1,1c-2.9,0-4.7,0.2-5.4,0.5c-0.7,0.2-1.2,0.4-1.6,0.4c-0.8,0-1.2-0.4-1.3-1.1
		c0-0.5,0.3-0.8,0.9-1c0.6-0.3,1.7-0.6,3.3-0.8c-0.7-1-1.1-1.8-1.1-2.2C228.3-150.5,228.6-150.9,229.2-150.9z M226.2-136.5
		c0.1-0.3,0.3-0.6,0.6-0.8c1-0.4,1.8-0.7,2.5-0.7h0.4c0.9,0,1.8,0.3,2.5,0.8c0.9,0.7,1.3,1.6,1.3,2.9v0.6c0,0.9-0.4,1.7-1.1,2.3
		c-0.6,0.5-1.4,0.7-2.5,0.7h-0.8c-1.4,0-2.4-0.3-3.2-0.9c-0.5-0.4-0.8-1.1-0.8-2v-0.2c0-0.5,0.1-1.1,0.4-1.7
		C225.8-136,225.9-136.3,226.2-136.5z M230.2-141.1c1.5,0,2.3,0.4,2.3,1.1c0,0.6-0.4,1-1,1c-1.5,0-2.4,0.1-2.8,0.3
		c-0.4,0.1-0.6,0.2-0.8,0.3c-0.8,0-1.3-0.4-1.3-1.1c0-0.5,0.3-0.8,0.9-1C227.8-140.8,228.8-141,230.2-141.1z M230.7-144.3
		c1.5,0,2.3,0.4,2.4,1.1c0,0.6-0.4,1-1,1c-1.7,0-2.8,0.1-3.2,0.3s-0.7,0.3-0.9,0.3c-0.8,0-1.3-0.4-1.3-1.1c0-0.5,0.3-0.8,0.9-1
		C228-144.1,229.1-144.3,230.7-144.3z M229.7-135.8c-0.3,0-0.7,0.1-1.4,0.4c-0.2,0.1-0.4,0.2-0.6,0.3c0,0.1,0,0.2,0,0.3
		c-0.1,0.4-0.2,0.8-0.2,1c0,0.4,0.1,0.6,0.4,0.8c0.3,0.2,0.9,0.2,1.7,0.2c0.7,0,1.2-0.1,1.4-0.3s0.4-0.6,0.4-1.1s-0.1-0.9-0.4-1.2
		C230.7-135.7,230.3-135.8,229.7-135.8z M240.5-149.9c1.7,0,2.9,0.5,3.6,1.5c0.5,0.8,0.8,1.9,0.8,3.1v1.3c0,2.2-0.4,3.7-1.2,4.5
		s-1.8,1.2-3.2,1.2h-1.4c-0.4,0-0.9,0-1.4-0.1c0,0.1-0.1,0.3-0.1,0.4c-0.6,1.7-1,3-1,4c0,0.6,0.1,1,0.4,1.3c0.3,0.3,0.8,0.4,1.5,0.4
		s2.4-0.4,5-1.1c0.4-0.1,0.7-0.2,0.8-0.2c0.8,0,1.2,0.4,1.2,1s-0.3,1-1,1.1c-2.1,0.9-4,1.3-5.6,1.3h-0.5c-1.2,0-2.1-0.3-2.8-0.8
		c-0.8-0.6-1.2-1.6-1.2-2.8v-0.6c0-1.2,0.3-2.6,0.9-4.2c-0.4,0-0.7-0.1-1.1-0.1c-0.4-0.1-0.6-0.5-0.6-0.9c0-0.9,0.4-1.3,1-1.3
		c0.2,0,0.5,0.1,0.9,0.2c1.6,0.3,2.9,0.5,3.8,0.5c1.3,0,2.2-0.3,2.8-0.8c0.3-0.3,0.5-1.4,0.5-3.3c0-1.5-0.1-2.5-0.3-3
		c-0.2-0.4-0.9-0.6-1.9-0.6c-1.2,0-2.3,0.1-3.5,0.3c-0.5,0.1-0.8,0.2-1,0.2c-0.8,0-1.2-0.3-1.2-1c0.1-0.6,0.5-1,1.3-1.1
		C237.1-149.8,238.6-149.9,240.5-149.9z"/>
</g>
<text transform="matrix(1 0 0 1 72.2741 -62.1153)" class="st4" style="font-family:'DFGirl-W7-HK-BF'; font-size:24px;"></text>
<text transform="matrix(1 0 0 1 109.2091 -193.1153)" class="st4" style="font-family:'DFGirl-W7-HK-BF'; font-size:24px;"></text>
<g>
	<path class="st4" d="M113.6,114.9c0.2,0.8,0.6,2.1,1,2.7c-4.8,3.2-5.7,3.9-6.2,4.5c-0.3-0.6-1.2-1.8-1.7-2.2
		c0.6-0.5,1.4-1.5,1.4-2.9v-8h-4.1v-3h7.4v10.3L113.6,114.9z M110.4,104.8c-0.9-1.2-3-3.1-4.6-4.4l2.2-1.9c1.6,1.2,3.8,3,4.8,4.2
		L110.4,104.8z M125,119c1.5,0,1.7-0.6,1.9-4c0.8,0.5,2.3,1,3.2,1.2c-0.4,4.5-1.4,5.7-4.8,5.7H120c-3.7,0-4.9-0.9-4.9-4.3v-9.6h10
		v-5.3h-10.6v-3.1h13.9v12.5H125V111h-6.5v6.7c0,1.1,0.3,1.3,1.8,1.3H125z"/>
	<path class="st4" d="M156.1,112.2c-1.6,1.2-3.5,2.4-5.1,3.4c1.9,1.4,4.2,2.4,6.8,3c-0.8,0.7-1.7,1.9-2.3,2.7
		c-3.7-1.1-6.6-3.1-8.9-5.7v3.7c0,1.5-0.4,2.2-1.5,2.6c-1.1,0.4-2.7,0.4-4.8,0.4c-0.2-0.8-0.7-1.9-1.1-2.7c1.3,0.1,3,0.1,3.4,0.1
		c0.5,0,0.6-0.1,0.6-0.5v-1.9c-3.1,1.2-6.3,2.5-8.9,3.5l-1.8-2.8c2.6-0.8,6.8-2.3,10.7-3.7v-4.1h-10.5v-2.7h17.7l0.1-1.4h-15.2v-2.8
		h15.3l0.1-1.4h-16.3v-2.8h16.8l0.6-0.1l2.7,0.1c-0.1,2.7-0.3,5.7-0.5,8.4h3.4v2.7h-4.1L156.1,112.2z M139.4,115.7
		c-1-1-3.3-2.4-5-3.4l2.2-1.9c1.7,0.8,4.1,2.1,5.2,3.1L139.4,115.7z M146.7,110.9c0.6,1,1.3,2,2.2,2.9c1.5-1,3.2-2.3,4.3-3.4h-6.5
		V110.9z"/>
	<path class="st4" d="M165.8,117.1c-0.8,1.6-2,3.4-3,4.5c-0.5-0.4-1.7-1.2-2.3-1.6c1-1,2-2.4,2.6-3.6L165.8,117.1z M176.2,110h-15.8
		v-2.3h6.3c-0.1-0.3-0.3-0.5-0.4-0.8l2.2-0.4h-6.9V99h13.5v7.5h-5.5c0.2,0.4,0.5,0.8,0.6,1.2h5.9V110z M169,116.2v3.4
		c0,1.3-0.2,1.9-1,2.3c-0.8,0.4-1.8,0.4-3.1,0.4c-0.1-0.8-0.5-1.8-0.8-2.5c0.7,0,1.5,0,1.7,0c0.2,0,0.3-0.1,0.3-0.3v-3.3h-4v-5.4
		h11.1v5.4H169z M164.9,101.8h7v-1h-7V101.8z M164.9,104.6h7v-1h-7V104.6z M165.3,114.2h6.3v-1.4h-6.3V114.2z M186.3,113.9
		c-2.1,3.5-5.4,6.4-9.1,8.3c-0.5-0.8-1.4-1.7-2.2-2.4c0.1,0.2,0.2,0.4,0.3,0.6l-2.5,1.1c-0.4-1.1-1.4-2.9-2.3-4.2l2.4-0.9
		c0.7,1,1.6,2.4,2.1,3.4c3.3-1.5,6.6-4,8.3-6.9L186.3,113.9z M185.2,99.7c-1.9,2.5-4.7,4.8-7.4,6.3c-0.5-0.7-1.5-1.6-2.4-2.2
		c2.4-1.2,5.2-3.3,6.6-5.3L185.2,99.7z M185.8,106.7c-2.1,2.6-5.1,5-8,6.7c-0.5-0.7-1.5-1.6-2.3-2.2c2.6-1.3,5.7-3.5,7.2-5.7
		L185.8,106.7z"/>
	<path class="st4" d="M209.5,110.5v11.9H206v-8.8h-10.4c-0.5,3.2-1.7,6.3-4.3,8.9c-0.5-0.8-1.7-1.9-2.5-2.4
		c3.5-3.5,3.9-8.3,3.9-12.7v-8.8h3.4v5.5h9.1v-5.9h3.5v9H196v0.2c0,1.1,0,2.1-0.1,3.2H209.5z"/>
</g>
</svg>
