<?xml version="1.0" encoding="utf-8"?>
<!-- Generator: Adobe Illustrator 24.2.1, SVG Export Plug-In . SVG Version: 6.00 Build 0)  -->
<svg version="1.1" id="Capa_1" xmlns="http://www.w3.org/2000/svg" xmlns:xlink="http://www.w3.org/1999/xlink" x="0px" y="0px"
	 viewBox="0 0 218.4 218.4" style="enable-background:new 0 0 218.4 218.4;" xml:space="preserve">
<style type="text/css">
	.st0{clip-path:url(#SVGID_2_);}
	.st1{fill:#595757;}
	.st2{fill:#F2A5AF;}
	.st3{fill:#FFFFFF;}
	.st4{fill:#717071;}
	.st5{fill:#E9BEBF;}
	.st6{fill:#ADAEAE;}
	.st7{fill:#231815;}
	.st8{fill:#5D5E5E;}
	.st9{fill:#DF2A13;}
	.st10{fill:#E35228;}
	.st11{clip-path:url(#SVGID_4_);}
	.st12{fill:#E56035;}
	.st13{fill:#C185B7;}
	.st14{fill:#B365A4;}
	.st15{fill:#C286B8;}
	.st16{fill:none;stroke:#E9EFB1;stroke-width:0.25;stroke-linecap:round;stroke-linejoin:round;stroke-miterlimit:10;}
</style>
<g>
	<defs>
		<rect id="SVGID_1_" width="218.4" height="129.9"/>
	</defs>
	<clipPath id="SVGID_2_">
		<use xlink:href="#SVGID_1_"  style="overflow:visible;"/>
	</clipPath>
	<g class="st0">
		<g>
			<g>
				<path class="st1" d="M130.8,86.5c3.4-4.4,0.8-10.4-2-14.3c-1.4-1.9-2.8-3.8-5.1-4.5c-2.4-0.8-5.2-0.5-7.6,0.1
					c1.1,0.6,2.3,1.3,3.4,1.9c-0.2-1.3-0.4-2.6-0.6-3.9c-0.1-0.6-0.2-1.2-0.2-1.8c0.1,0.7,0-0.3-0.1-0.4c0-0.3-0.1-0.6-0.1-0.9
					c-0.3-2.5-0.6-5.1-1.1-7.6c-1.1,1.1-2.3,2.3-3.4,3.4c3.7,0.6,7.5,0.2,11.1-0.7c3.7-0.9,6.7-3.1,7.9-6.8c0.5-1.6,0.7-3.4,0.6-5.1
					c-0.1-2-1.2-3.5-3-4.4c-3.4-1.8-7-3.3-10.6-4.6c-2-0.7-3.9-1.3-6-1.8c-2.4-0.6-4.8-1-7.3-0.6c1,0.4,2.1,0.8,3.1,1.3
					c-0.8-1.2-1.6-2.3-2.5-3.3c0.3,0.7,0.5,1.3,0.8,2c0-2,0-3.9-0.3-5.9c-0.3-1.9-0.7-3.7-2-5.2c-1.4-1.7-4-2.4-5.7-0.7
					c-0.9,0.8-1.3,2-1.7,3.1c-0.4,1-0.7,1.9-0.9,2.9c1.4-0.6,2.7-1.1,4.1-1.7c-5.3-4-11.7-6.3-18.3-6.8c0.9,0.9,1.8,1.8,2.8,2.8
					c0.1-1.7,0.1-3.5-0.4-5.1c0,0.5,0,1,0,1.5c0.4-1.6,0.1-3.3-1-4.6c-1.2-1.3-2.7-1.5-4.4-1.5c0.9,0.7,1.8,1.4,2.7,2
					c-0.3-1.3-0.7-2.6-1.9-3.4c-0.9-0.6-1.9-0.7-3-0.6c-1.7,0.1-3,0.8-4.2,1.9c-2.4,2.1-4.5,5.2-5.3,8.3c0.4-0.6,0.8-1.1,1.3-1.7
					c-0.7,0.3-1.4,0.7-2.2,1c0.9,0,1.9,0,2.8,0c-2.4-1.2-5.1-1.3-7.5,0.1c0.7-0.1,1.4-0.2,2.1-0.3c-1.1-0.3-2.2-0.6-3.3-1
					c-0.5-0.2-1.1-0.4-1.6-0.6c-0.1,0-0.2-0.1-0.4-0.2c0.1,0,0.3,0.2,0,0c-0.3-0.2-0.7-0.3-1-0.4c-2.1-1-4-2.3-5.9-3.5
					c-2.1-1.3-4.5-2.3-7-2.2c-2.7,0.1-5.2,1.5-6.5,3.9c-1.6,2.8-1.7,6.2-0.7,9.3c1.1-1.1,2.3-2.3,3.4-3.4c-6.2-0.9-12.4,0.8-17,5.1
					c-4.2,3.9-6.6,9.7-6.3,15.4c0.2,3.9,1.5,7.8,3.8,10.9c0.6-1.4,1.1-2.7,1.7-4.1c-4.9,1.6-7,8.3-5.2,12.8c0.9,2.3,2.5,4.2,4.6,5.4
					c0.2,0.1,0.4,0.2,0.7,0.4c0.3,0.1,0.8,0.2,1.1,0.4c0,0-0.1,0-0.1,0c-0.2,0-0.2,0,0,0.1c0.1,0.1,0.3,0.2,0.3,0.3
					c0.3,0.2,0.6,0.4,0.9,0.7c1,0.8,2.1,1.5,3.2,2.2c2.4,1.6,4.9,3.2,7.4,4.6c-0.4-1-0.8-2.1-1.3-3.1c-0.6,2.8-1.2,5.6-1.8,8.4
					c-0.3,1.3-0.6,2.7-1,4c-0.5,1.6-0.8,3.2-1.2,4.9c-0.5,2.1-0.9,4.2-1.4,6.3c-0.9,4.3-1.7,8.5-2.8,12.8c-0.3,1-0.5,2.1-0.9,3.1
					c0,0.1-0.1,0.2-0.1,0.4c-0.1,0.3-0.2,0,0.1-0.2c-0.1,0.1-0.2,0.4-0.3,0.5c-0.3,0.5-0.6,0.9-0.9,1.4c-1.2,1.8-2.2,3.7-3.1,5.6
					c-3.6,7.9-5.2,17-2.9,25.5c1.1,4.1,3.1,7.9,5.9,11.1c1.5,1.6,3.2,3.1,5,4.3c2.1,1.4,4.4,2.3,6.7,3.3c2.5,1,4.9,1.8,7.6,2.2
					c2.5,0.4,5.1-0.2,7.6-0.8c5.8-1.4,11.5-3.1,17.3-4.5c1.6-0.4,3.2-0.8,4.7-1.1c-1.1-1.1-2.3-2.3-3.4-3.4c0,0.1-0.3,0.7-0.2,0.8
					c0,0,0.3-0.6,0.1-0.2c-0.1,0.1-0.1,0.2-0.2,0.3c-0.3,0.6-0.7,1.1-1,1.6c-0.1,0.1-0.3,0.4,0.1-0.1c-0.1,0.1-0.2,0.2-0.2,0.3
					c-0.2,0.2-0.4,0.4-0.5,0.7c-0.4,0.4-0.7,0.8-1.1,1.3c-0.7,0.9-1.5,1.8-1.7,3c-0.3,1.6,0.4,3.1,1.9,3.9c2.3,1.2,5.3,0.4,7.5-0.3
					c3.2-1,6.5-2.5,9.4-4.4c1.5-1,3-2.1,4.3-3.3c0.5-0.4,1.1-0.9,1.6-1.3c0.2-0.2,0.5-0.4,0.7-0.6c0.2-0.1,1.1-0.9,0.4-0.3
					c-0.5,0.1-0.9,0.3-1.4,0.4c3.1,0.1,5.3,0.4,8.3,1.1c1.3,0.3,2.7,0.4,4.1,0.7c0.3,0.1,0.6,0.2,0.9,0.3c0.1,0,0.5,0.2,0.1,0
					c0.1,0,0.2,0.1,0.3,0.1c0.7,0.3,1.4,0.6,2.1,0.9c3.6,1.4,7.9,2,11.6,0.5c3.8-1.5,6.5-4.6,8.3-8.2c0.6-1.1,1-2.3,1.5-3.5
					c0-0.1,0.1-0.2,0.1-0.3c0,0.1-0.3,0.6-0.2,0.3c0-0.1,0.1-0.1,0.1-0.2c0.1-0.1,0.1-0.3,0.2-0.4c0.3-0.7,0.6-1.4,0.9-2.1
					c1.3-3,1.9-6.1,2.2-9.4c0.5-5.9-0.2-11.9-1.1-17.8c-1.6-10.3-4.3-20.3-6.5-30.4c-0.3-1.2-0.5-2.5-0.8-3.7
					c-0.9,1.2-1.8,2.3-2.7,3.5c1.9-0.2,3.9-0.5,5.7-0.9c1.7-0.4,3.4-1.1,4.7-2.4c1-1,1.1-2.9,0-3.9c-1.1-1-2.8-1.1-3.9,0
					c-0.1,0.1-0.2,0.2-0.3,0.3c0.3-0.2,0.3-0.2,0,0c-0.1,0.1-1,0.5-0.4,0.2c-0.6,0.2-1.2,0.4-1.8,0.5c-0.7,0.2-1.4,0.3-2.1,0.4
					c-0.4,0.1-0.8,0.1-1.2,0.2c0.2,0,0.2,0-0.1,0c-0.2,0-0.4,0-0.6,0.1c-1.9,0.2-3.1,1.6-2.7,3.5c1.4,6.9,3.2,13.6,4.7,20.5
					c0.7,3,1.3,6,1.8,9.1c0.2,1.3,0.5,2.6,0.7,3.9c0.1,0.6,0.2,1.2,0.3,1.8c0,0.1,0,0.8,0.1,0.8c-0.1,0-0.1-0.6,0-0.2
					c0,0.2,0,0.4,0.1,0.5c0.5,3.7,0.8,7.3,0.7,11c0,1.3-0.1,2.6-0.2,3.9c0,0.2,0,0.3-0.1,0.5c0-0.3,0.1-0.8,0-0.2
					c0,0.3-0.1,0.5-0.1,0.8c-0.1,0.5-0.2,1-0.3,1.5c-0.2,0.9-0.4,1.7-0.7,2.5c-0.1,0.4-0.3,0.7-0.4,1.1c-0.1,0.2-0.1,0.3-0.2,0.5
					c-0.2,0.5,0.3-0.6,0.2-0.4c0,0.1-0.1,0.2-0.1,0.3c-0.4,0.9-0.9,1.9-1.2,2.8c-0.1,0.3-0.2,0.7-0.4,1c-0.1,0.1-0.1,0.3-0.2,0.4
					c-0.3,0.6,0.2-0.4,0,0c-0.3,0.6-0.5,1.2-0.8,1.7c-0.3,0.5-0.6,1-0.9,1.5c0,0-0.4,0.7-0.5,0.7c0,0,0.4-0.5,0.1-0.1
					c-0.1,0.1-0.2,0.3-0.3,0.4c-0.3,0.4-0.7,0.8-1.1,1.1c-0.2,0.2-0.8,0.5-0.1,0.1c-0.2,0.1-0.4,0.3-0.7,0.5
					c-0.4,0.3-0.9,0.5-1.3,0.7c-0.3,0.2,0.7-0.3,0.2-0.1c-0.1,0-0.2,0.1-0.3,0.1c-0.2,0.1-0.5,0.2-0.8,0.2c-0.3,0.1-0.5,0.1-0.8,0.2
					c-0.1,0-0.2,0-0.3,0.1c-0.6,0.1,0.6,0,0.2,0c-0.5,0-1.1,0.1-1.6,0.1c-0.3,0-0.6,0-0.9-0.1c-0.1,0-0.3-0.1-0.4,0
					c0.3-0.1,0.6,0.1,0.1,0c-0.6-0.1-1.2-0.2-1.8-0.4c-0.6-0.2-1.3-0.4-1.9-0.6c-0.2-0.1-1.1-0.4-0.5-0.2c-0.4-0.2-0.7-0.3-1.1-0.5
					c-1.7-0.8-3.5-0.9-5.3-1.3c-2-0.4-3.9-0.8-5.9-1.1c-0.9-0.1-1.8-0.2-2.8-0.3c-1.2-0.1-2.4-0.3-3.4,0.4c-1.2,0.7-2.2,1.8-3.2,2.7
					c-0.5,0.5-1.1,0.9-1.6,1.3c-0.1,0.1-0.5,0.4-0.1,0.1c-0.1,0.1-0.3,0.2-0.4,0.3c-0.3,0.2-0.7,0.5-1,0.7c-1.4,1-2.9,1.8-4.5,2.5
					c-0.4,0.2-0.9,0.4-1.3,0.6c-0.2,0.1-0.3,0.1-0.5,0.2c0.4-0.2-0.1,0-0.2,0.1c-0.7,0.3-1.4,0.6-2.2,0.8c-0.6,0.2-1.3,0.4-1.9,0.5
					c-0.3,0.1-0.5,0.1-0.8,0.2c-0.5,0.1,0.2,0,0.2,0c-0.1,0-0.3,0-0.5,0c-0.2,0-0.5,0-0.7,0c-0.3,0-0.1-0.2,0.4,0.1
					c-0.1,0-0.2,0-0.3-0.1c-0.5-0.2,0.6,0.4,0.2,0.1c-0.3-0.2,0.4,0.3,0.3,0.3c-0.2-0.2-0.1-0.1,0.3,0.4c0.1,0.2,0.2,0.4,0.2,0.5
					c0.1,0.3,0.1,1,0,1.1c0.1-0.3,0.1,0-0.2,0.4c0.1-0.1,0.2-0.3,0.3-0.4c0-0.1,0.3-0.5,0.4-0.5c-0.1,0-0.4,0.5-0.1,0.2
					c0.1-0.1,0.2-0.3,0.3-0.4c0.9-1,1.7-2.1,2.5-3.2c0.7-1,1.4-2.2,1.7-3.5c0.4-2.1-1.3-3.9-3.4-3.4c-6.1,1.3-12.2,3.1-18.3,4.6
					c-2.2,0.6-4.5,1.2-6.7,1.6c-0.1,0-0.3,0-0.4,0.1c-0.5,0.1,0.1,0,0.1,0c-0.2,0.1-0.6,0.1-0.8,0.1c-0.2,0-0.5,0-0.7,0
					c-0.1,0-0.2,0-0.3,0c-0.5,0,0.5,0.1,0,0c-1.3-0.2-2.6-0.5-3.9-0.9c-1.2-0.4-2.3-0.9-3.5-1.3c-0.3-0.1-0.6-0.3-1-0.4
					c-0.1,0-0.5-0.2,0,0c-0.1-0.1-0.2-0.1-0.4-0.2c-0.5-0.2-1-0.4-1.4-0.7c-0.9-0.5-1.8-1-2.6-1.6c-0.2-0.1-0.4-0.3-0.6-0.4
					c-0.1,0-0.2-0.1-0.3-0.2c0.2,0.3,0.3,0.3,0.1,0.1c-0.4-0.3-0.8-0.7-1.2-1c-0.7-0.7-1.4-1.4-2-2.1c-0.1-0.2-0.3-0.3-0.4-0.5
					c-0.4-0.5,0.3,0.4-0.1-0.1c-0.3-0.4-0.6-0.8-0.8-1.2c-0.5-0.8-1-1.6-1.4-2.4c-0.1-0.2-0.2-0.4-0.3-0.6c0-0.1-0.1-0.3-0.1-0.3
					c0,0,0.3,0.6,0.1,0.2c-0.2-0.4-0.3-0.9-0.5-1.3c-0.3-0.9-0.6-1.8-0.8-2.8c-0.1-0.4-0.2-0.9-0.3-1.3c0-0.2-0.1-0.5-0.1-0.7
					c0-0.1,0-0.2-0.1-0.4c0.2,0.7,0,0.3,0,0.1c-0.2-2-0.3-3.9-0.1-5.9c0-0.5,0.1-1,0.1-1.5c0-0.1,0.1-0.7,0.1-0.7c0,0-0.1,0.6,0,0.3
					c0-0.2,0-0.3,0.1-0.5c0.2-1,0.4-2,0.6-3c0.5-2,1.1-4,1.9-5.9c0.1-0.1,0.2-0.5-0.1,0.1c0-0.1,0.1-0.2,0.2-0.4
					c0.1-0.2,0.2-0.4,0.3-0.6c0.2-0.5,0.5-1,0.7-1.5c0.5-0.9,1-1.8,1.5-2.7c0.6-0.9,1.2-1.8,1.8-2.7c0.7-0.9,1-2.2,1.3-3.3
					c1.1-3.9,1.9-8,2.7-12c0.8-4,1.6-7.9,2.6-11.9c0.3-1.2,0.7-2.3,0.9-3.5c0.5-2.2,1-4.3,1.4-6.5c0.3-1.5,0.6-3,1-4.4
					c0.3-1.2-0.2-2.5-1.3-3.1c-2.5-1.4-4.9-2.9-7.3-4.5c-1.2-0.8-2.3-1.6-3.5-2.5c-0.5-0.3-1.5-1.4-2.1-1.3c-0.2-0.1-0.1,0,0.2,0.1
					c-0.1-0.1-0.3-0.1-0.4-0.2c-0.3-0.1-0.5-0.3-0.7-0.4c-0.3-0.2-0.2-0.2,0,0c-0.1-0.1-0.2-0.2-0.3-0.3c-0.2-0.1-0.3-0.3-0.5-0.5
					c-0.1-0.1-0.6-0.8-0.3-0.3c-0.2-0.2-0.3-0.5-0.5-0.7c-0.1-0.1-0.4-1-0.2-0.3c-0.1-0.2-0.1-0.4-0.2-0.6c-0.1-0.3-0.1-0.6-0.2-0.9
					c0.1,0.7,0-0.3,0-0.4c0-0.2,0-0.5,0-0.7c0-0.3,0-0.3,0,0.1c0-0.2,0.1-0.3,0.1-0.5c0.1-0.3,0.2-0.6,0.3-0.9c0.1-0.3,0.1-0.3,0,0
					c0.1-0.1,0.1-0.3,0.2-0.4c0.1-0.2,0.2-0.4,0.4-0.6c0.1-0.1,0.2-0.3,0.3-0.4c-0.2,0.3-0.2,0.3,0,0c0.1-0.1,0.8-0.7,0.3-0.3
					c0.1-0.1,0.2-0.2,0.4-0.2c-0.3,0.1-0.3,0.1,0,0c1.5-0.5,2.8-2.6,1.7-4.1c-0.4-0.6-0.8-1.1-1.1-1.7c-0.2-0.3-0.3-0.6-0.5-0.9
					c-0.1-0.1-0.1-0.3-0.2-0.4c-0.1-0.1-0.1-0.2-0.2-0.3c0.1,0.2,0.1,0.3,0,0.1c-0.2-0.7-0.5-1.3-0.7-2c-0.1-0.3-0.2-0.7-0.2-1
					c0-0.2-0.1-0.3-0.1-0.5c-0.1-0.5,0,0.2,0-0.2c-0.1-0.7-0.1-1.4-0.1-2.2c0-0.3,0-0.6,0-0.9c0-0.2,0.2-0.9,0.1-1
					c0,0-0.1,0.7,0,0.1c0-0.1,0-0.3,0.1-0.4c0-0.3,0.1-0.5,0.2-0.8c0.1-0.6,0.3-1.2,0.5-1.8c0.1-0.2,0.2-0.5,0.3-0.8
					c-0.4,0.6,0-0.1,0.1-0.3c0.3-0.5,0.5-1.1,0.9-1.6c0.2-0.3,0.3-0.5,0.5-0.8c0.1-0.1,0.5-0.8,0.3-0.4c-0.2,0.3,0,0,0.1-0.1
					c0.1-0.1,0.2-0.3,0.3-0.4c0.2-0.2,0.4-0.4,0.6-0.7c0.4-0.4,0.8-0.8,1.2-1.2c0.2-0.2,0.4-0.4,0.6-0.5c-0.1,0-0.5,0.4-0.1,0.1
					c0.2-0.1,0.3-0.2,0.5-0.3c0.4-0.3,0.9-0.6,1.4-0.8c0.2-0.1,0.5-0.3,0.7-0.4c0.1-0.1,0.2-0.1,0.4-0.2c0.2-0.1,0.6-0.4,0.1,0
					c0.5-0.3,1.3-0.5,1.8-0.6c0.6-0.2,1.3-0.3,1.9-0.4c0.5-0.1,0,0-0.1,0c0.2-0.1,0.4,0,0.6-0.1c0.4,0,0.7,0,1.1-0.1
					c0.4,0,0.9,0,1.3,0c0.2,0,0.4,0,0.6,0c0.1,0,0.9,0.1,0.4,0c1,0.1,1.9,0.1,2.7-0.7c0.7-0.7,1-1.8,0.7-2.7
					c-0.2-0.5-0.3-1.1-0.4-1.7c0,0.1,0,0.4,0-0.1c0-0.3,0-0.6,0-0.8c0-0.3,0-0.6,0.1-0.8c0,0.1-0.1,0.4,0-0.1
					c0.1-0.3,0.1-0.5,0.2-0.8c0.1-0.2,0.3-0.7,0.1-0.2c0.1-0.2,0.2-0.4,0.3-0.6c0.3-0.6-0.3,0.3,0.1-0.2c0.1-0.1,0.2-0.2,0.3-0.3
					c0.5-0.5-0.4,0.1,0.2-0.1c0,0,0.7-0.3,0.3-0.2c-0.4,0.1,0.3-0.1,0.3-0.1c0.2,0,0.8-0.1,0.2,0c0.2,0,0.5,0,0.7,0
					c0.1,0,0.9,0.1,0.2,0c0.2,0,0.5,0.1,0.7,0.1c0.4,0.1,0.8,0.2,1.1,0.4c-0.5-0.2,0.1,0,0.2,0.1c0.2,0.1,0.4,0.2,0.6,0.3
					c0.5,0.2,0.9,0.5,1.3,0.8c1.6,1,3.2,2.1,5,3c1.9,1,3.9,1.8,5.9,2.4c1.1,0.3,2.6,0.9,3.8,0.6c0.4-0.1,0.6-0.3,0.9-0.4
					c0.3-0.2-0.4,0.1,0.1,0c0,0,0.5-0.1,0.5-0.1c0,0.1-0.7,0,0,0c0.2,0,0.4,0,0.5,0c-0.5-0.1,0,0,0.1,0.1c0.1,0,0.4,0.2,0.5,0.2
					c0,0-0.8-0.3-0.1,0c1.6,0.8,3-0.1,4.4-0.8c0.9-0.4,1.5-1,1.8-2c0.1-0.3,0.2-0.7,0.3-1c-0.3,0.5-0.1,0.2,0,0
					c0.1-0.2,0.2-0.3,0.2-0.5c0.2-0.4,0.4-0.8,0.6-1.1c0.2-0.4,0.5-0.7,0.7-1.1c0.1-0.1,0.5-0.7,0.1-0.1c0.2-0.2,0.4-0.4,0.5-0.6
					c0.3-0.3,0.5-0.6,0.8-0.9c0.1-0.1,0.2-0.2,0.3-0.3c0.1-0.1,0.2-0.2,0.3-0.2c0.2-0.2,0.2-0.1-0.2,0.1c0.2-0.1,0.5-0.3,0.7-0.5
					c0.4-0.3-0.7,0.2-0.2,0.1c0.3-0.1,0.3,0.1-0.3,0c0.2,0,0.9,0.1,1.1,0c-0.5,0.3-1.7-0.6-1.6-1.1c0,0.3,0.2,0.7,0.3,1
					c0.3,1.2,1.5,2,2.7,2c0.1,0,1,0,1,0c0,0.3-1.1-0.7-0.6-0.2c-0.2-0.2-0.3-0.3-0.3-0.6c0.1,0.3,0.1,0.2,0-0.2c0,0.3,0,0.3,0.1-0.2
					c-0.1,0.3-0.1,0.6-0.1,0.9c0,0.3,0.1,0.7,0.2,1c0-0.3,0-0.3,0,0.1c0,0.4,0.1,0.7,0.1,1.1c0,0.7,0,1.5,0,2.2
					c-0.1,1.6,1.3,2.6,2.8,2.8c0.4,0,0.8,0.1,1.2,0.1c0.1,0,0.6,0.1,0.3,0c-0.3,0,0.2,0,0.3,0c0.7,0.1,1.5,0.3,2.2,0.4
					c1.5,0.3,3,0.8,4.4,1.3c0.2,0.1,0.3,0.1,0.5,0.2c0.4,0.2-0.3-0.2,0.1,0c0.4,0.2,0.7,0.3,1.1,0.5c0.7,0.3,1.3,0.7,2,1.1
					c1.2,0.7,2.4,1.5,3.5,2.4c1.4,1.1,3.7,0,4.1-1.7c0.2-0.9,0.5-1.7,0.8-2.5c0.3-0.8-0.2,0.5,0.2-0.4c0.1-0.2,0.2-0.3,0.2-0.5
					c0.1-0.2,0.1-0.2,0-0.1c-0.6,0.7-1.4,0.8-2.6,0.3c0,0,0.1,0,0.1,0.1c0,0,0.2,0.2,0.3,0.2c-0.1,0-0.5-0.5-0.2-0.2
					c0.1,0.1,0.1,0.1,0.2,0.2c0.1,0.1,0.1,0.1-0.1-0.2c0,0.1,0.2,0.3,0.2,0.3c0.3,0.5-0.1-0.3,0.1,0.1c0,0.1,0.1,0.2,0.1,0.3
					c0.1,0.4,0.2,0.7,0.3,1.1c0.1,0.4,0.1,0.7,0.2,1.1c0.1,0.4-0.1-0.7,0,0.1c0,0.2,0,0.4,0.1,0.6c0.1,0.8,0.1,1.6,0.1,2.4
					c0,0.4,0,0.8,0,1.2c0,1.1,0.4,1.6,1.1,2.4c0.1,0.2,0.3,0.4,0.4,0.6c-0.2-0.3,0.1,0.1,0.2,0.2c0.3,0.4,0.5,0.7,0.8,1.1
					c0.8,1.1,1.8,1.5,3.1,1.3c0.5-0.1,0.1,0,0,0c0.2,0,0.4,0,0.6,0c0.4,0,0.8,0,1.2,0.1c-0.4,0,0.1,0,0.1,0c0.2,0,0.5,0.1,0.7,0.1
					c0.4,0.1,0.9,0.2,1.3,0.3c1.6,0.4,3.1,0.8,4.6,1.3c1.5,0.5,3,1,4.5,1.6c0.4,0.1,0.7,0.3,1,0.4c0.2,0.1,0.3,0.1,0.5,0.2
					c-0.4-0.2,0.1,0,0.1,0.1c0.8,0.3,1.5,0.7,2.3,1c0.7,0.3,1.4,0.7,2,1c0.3,0.1,0.6,0.3,0.9,0.4c0.5,0.2-0.2,0-0.1-0.1
					c0.1,0.1,0.1,0.1,0.2,0.2c0.1,0.2,0.1,0.1-0.2-0.2c0.2,0.3-0.2-0.1-0.1-0.2c0,0,0.1,0.3,0.1,0.3c-0.1,0,0-0.7,0-0.2
					c0,0.2,0,0.3,0,0.5c0,0.3,0,0.7,0,1c0,0.2,0,0.3,0,0.5c0-0.6,0,0.1,0,0.2c-0.1,0.3-0.1,0.6-0.2,0.9c0,0.2-0.1,0.3-0.2,0.5
					c0,0.1-0.2,0.4,0,0c-0.2,0.3-0.3,0.6-0.5,0.8c-0.1,0.1-0.3,0.3,0,0c-0.1,0.1-0.2,0.3-0.4,0.4c-0.1,0.1-0.3,0.3-0.4,0.4
					c0.1-0.1,0.5-0.3,0,0c-0.3,0.2-0.5,0.3-0.8,0.5c-0.1,0.1-0.3,0.1-0.4,0.2c0.1,0,0.5-0.2,0,0c-0.3,0.1-0.6,0.2-1,0.3
					c-0.7,0.2-1.4,0.4-2.1,0.5c-0.4,0.1-0.7,0.1-1.1,0.2c-0.2,0-0.4,0.1-0.5,0.1c-0.1,0-0.2,0-0.3,0c0.2,0,0.3,0,0.1,0
					c-0.9,0.1-1.7,0.2-2.6,0.2c-0.5,0-0.9,0-1.4,0c-0.2,0-0.4,0-0.5,0c-0.6-0.1,0.3,0.1-0.3-0.1c-2.2-0.4-3.8,1.2-3.4,3.4
					c0.2,1.1,0.3,2.1,0.5,3.2c0.1,0.4,0.1,0.4,0,0c0,0.2,0.1,0.4,0.1,0.6c0,0.3,0.1,0.6,0.1,0.8c0.1,0.7,0.2,1.4,0.3,2.1
					c0.3,2.6,0.7,5.3,1.1,7.9c0.2,1.5,2.1,2.2,3.4,1.9c0.2-0.1,0.5-0.1,0.7-0.2c0.1,0,1-0.1,0.3-0.1c0.4-0.1,0.9-0.1,1.3-0.1
					c0.5,0,1,0,1.5,0c0.6,0-0.5-0.1,0.1,0c0.2,0,0.4,0.1,0.6,0.1c0.6,0.2,0,0.1,0,0c0-0.1,0.7,0.6,0.3,0.1c-0.3-0.4,0.1,0.1,0.2,0.2
					c0.2,0.2,0.3,0.4,0.5,0.5c0.1,0.1,0.2,0.3,0.4,0.4c0.1,0.1,0.5,0.6,0.2,0.2c-0.3-0.4,0.1,0.2,0.2,0.3c0.1,0.2,0.3,0.4,0.4,0.5
					c0.6,0.8,1.1,1.6,1.5,2.4c0.1,0.2,0.2,0.4,0.3,0.6c0.1,0.2,0.3,0.6,0.1,0.2c0.2,0.5,0.4,1,0.5,1.5c0.1,0.2,0.1,0.4,0.2,0.7
					c0,0.2,0.3,0.7,0,0.1c0.1,0.3,0.1,1.2,0,1.5c0-0.1,0-0.2,0-0.3c0,0.1-0.1,0.3-0.1,0.4c-0.1,0.2-0.1,0.4-0.2,0.6
					c0.2-0.6,0-0.1-0.1,0.1c-0.1,0.3-0.3,0.5-0.5,0.7c-0.9,1.2-0.2,3.1,1,3.8C128.5,88.3,129.8,87.7,130.8,86.5z"/>
			</g>
			<g>
				<path class="st1" d="M42.4,61.9c0.1,0,0.2,0,0.3-0.1c-1.1-1.1-2.3-2.3-3.4-3.4c0,0.1,0,0.1,0,0.2c1.4-0.6,2.7-1.1,4.1-1.7
					c-0.1,0-0.2-0.1-0.2-0.1c-0.3-0.2-0.7-0.3-1-0.3c-0.4-0.1-0.7-0.1-1.1,0c-0.4,0.1-0.7,0.3-0.9,0.5c-0.3,0.2-0.5,0.5-0.7,0.8
					c-0.1,0.2-0.2,0.4-0.3,0.7c-0.1,0.5-0.1,1,0,1.5c0.1,0.2,0.2,0.4,0.3,0.7c0.2,0.4,0.6,0.7,1,1c0.1,0,0.2,0.1,0.2,0.1
					c0.4,0.3,0.9,0.4,1.4,0.4c0.4,0,0.7-0.1,1.1-0.2c0.3-0.1,0.6-0.3,0.9-0.6c0.3-0.3,0.6-0.8,0.7-1.2c0-0.1,0-0.1,0-0.2
					c0.1-0.5,0.1-1,0-1.5c-0.1-0.5-0.4-0.9-0.7-1.2c-0.3-0.3-0.8-0.6-1.2-0.7c-0.5-0.1-1-0.1-1.5,0c-0.1,0-0.2,0-0.3,0.1
					c-0.4,0.1-0.7,0.3-0.9,0.5c-0.3,0.2-0.5,0.5-0.7,0.8c-0.2,0.3-0.3,0.7-0.3,1c-0.1,0.4-0.1,0.7,0,1.1c0.1,0.2,0.2,0.4,0.3,0.7
					c0.2,0.4,0.6,0.7,1,1c0.2,0.1,0.4,0.2,0.7,0.3C41.4,62.1,41.9,62.1,42.4,61.9z"/>
			</g>
		</g>
		<g>
			<g>
				<circle class="st2" cx="38.7" cy="42.3" r="17.2"/>
			</g>
			<g>
				<g>
					<path class="st3" d="M36.9,43.5c-3.7,0-6.6-3-6.6-6.6c0-3.7,3-6.6,6.6-6.6c3.7,0,6.6,3,6.6,6.6C43.5,40.5,40.5,43.5,36.9,43.5z
						 M36.9,32.8c-2.2,0-4,1.8-4,4s1.8,4,4,4c2.2,0,4-1.8,4-4S39.1,32.8,36.9,32.8z"/>
				</g>
				<g>
					<path class="st3" d="M42.2,48.1H31.5c-0.7,0-1.3-0.6-1.3-1.3c0-0.7,0.6-1.3,1.3-1.3h10.7c0.7,0,1.3,0.6,1.3,1.3
						C43.5,47.6,42.9,48.1,42.2,48.1z"/>
				</g>
				<g>
					<path class="st3" d="M36.9,54.2c-0.7,0-1.3-0.6-1.3-1.3V42.3c0-0.7,0.6-1.3,1.3-1.3c0.7,0,1.3,0.6,1.3,1.3V53
						C38.1,53.7,37.6,54.2,36.9,54.2z"/>
				</g>
			</g>
			<g>
				<g>
					<path class="st4" d="M110.6,53.9c-3.8-2.5-9.1-10.1-6.3-14.6c0.9-1.3,2.5-2,4.1-2.1c1.6-0.1,3.1,0.2,4.7,0.6
						c5.7,1.4,11.2,3.5,16.3,6.2c1.2,0.5,1.7,1.3,1.6,2.6c0,2.2-0.4,4.5-1.8,6.1c-1.8,2.1-4.7,2.7-7.3,3.1c-3.7,0.6-8,0.9-10.9-1.5"
						/>
				</g>
				<g>
					<path class="st5" d="M124.6,53.7c2.7-1.7,2.3-2.8,1.7-3.8c-0.5-0.7-1.3-0.9-2.1-1.2c-5.1-1.6-10.6-2.4-15.8-4
						c-1.5-0.5-3.1-1.2-4.5-2.3c0.6,1.8,0.6,2.4,1.5,4.3c1,2.3,3.3,5.1,7.1,6.7C115.4,54.6,120.7,56.1,124.6,53.7z"/>
				</g>
				<g>
					<path class="st4" d="M93,154.7c-3,1-6.1,5.4-11.8,8.3c-6,3.1-11.1,4.4-12.3,2.9c-1.2-1.5,8.5-7.7,3.2-11.2
						C71,154,93,154.7,93,154.7z"/>
				</g>
				<g>
					<path class="st3" d="M29,114.9c1.4-2.2,5.1-23.3,6.7-28.2c4.9-11.1,4.8-23.6,8.3-35.1c11.7-36,58.6-39.7,69.1-2.4
						c3.1,7.5,1.5,17.5,9.8,51.3c8.9,36.3,5,42.9,2.3,48.9c-3.4,10.2-10,13.8-19.9,9.1c-1.8-0.9-3.6-0.8-5.7-1.3
						c-15.3-3.8-31.7,2.4-46.2,5.8c-2,0.5-6,1.6-8,1.3c-3.7-0.5-5.8-1.5-9.3-2.9C17.7,153.7,17.7,130.5,29,114.9z"/>
				</g>
				<g>
					<path class="st3" d="M29,114.9c1.4-2.2,6-26.6,6.7-28.2s4.8-23.6,8.3-35.1c11.7-36,58.6-39.7,69.1-2.4
						c3.1,7.5,1.5,17.5,9.8,51.3c8.9,36.3,5,42.9,2.3,48.9c-3.4,10.2-10,13.8-19.9,9.1c-1.8-0.9-3.6-0.8-5.7-1.3
						c-15.3-3.8-31.7,2.4-46.2,5.8c-2,0.5-6,1.6-8,1.3c-3.7-0.5-5.8-1.5-9.3-2.9C17.7,153.7,17.7,130.5,29,114.9z"/>
				</g>
				<g>
					<path class="st6" d="M112.6,47.6c0.1,0.6,0.3,1.1,0.5,1.6c0,0,0,0,0,0c1.4,3.4,1.8,7.4,2.7,13.9c-3.1,0.4-6.5-0.9-9.3-2
						c-4.4-1.8-8.4-3.6-10.9-8.5s-3.7-8.2-4.3-11.2c-0.5-3-0.1-13.3,2.4-15c0.5-0.3,1.2-0.2,2.1,0C103.2,30.4,109.3,37.4,112.6,47.6
						z"/>
				</g>
				<g>
					<path class="st6" d="M84.4,38c2.7-4.2,2-10.1-3.1-11.9c-2-0.8-6.2,1.4-6.4-0.9c-0.3-3.2-5.1-1-7.3-1.1
						c-1.9-0.1-3.1,0.8-4.8,1.6c-1.5,0.7-2.6,2-3.8,3.2c-2.2,2.2-4.7,4.2-6.6,6.8c-1.8,2.6-2.9,6.1-1.6,9.1
						c1.9,4.6,7.4,5.5,11.8,5.6c4.7,0.2,9.2,0.1,13.4-3.4C80.2,43.3,82.7,40.6,84.4,38z"/>
				</g>
				<g>
					<path class="st5" d="M85.9,47c-3.8-0.5-8.2-0.9-11.3,1.7c-2.4,2.1-3,6-1.4,8.7c1.1,1.8,2.9,3.1,4.7,4.1
						c5.7,3.4,11.5,4,15.1-2.3c1-1.5,1-2.9,0.5-4.6c-0.6-2.7-1.8-6.1-4.9-6.6C88.5,48,85.9,47,85.9,47z"/>
				</g>
				<g>
					<g>
						<path class="st4" d="M80.1,53.3c0-0.1,0-0.1,0-0.2c0.1-0.2,0.1-0.2,0.2-0.4c0-0.1,0.1-0.1,0.1-0.2c0.2-0.2,0.3-0.2,0.5-0.3
							c0,0,0.1,0,0.1,0c0.1,0,0.2,0,0.3,0c0,0,0,0,0,0c0.1,0,0.2,0,0.3,0c0.1,0,0.2,0.1,0.3,0.1c0,0,0,0,0.1,0
							c0.1,0.1,0.2,0.1,0.2,0.2c0.1,0.1,0.1,0.2,0.2,0.3c0.1,0.1,0.1,0.2,0.1,0.3c0.1,0.2,0.1,0.3,0.1,0.5c0,0.1,0,0.2,0,0.3
							c0,0.2,0,0.4-0.1,0.5c0,0.1-0.1,0.2-0.2,0.3c-0.1,0.1-0.2,0.2-0.3,0.2c-0.1,0.1-0.2,0.1-0.3,0.1c-0.1,0-0.2,0-0.4,0
							c-0.2-0.1-0.4-0.2-0.6-0.4c0-0.1-0.1-0.1-0.1-0.2c0,0,0-0.1,0-0.1c0,0-0.1,0-0.1,0c-0.2,0-0.3-0.1-0.4-0.2
							c0-0.1-0.1-0.1-0.1-0.2c-0.1-0.1-0.1-0.3-0.1-0.5C80,53.4,80,53.4,80.1,53.3z"/>
					</g>
					<g>
						<path class="st4" d="M86.7,55.3c0,0,0-0.1,0.1-0.1c0.1-0.1,0.1-0.2,0.2-0.3c0,0,0.1-0.1,0.1-0.1c0.1-0.1,0.2-0.2,0.3-0.2
							c0,0,0.1,0,0.1-0.1c0.1,0,0.2-0.1,0.3-0.1c0.1,0,0.2,0,0.4,0c0.1,0,0.2,0,0.3,0.1c0.1,0.1,0.2,0.1,0.3,0.2
							c0.1,0.1,0.1,0.2,0.2,0.3c0,0.1,0,0.2,0,0.2c0,0.2,0,0.3-0.1,0.5c0,0.1-0.1,0.1-0.1,0.2c-0.1,0.1-0.2,0.2-0.4,0.2c0,0,0,0,0,0
							c0,0,0,0,0,0c0,0,0,0,0,0c0,0,0,0.1,0,0.1c0,0.1-0.1,0.2-0.2,0.3c-0.1,0.1-0.2,0.2-0.3,0.2C87.7,57,87.6,57,87.5,57
							c-0.1,0-0.2,0-0.4,0c-0.1,0-0.1-0.1-0.2-0.1c-0.1-0.1-0.2-0.2-0.3-0.3c0-0.1-0.1-0.1-0.1-0.2c0-0.2,0-0.3,0-0.5
							C86.5,55.7,86.6,55.5,86.7,55.3z"/>
					</g>
				</g>
				<g>
					<path class="st4" d="M70,27.1c-0.1-2.5-3.1-3.3-5.1-3.6c-3.8-0.8-7.5-2.3-10.8-4.4c-1.7-1.1-3.3-2.3-5.2-3
						c-1.9-0.7-4.1-0.8-5.7,0.4c-1,0.8-1.7,1.9-2,3.1c-1.4,4.7,1.5,9.9,5.7,12.4s3.3,1,10.4,2.3c1.8,0.3,3.9,1.6,9-2
						C71.4,28.8,70,27.1,70,27.1z"/>
				</g>
				<g>
					<path class="st5" d="M77.9,14.1c-3.1,0.3-10.8,11.6-4.3,12.3c1.6,0.2,3.3,0.3,4.8-0.3c2.3-1,2.5-2.2,2.5-4.5
						c0.1-2.2-0.2-4.4-0.8-6.5c-0.1-0.5-0.3-1-0.8-1.1C79.1,14,78.2,14,77.9,14.1z"/>
				</g>
				<g>
					<path class="st5" d="M104.7,26.5c-0.6-1.5-1.5-1.9-1.7-2c-0.5-0.2-1,0.3-1.2,0.8c-1.6,3.6-2.7,7,0.1,10.3
						c0.5,0.5,1,1.1,1.6,1.4c2.5,1.2,2-2.3,2.1-3.8C105.7,30.9,105.2,28,104.7,26.5z"/>
				</g>
				<g>
					<path class="st5" d="M59.9,33.3c1-2.7-0.1-4.7-2.1-6.4c-2.9-2.6-6.5-4.6-10.2-5.6c-1.4-0.4-2.9-0.6-4.1,0.2
						c-1.1,0.8-1.4,2.3-1.1,3.6c0.3,1.3,1.1,2.4,2,3.4c1.9,2.4,3.5,3.2,6.5,3.6C50.8,32.1,59.9,33.3,59.9,33.3z"/>
				</g>
				<g>
					<path class="st3" d="M126.7,74c-1-1.4-1-1.5-2.2-2.7c-1.8-2.2-8.1-1.3-10.3,0.1c-3.4,2.1-6.3,1.8-6.1,7c0.2,5,4.4,8.9,9.2,9.2
						c2.3,0.2,4.5-0.2,6.8-0.7c1.6-0.3,3.3-0.7,4.4-1.9C131,81.9,128.9,77,126.7,74z"/>
				</g>
				<g>
					<path class="st3" d="M51.6,68.9c-2.5-4.8-7.9-8.7-13.1-11.4c-2.6-1.5-5.9-4.3-8.1-2.1c-2.2,2-2.6,7.2-4,9.8
						c-0.1,0.2-1.4,0.2-0.1,1.3c7.3,5.4,15.2,10.3,23.8,13.4c1.7,0.7,2.8,0.2,2.8-1.8C52.9,78,54.1,73.7,51.6,68.9z"/>
				</g>
				<g>
					<path class="st4" d="M35.1,55.5c-0.8-0.9-5.7-3-9.1-3c-1-0.1-1.9,0.3-2.5,1c-1.9,1.8-2.7,4.7-2.1,7.2c0.6,2.6,2.5,4.7,5,5.6
						c1.6,0.6,2.8,0,3.8-1.2c1.8-2,3.1-4.3,4.7-6.7C35.3,57.8,35.9,56.3,35.1,55.5z"/>
				</g>
				<g>
					<path class="st4" d="M117.9,85c2.1-1.9,1.9-4.7,0.6-6.9c-1.2-2.1-4.8-5.6-6.3-5.6s-3.5,1.2-4.9,3.7c-1.4,2.5-1.9,10.2,6.3,10.5
						C116.3,86.8,117.9,85,117.9,85z"/>
				</g>
				<g>
					<path class="st4" d="M50.6,129.9c-2.9,0.1-5.7,1.4-8.3,2.8c-0.6,0.3-1.3,0.7-1.5,1.3c-0.2,0.6,0,1.2,0.2,1.8
						c1.2,3.1,3.2,5.9,5.2,8.6c0.9,1.2,2,2.5,3.5,2.4c1-0.1,1.9-0.8,2.5-1.6c1.7-2.1,2.9-4.7,2.9-7.4c0.1-2.7-1.1-5.4-3.2-7.1"/>
				</g>
				<g>
					<path class="st4" d="M120.6,142.6c-2.2-2.5-7.2-5.6-11.6-5.9c-0.5,0-1,0-1.4,0.2c-0.4,0.2-1.7,1.5-2,1.9
						c-1.3,2.2-1.1,3.7-0.3,6.6c0.2,0.7,0.8,1.4,1.1,2c0.4,0.6,1.9,1.9,2.5,2.3c3.5,1.9,5.7,3,9.6,2.2c0.5-0.1,1.1-0.3,1.5-0.6
						c0.4-0.3,0.6-0.8,0.9-1.3C120.9,150,122.8,145.1,120.6,142.6z"/>
				</g>
			</g>
			<g>
				<g>
					<path class="st7" d="M95.4,50c-0.7,1.7,0.1,3.6,1.7,4.3c4,1.5,6.4-4.2,2.5-6C98,47.6,96.1,48.4,95.4,50z"/>
				</g>
				<g>
					<g>
						<path class="st8" d="M87.3,59.6c-3.7,0.3-7.4-1.8-9-5.1c-0.1-0.3-1.2,0.1-1.1,0.3c1.8,3.5,5.7,5.6,9.7,5.2
							c0.2,0,0.6-0.1,0.7-0.3C87.7,59.6,87.5,59.5,87.3,59.6L87.3,59.6z"/>
					</g>
				</g>
			</g>
			<g>
				<g>
					<g>
						<path class="st9" d="M65.2,25.2c5.1-2.5,10.2-4.9,15.4-7.3c0.6-0.3,1.3-0.6,1.9-0.2c0.6,0.4,0.8,1.2,0.8,2
							c0.2,2.6,0.3,5.4-1.2,7.4c-1.3,1.7-3.5,2.4-5.6,2.3c-2.1-0.1-4.2-1-6.1-2"/>
					</g>
					<g>
						<path class="st9" d="M64.6,25.5c-4.5-0.9-9.2-1.9-13.5-0.3c-0.6,0.2-1.1,0.5-1.4,1c-0.3,0.6-0.2,1.3-0.1,2
							c0.4,2.1,1,4.4,2.6,5.8c1.9,1.7,4.9,1.7,7.2,0.7c2.3-1,4.2-2.9,5.9-4.9"/>
					</g>
					<g>
						<circle class="st10" cx="66.8" cy="27.4" r="4.7"/>
					</g>
					<g>
						<circle class="st9" cx="63.8" cy="28.7" r="3.3"/>
					</g>
				</g>
			</g>
			<g>
				<g>
					<path class="st7" d="M68.1,40.5c2.5,0.9,4.7,2.3,6.8,4c0-0.1,0-0.2,0-0.2c-2.1,0.3-4.2,0.4-6.3,0.4c-0.1,0-0.7,0-0.4,0.3
						c0.3,0.2,0.9,0.3,1.2,0.3c2.3,0.1,4.7-0.1,7-0.4c0.2,0,0.1-0.1,0-0.2c-2.2-1.8-4.7-3.2-7.4-4.2c-0.3-0.1-0.9-0.3-1.3-0.1
						C67.5,40.3,67.9,40.5,68.1,40.5L68.1,40.5z"/>
				</g>
			</g>
			<g>
				<g>
					<path class="st7" d="M99.9,47.9c0.9-0.3,1.8-0.8,2.6-1.5c0.2-0.2-0.2-0.2-0.2-0.2c-0.1,0-0.3,0-0.4,0.1c-0.1,0-0.2,0.1-0.3,0.2
						c-0.1,0.1-0.3,0.3-0.5,0.4c0,0-0.1,0.1-0.1,0.1c0,0,0,0,0,0c0,0,0,0-0.1,0c-0.1,0.1-0.2,0.1-0.3,0.2c-0.1,0.1-0.2,0.1-0.3,0.2
						c-0.1,0,0.1,0,0,0c0,0,0,0-0.1,0c-0.1,0-0.1,0-0.2,0.1c0,0-0.1,0-0.1,0.1c0,0-0.1,0-0.1,0c0,0,0.1,0,0,0
						c-0.1,0-0.2,0.1-0.3,0.1c-0.1,0-0.5,0.2-0.3,0.3c0.1,0,0.2,0,0.3,0C99.6,48,99.8,48,99.9,47.9L99.9,47.9z"/>
				</g>
			</g>
			<g>
				<g>
					<path class="st7" d="M101.6,49.9c1.3,0.1,2.6,0,3.8,0c0.2,0,0.6-0.1,0.7-0.2c0.2-0.2-0.1-0.2-0.2-0.2c-1.2,0.1-2.4,0.1-3.6,0
						c-0.2,0-0.5,0.1-0.8,0.2C101.4,49.8,101.4,49.9,101.6,49.9L101.6,49.9z"/>
				</g>
			</g>
			<g>
				<defs>
					<path id="SVGID_3_" d="M83.3,19.7c-0.1-0.7-0.2-1.6-0.8-2c-0.6-0.3-1.3-0.1-1.9,0.2c-3.8,1.8-7.7,3.6-11.5,5.4
						c-1.3-0.7-2.9-0.8-4.3-0.1c-0.9,0.4-1.6,1.1-2.1,1.9c-3.9-0.8-7.9-1.3-11.6,0c-0.6,0.2-1.1,0.5-1.4,1c-0.3,0.6-0.2,1.3-0.1,2
						c0.4,2.1,1,4.4,2.6,5.8c1.9,1.7,4.9,1.7,7.2,0.7c1.8-0.8,3.2-2.1,4.6-3.5c1.4,1,3.2,1.3,4.9,0.5c1.5-0.7,2.5-2.1,2.6-3.7
						c1.6,0.8,3.3,1.3,5,1.4c2.1,0.1,4.4-0.6,5.6-2.3C83.7,25.1,83.5,22.3,83.3,19.7z"/>
				</defs>
				<clipPath id="SVGID_4_">
					<use xlink:href="#SVGID_3_"  style="overflow:visible;"/>
				</clipPath>
				<g class="st11">
					<g>
						<path class="st12" d="M55.5,36.9c-1.4-1.1-1.5-3.9,0-5c1.4-1.1,3.7,0.3,3.7,2.3c0,2-2.4,3.3-3.7,2.1c-0.5-0.5-0.8-1.4-0.3-1.9
							"/>
					</g>
					<g>
						<path class="st12" d="M79.7,31.4c-0.2,0.6-1.4,0.2-2-0.2c-1.1-0.9-2.3-1.9-2.7-3.1c-0.4-1.2,0.4-2.6,2-3
							c1.9-0.4,3.8,0.7,4.3,2c0.1,0.4,0.2,0.8,0,1.2c-0.4,0.9-2.2,1.3-3.3,0.7c-1.1-0.5-1.2-1.8-0.2-2.4s2.8-0.4,3.4,0.4"/>
					</g>
					<g>
						<path class="st12" d="M54.7,23.6c0.2,1.2,0.9,2.3,1.8,2.7c0.9,0.4,2.1,0.2,2.9-0.6c0.2-0.2,0.5-0.5,0.5-0.9
							c0.1-0.9-0.6-1.6-1.4-1.7c-0.7-0.1-1.5,0.1-2.2-0.1"/>
					</g>
					<g>
						<path class="st12" d="M78,18.1c-0.1,1.2,1.1,2.1,2.3,2.2c1.1,0.1,2.2-0.4,2.7-1.3s0.1-2.3-0.9-2.7C81.8,16,81.3,16,80.9,16
							c-0.5,0-1,0-1.5,0c-0.3,0-0.6,0-0.9,0.1S78,16.6,78,16.9"/>
					</g>
					<g>
						<path class="st12" d="M52.9,28.5c0.3-0.3,0.7-0.7,1.2-0.6c0.5,0,0.9,0.5,0.6,0.9c-0.3,0-0.6-0.3-0.9-0.3
							c-0.3,0-0.7,0.4-0.4,0.6c0.5,0.1,1-0.2,1.1-0.7"/>
					</g>
					<g>
						<path class="st12" d="M78.8,20.7"/>
					</g>
				</g>
			</g>
			<g>
				<g>
					<path class="st3" d="M99.7,48.8c-0.3,0-0.5,0-0.8,0c-0.1,0-0.2,0-0.4,0.1c-0.1,0-0.2,0.1-0.3,0.2c-0.1,0.1-0.2,0.2-0.2,0.3
						c-0.1,0.1-0.1,0.2-0.1,0.4c0,0.1,0,0.2,0,0.2c0,0.2,0.1,0.3,0.2,0.4c0.1,0,0.1,0.1,0.2,0.1c0.1,0.1,0.3,0.1,0.5,0.1
						c0.3,0,0.5,0,0.8,0c0.1,0,0.2,0,0.4-0.1c0.1,0,0.2-0.1,0.3-0.2c0.1-0.1,0.2-0.2,0.2-0.3c0.1-0.1,0.1-0.2,0.1-0.4
						c0-0.1,0-0.2,0-0.2c0-0.2-0.1-0.3-0.2-0.4c-0.1,0-0.1-0.1-0.2-0.1C100,48.9,99.9,48.8,99.7,48.8L99.7,48.8z"/>
				</g>
			</g>
		</g>
		<g>
			<g>
				<path class="st1" d="M195.9,153.2c-1.4-5.1-2.3-10.3-3.4-15.4c-0.5-2.4-1-4.8-1.6-7.2c-0.4-1.6-0.9-3.1-1.2-4.7
					c-0.8-3.5-1.5-7-2.3-10.6c-0.4,1-0.8,2.1-1.3,3.1c2.2-1.3,4.4-2.6,6.6-4.1c1.1-0.7,2.1-1.4,3.2-2.2c0.5-0.4,1-0.7,1.5-1.1
					c0.2-0.1,0.6-0.3,0.7-0.5c0,0-0.3,0.2-0.1,0c0.2-0.2,0.7-0.3,1-0.4c4.5-2.1,6.8-7.3,5.6-12c-0.7-2.8-2.7-5.6-5.5-6.5
					c0.6,1.4,1.1,2.7,1.7,4.1c3.8-5.2,4.9-12.3,2.7-18.4c-2-5.5-6.2-9.8-11.7-12c-3.4-1.4-7-1.6-10.6-1.1c1.1,1.1,2.3,2.3,3.4,3.4
					c1.5-4.9,0-12-5.8-13c-2.6-0.5-5.1,0.2-7.4,1.5c-2.1,1.1-3.9,2.6-6,3.6c-0.6,0.3-1.1,0.6-1.7,0.8c-0.1,0.1-0.2,0.1-0.4,0.2
					c0.3-0.1,0.1,0-0.1,0c-0.3,0.1-0.7,0.3-1,0.4c-1.3,0.5-2.6,0.9-3.9,1.2c0.7,0.1,1.4,0.2,2.1,0.3c-2.3-1.3-5.1-1.3-7.4,0
					c0.9,0,1.9,0,2.8,0c-0.8-0.4-1.6-0.8-2.4-1.2c0.4,0.6,0.8,1.1,1.3,1.7c-1-3.4-3.3-6.8-6.2-8.9c-1.3-0.9-2.7-1.3-4.3-1.2
					c-1.5,0.1-2.7,0.8-3.3,2.1c-0.6,1.1-0.8,2.4-0.9,3.6c1.1-0.6,2.3-1.3,3.4-1.9c-2.4-0.9-4.8,0.3-5.6,2.7
					c-0.5,1.6-0.5,3.5-0.4,5.2c0.9-0.9,1.8-1.8,2.8-2.8c-6.7,0.5-13.1,2.8-18.5,6.8c1.4,0.6,2.7,1.1,4.1,1.7c-0.2-1-0.5-1.9-0.9-2.8
					c-0.5-1.1-0.9-2.3-1.8-3.2c-1.7-1.7-4.3-1-5.7,0.7c-2.5,3-2.3,7.4-2.3,11c0.3-0.7,0.5-1.3,0.8-2c-0.9,1.1-1.7,2.2-2.5,3.3
					c1-0.4,2.1-0.8,3.1-1.3c-4-0.7-8.1,0.7-11.9,1.9c-3.7,1.2-7.3,2.7-10.7,4.4c-1.7,0.9-3.3,1.7-4,3.7c-0.5,1.6-0.3,3.7,0,5.3
					c0.8,3.8,3.5,6.5,7.2,7.7c1.8,0.6,3.7,0.8,5.6,1.1c2.2,0.3,4.4,0.3,6.6-0.1c-1.1-1.1-2.3-2.3-3.4-3.4c-0.4,2.5-0.7,5.1-1.1,7.6
					c0,0.3-0.1,0.6-0.1,0.9c0,0.1-0.1,0.9-0.1,0.6c0-0.3-0.1,0.5-0.1,0.6c0,0.3-0.1,0.6-0.1,0.9c-0.2,1.3-0.4,2.7-0.6,4
					c1.1-0.6,2.3-1.3,3.4-1.9c-2.4-0.6-5.3-0.9-7.7,0c-2.4,0.8-3.8,2.9-5.3,4.9c-1.4,1.9-2.6,4.2-3,6.6c-0.5,2.8-0.1,6.2,2.2,8.2
					c1.3,1.1,2.8,1.7,4.5,2.1c1.8,0.4,3.7,0.7,5.5,0.9c-0.9-1.2-1.8-2.3-2.7-3.5c-2.2,10.4-5,20.6-6.8,31c-1.1,6.3-2,12.8-1.7,19.3
					c0.2,3.4,0.7,6.9,1.9,10.1c0.3,0.7,0.6,1.5,0.9,2.2c0.1,0.3,0.2,0.5,0.3,0.8c0.1,0.1,0.1,0.2,0.2,0.3c0,0.1,0.1,0.1,0.1,0.2
					c0,0.1,0.1,0.2-0.1-0.1c-0.3-0.5,0,0.1,0.1,0.2c1.4,4,3.6,7.8,7.1,10.3c3.3,2.3,7.5,2.6,11.3,1.7c1-0.2,2-0.6,3-0.9
					c0.6-0.3,1.3-0.5,1.9-0.8c0.1-0.1,0.3-0.1,0.4-0.2c-0.1,0-0.3,0.1,0,0c0.4-0.1,0.7-0.2,1.1-0.3c1.3-0.3,2.6-0.4,3.9-0.7
					c0.7-0.2,1.3-0.3,2-0.4c0.4-0.1,0.8-0.1,1.2-0.2c0.1,0,0.3,0,0.4-0.1c0.1,0,0.7-0.1,0.3,0c1.5-0.2,2.9-0.3,4.4-0.3
					c-0.5-0.1-0.9-0.3-1.4-0.4c-0.7-0.5,0.1,0.1,0.3,0.2c0.2,0.2,0.4,0.3,0.6,0.5c0.5,0.4,1,0.9,1.6,1.3c1.2,1,2.4,2,3.6,2.8
					c2.8,2,6,3.5,9.3,4.7c2.3,0.9,5.1,1.7,7.6,1.1c1.4-0.3,2.5-1.3,2.9-2.7c0.4-1.3-0.2-2.6-0.9-3.6c-0.8-1.1-1.9-2.1-2.6-3.3
					c0.4,0.6-0.1-0.2-0.3-0.4c-0.2-0.3-0.3-0.5-0.5-0.8c-0.1-0.2-0.3-0.7-0.4-0.8c0.2,0.1,0.2,0.6,0.1,0.1c0-0.2-0.1-0.4-0.1-0.6
					c-1.1,1.1-2.3,2.3-3.4,3.4c4.4,1,8.7,2.1,13.1,3.3c3.6,1,7.2,2,10.9,2.8c1.6,0.3,3.3,0.7,5,0.5c2-0.2,4-0.7,5.9-1.4
					c3.2-1.2,6.6-2.5,9.4-4.5c5-3.4,8.6-8.4,10.3-14.1c1.7-5.7,1.7-11.8,0.4-17.6c-0.7-3.4-1.9-6.6-3.4-9.7c-0.7-1.5-1.6-3-2.5-4.4
					c-0.4-0.7-0.9-1.4-1.4-2c0,0-0.1-0.2-0.1-0.2c0.2,0.4,0.2,0.5,0.1,0.2c0-0.1-0.1-0.2-0.1-0.4C196.2,154.4,196,153.8,195.9,153.2
					c-0.4-1.4-2-2.4-3.4-1.9c-1.4,0.5-2.3,1.9-1.9,3.4c0.2,0.8,0.4,1.6,0.7,2.3c0.3,0.8,0.8,1.5,1.3,2.2c0.8,1.2,1.5,2.4,2.2,3.7
					c0.3,0.6,0.6,1.2,0.9,1.7c0.2,0.3,0.3,0.7,0.5,1.1c0.1,0.1,0.1,0.2,0.2,0.4c0.1,0.3,0.1,0.2-0.1-0.1c0,0.1,0.1,0.2,0.1,0.4
					c0.5,1.3,1,2.6,1.4,4c0.4,1.3,0.7,2.7,0.9,4c0.1,0.4,0.1,0.7,0.2,1.1c0.1,0.4,0-0.2,0-0.2c0,0,0.1,0.5,0.1,0.6
					c0.1,0.7,0.1,1.3,0.2,2c0.1,1.4,0.1,2.8,0,4.2c0,0.3,0,0.6-0.1,0.9c0,0.2,0,0.4-0.1,0.5c0,0.2-0.1,0.4,0-0.2
					c-0.2,0.7-0.2,1.4-0.4,2.1c-0.3,1.3-0.6,2.5-1.1,3.7c-0.1,0.2-0.3,0.5-0.3,0.8c0.1-0.6,0.1-0.3,0,0c-0.1,0.2-0.1,0.3-0.2,0.5
					c-0.3,0.6-0.6,1.1-0.9,1.7c-0.3,0.6-0.7,1.1-1,1.6c-0.1,0.1-0.5,0.6-0.5,0.7c0-0.2,0.4-0.5,0,0c-0.1,0.1-0.2,0.3-0.3,0.4
					c-0.9,1-1.8,2-2.9,2.8c-0.1,0.1-0.2,0.2-0.4,0.3c-0.5,0.4,0.5-0.4,0,0c-0.3,0.2-0.5,0.4-0.8,0.5c-0.6,0.4-1.3,0.8-1.9,1.2
					c-0.6,0.3-1.2,0.6-1.8,0.9c-0.2,0.1-0.4,0.2-0.6,0.2c-0.6,0.3,0.6-0.2-0.2,0.1c-0.5,0.2-1,0.4-1.4,0.6c-1.6,0.6-3.1,1.2-4.8,1.6
					c-0.4,0.1-0.8,0.2-1.2,0.3c-0.3,0-0.5,0.1-0.8,0.1c-0.9,0.2,0.5,0-0.1,0c-0.3,0-0.6,0-0.9,0c-0.2,0-0.4,0-0.6,0
					c-0.2,0-0.8-0.1-0.1,0c-1.7-0.2-3.4-0.7-5-1.1c-2.1-0.6-4.3-1.1-6.4-1.7c-4.7-1.3-9.4-2.5-14.2-3.6c-2.1-0.5-3.8,1.3-3.4,3.4
					c0.5,2.6,2.6,4.7,4.2,6.7c0.1,0.1,0.2,0.2,0.3,0.3c0.3,0.4,0-0.1-0.1-0.1c0.1,0,0.3,0.4,0.4,0.5c0.1,0.1,0.2,0.3,0.3,0.4
					c-0.3-0.3-0.3-0.7-0.2-0.4c0.1,0.3,0,0.1-0.1-0.5c0-0.2,0.1-0.4,0.1-0.6c0.1-0.3,0.5-0.9,0.5-1c-0.2,0.2,0.7-0.5,0.3-0.2
					c-0.5,0.3,0.7-0.3,0.2-0.1c-0.1,0-0.2,0-0.3,0.1c0,0,0.8,0,0.4-0.1c-0.2,0-0.5,0-0.7,0c-0.1,0-0.3,0-0.4,0c-0.4,0,0.7,0.1,0.2,0
					c-0.3-0.1-0.5-0.1-0.8-0.2c-0.7-0.1-1.3-0.3-1.9-0.5c-0.7-0.2-1.5-0.5-2.2-0.8c-0.1,0-0.6-0.3-0.2-0.1c-0.2-0.1-0.3-0.1-0.5-0.2
					c-0.4-0.2-0.9-0.4-1.3-0.6c-1.6-0.7-3.1-1.6-4.5-2.5c-0.3-0.2-0.7-0.5-1-0.7c-0.1-0.1-0.3-0.2-0.4-0.3c0.4,0.3,0,0-0.1-0.1
					c-0.6-0.4-1.1-0.9-1.6-1.3c-1.1-0.9-2.1-1.9-3.2-2.7c-1-0.7-2.3-0.5-3.4-0.4c-0.9,0.1-1.8,0.2-2.8,0.3c-2,0.3-3.9,0.7-5.9,1.1
					c-1.8,0.4-3.6,0.5-5.3,1.3c-0.4,0.2-0.7,0.3-1.1,0.5c0.6-0.3-0.3,0.1-0.5,0.2c-0.6,0.2-1.2,0.4-1.9,0.6
					c-0.6,0.2-1.2,0.3-1.8,0.4c-0.5,0.1-0.2-0.1,0.1,0c0,0-0.3,0-0.4,0c-0.3,0-0.6,0-0.9,0.1c-0.5,0-1.1-0.1-1.6-0.1
					c-0.4,0,0.7,0.1,0.2,0c-0.1,0-0.2,0-0.3-0.1c-0.3,0-0.5-0.1-0.8-0.2c-0.3-0.1-0.5-0.1-0.8-0.2c-0.1,0-0.2-0.1-0.3-0.1
					c-0.5-0.2,0.5,0.3,0.2,0.1c-0.4-0.2-0.9-0.4-1.3-0.7c-0.2-0.1-0.4-0.3-0.7-0.5c0,0,0.5,0.4,0.2,0.1c-0.1-0.1-0.2-0.2-0.3-0.3
					c-0.4-0.4-0.8-0.7-1.1-1.1c-0.1-0.1-0.2-0.2-0.3-0.3c-0.4-0.4,0,0.1,0.1,0.1c-0.1,0-0.4-0.6-0.5-0.7c-0.3-0.5-0.6-1-0.9-1.5
					c-0.3-0.6-0.6-1.1-0.8-1.7c-0.2-0.4,0.2,0.6,0,0c-0.1-0.1-0.1-0.3-0.2-0.4c-0.1-0.3-0.3-0.7-0.4-1c-0.2-0.6-0.5-1.3-0.8-1.9
					c-0.1-0.3-0.3-0.6-0.4-1c0-0.1-0.1-0.2-0.1-0.3c-0.1-0.3,0.3,0.8,0.2,0.4c-0.1-0.2-0.1-0.3-0.2-0.5c-0.3-0.8-0.6-1.5-0.8-2.3
					c-0.3-0.9-0.5-1.9-0.6-2.8c0-0.3-0.1-0.5-0.1-0.8c0-0.3-0.1-0.8,0,0.2c0-0.2,0-0.3-0.1-0.5c-0.1-0.6-0.1-1.2-0.2-1.9
					c-0.2-3.3,0-6.6,0.3-9.9c0.1-1.1,0.2-2.1,0.4-3.2c0-0.1,0-0.3,0.1-0.4c0.1-0.5,0.1,0,0,0.1c0.1,0,0.1-0.7,0.1-0.8
					c0.1-0.6,0.2-1.2,0.3-1.8c0.4-2.8,0.9-5.5,1.5-8.3c1.4-6.9,3.2-13.7,4.7-20.5c0.4-1.6,0.7-3.1,1-4.7c0.4-1.9-0.8-3.3-2.7-3.5
					c-0.3,0-0.6-0.1-0.9-0.1c0.4,0.1-0.5-0.1-0.6-0.1c-0.6-0.1-1.3-0.2-1.9-0.3c-0.5-0.1-1-0.2-1.5-0.3c-0.2-0.1-0.4-0.1-0.7-0.2
					c-0.1,0-0.2-0.1-0.3-0.1c0.4,0.1,0.2,0.1-0.1-0.1c-0.1-0.1-0.6-0.4-0.4-0.2c0.3,0.2-0.1-0.1-0.1-0.1c0,0,0.3,0.4,0.1,0.1
					c-0.1-0.2-0.3-0.4-0.4-0.6c0-0.1-0.1-0.4,0-0.1c0.1,0.4,0-0.1,0-0.2c-0.1-0.2-0.1-0.4-0.1-0.6c-0.1-0.3,0.1,0.2,0,0.2
					c0,0,0-0.3,0-0.3c0-0.2,0-0.5,0-0.7c0-0.1,0-0.2,0-0.3c0-0.4-0.1,0.5,0,0.1c0.1-0.5,0.2-0.9,0.3-1.4c0.1-0.2,0.1-0.4,0.2-0.6
					c0-0.1,0.1-0.2,0.1-0.3c0.1-0.4-0.2,0.4,0,0c0.5-0.9,0.9-1.8,1.5-2.6c0.3-0.4,0.5-0.7,0.8-1.1c0.1-0.2,0.3-0.3,0.4-0.5
					c0.2-0.2-0.2,0.3-0.2,0.3c0,0,0.2-0.2,0.2-0.2c0.3-0.3,0.5-0.6,0.8-0.9c0.1-0.2,0.3-0.3,0.5-0.5c0.2-0.2-0.2,0.2-0.2,0.2
					c0,0,0.3-0.1,0.3-0.2c0.1-0.1,0.2-0.2,0,0c-0.2,0.1-0.2,0.1-0.1,0c0.1,0,0.2-0.1,0.3-0.1c0.2-0.1,0.5-0.1,0.7-0.2
					c0.3-0.1-0.2,0-0.2,0c0.1,0,0.3,0,0.4,0c0.3,0,0.6,0,0.9,0c0.5,0,1,0,1.6,0.1c0.1,0,0.4,0.1,0.1,0c-0.4-0.1,0.2,0,0.3,0.1
					c0.3,0.1,0.6,0.1,0.9,0.2c1.3,0.3,3.2-0.4,3.4-1.9c0.4-2.6,0.8-5.2,1.1-7.9c0.1-0.6,0.2-1.3,0.3-1.9c0-0.3,0.1-0.6,0.1-1
					c0-0.2,0.1-0.4,0.1-0.6c0,0.3,0,0.4,0,0.1c0.2-1.1,0.3-2.2,0.5-3.4c0.4-2.2-1.2-3.8-3.4-3.4c-0.5,0.1-0.2,0-0.1,0
					c-0.2,0-0.4,0-0.5,0.1c-0.4,0-0.7,0-1.1,0c-0.8,0-1.7,0-2.5-0.1c-0.1,0-1.1-0.1-0.6-0.1c-0.3,0-0.7-0.1-1-0.2
					c-0.7-0.1-1.4-0.2-2-0.4c-0.6-0.1-1.2-0.3-1.8-0.5c-0.1-0.1-0.3-0.1-0.4-0.2c0.5,0.2,0.2,0.1,0,0c-0.3-0.2-0.6-0.4-1-0.6
					c-0.1-0.1-0.4-0.3,0,0c-0.1-0.1-0.2-0.2-0.3-0.3c-0.1-0.1-0.6-0.7-0.3-0.3c-0.2-0.3-0.3-0.5-0.5-0.8c-0.3-0.4-0.1-0.1,0,0
					c-0.1-0.2-0.2-0.5-0.2-0.7c-0.1-0.3-0.2-0.6-0.2-0.9c0-0.2-0.1-0.3-0.1-0.5c0,0.1,0,0.5,0,0c0-0.3,0-0.6,0-1c0-0.2,0-0.3,0-0.5
					c0-0.1,0-0.2,0-0.3c0-0.2,0-0.1,0,0.3c0,0,0.1-0.4,0.1-0.3c0,0-0.3,0.6-0.1,0.2c0,0-0.4,0.6-0.1,0.2c0.3-0.4-0.1,0.3-0.1,0.1
					c0-0.2,1.8-0.9,2-1.1c0.7-0.3,1.4-0.7,2-1c0.3-0.2,0.7-0.3,1-0.5c0.2-0.1,0.3-0.2,0.5-0.2c-0.3,0.1,0.1-0.1,0.3-0.1
					c1.5-0.6,3-1.2,4.5-1.7c1.7-0.6,3.4-1.1,5.1-1.5c0.9-0.2,1.8-0.5,2.7-0.6c0.6-0.1,0.3,0,0.1,0c0.3,0,0.6,0,0.9-0.1
					c0.2,0,0.4,0,0.6,0c0.7,0-0.3-0.1,0.3,0c1.3,0.2,2.4-0.2,3.1-1.3c0.2-0.3,0.5-0.7,0.7-1c0,0,0.4-0.5,0.3-0.4
					c-0.1,0.2,0.3-0.3,0.3-0.4c0.6-0.8,1.1-1.4,1.2-2.4c0-0.4,0-0.8,0-1.2c0-0.8,0-1.6,0-2.4c0-0.2,0-0.5,0.1-0.7c0-0.3,0-0.3,0,0
					c0.1-0.4,0.1-0.8,0.2-1.2c0.1-0.3,0.1-0.7,0.2-1c0-0.1,0.1-0.3,0.1-0.4c0.1-0.4-0.2,0.2,0,0c0-0.1,0.3-0.4,0.3-0.4
					c0,0.3-0.4,0.2,0,0.1c0,0,0.1-0.1,0.1-0.1c0.2-0.1,0.1-0.1-0.3,0.2c0.1,0,0.1-0.1,0.2-0.1c0,0,0.1-0.1,0.2-0.1
					c-0.8-0.1-1.6-0.1-2.5-0.2c-0.2-0.3-0.2-0.3-0.1-0.1c0,0.2,0.2,0.4,0.3,0.6c0,0.1,0.1,0.2,0.1,0.3c-0.1-0.2-0.1-0.2,0,0
					c0.3,0.9,0.6,1.7,0.8,2.7c0.3,1.6,2.7,2.7,4.1,1.7c1.1-0.9,2.3-1.6,3.5-2.3c0.7-0.4,1.3-0.7,2-1c0.4-0.2,0.7-0.3,1.1-0.5
					c0.4-0.2-0.4,0.1,0.1,0c0.2-0.1,0.4-0.2,0.6-0.2c1.4-0.5,2.8-1,4.3-1.3c0.8-0.2,1.5-0.3,2.3-0.4c0.2,0,0.3,0,0,0
					c0.2,0,0.3,0,0.5-0.1c0.4,0,0.9-0.1,1.3-0.1c1.4-0.1,2.8-1.2,2.8-2.8c0-1.1,0-2.1,0.1-3.2c0-0.6,0,0,0,0c-0.1,0,0.4-0.9,0-0.1
					c0-0.1,0.1-0.1,0.1-0.2c-0.3,0.5-0.7,0.8-1.3,0.8c-0.1,0-0.2,0-0.3,0c0.2,0,0.3,0.1,0.5,0.2c1.3,0.5,3.2-0.5,3.4-1.9
					c0.1-0.6,0.2-1.1,0.3-1.7c0-0.2,0.1-0.4,0.1-0.6c0-0.1,0-0.2,0.1-0.3c0.1-0.3,0.1-0.3-0.1,0.1c-0.4,0.3-0.7,0.5-1.1,0.8
					c-0.5,0-0.6,0.1-0.3,0c0.1,0,0.3,0,0.5,0c0.2,0,0.4,0.1,0.5,0c-0.5,0.1-0.6-0.1-0.3,0c0.5,0.1-0.6-0.4-0.2-0.1
					c0.1,0.1,0.2,0.1,0.3,0.2c0.1,0.1,0.2,0.1,0.3,0.2c0.5,0.3-0.5-0.4,0,0c0.5,0.5,1,1,1.5,1.5c0.1,0.2,0.3,0.3,0.4,0.5
					c-0.4-0.5-0.1-0.1,0,0c0.3,0.4,0.5,0.7,0.7,1.1c0.4,0.7,0.8,1.4,1.1,2.1c-0.3-0.7,0.1,0.3,0.1,0.5c0.3,1,0.8,1.6,1.7,2
					c1.5,0.7,3.1,1.8,4.8,1c0.7-0.3-0.3,0,0.1-0.1c0.2,0,0.4-0.1,0.6-0.2c-0.6,0.1,0.1,0,0.2,0c0.5,0,0.2,0,0,0
					c0.3,0,0.5,0.1,0.7,0.2c-0.5-0.2,0,0,0.1,0.1c1,0.5,1.9,0.4,2.9,0.1c2.1-0.5,4.1-1.3,6-2.2c1.8-0.8,3.5-1.8,5.1-2.9
					c0.7-0.5,1.4-1,2.2-1.4c0.4-0.2,0.8-0.4,1.2-0.6c-0.5,0.2,0.2-0.1,0.3-0.1c0.3-0.1,0.5-0.2,0.8-0.2c0.2,0,0.4-0.1,0.6-0.1
					c-0.7,0.1,0.3,0,0.4,0c0.2,0,0.3,0,0.5,0c-0.7,0,0.2,0.1,0.4,0.1c0.5,0.1,0.1,0,0,0c0.1,0.1,0.9,0.6,0.4,0.2
					c0.2,0.1,0.3,0.3,0.4,0.4c0.1,0.1,0.2,0.2,0.2,0.3c-0.2-0.2-0.2-0.2,0,0c0.1,0.2,0.2,0.4,0.3,0.6c-0.2-0.4,0,0,0.1,0.2
					c0.1,0.3,0.1,0.5,0.2,0.8c0.2,0.8,0-0.4,0.1,0.4c0,0.6,0,1.1,0,1.7c0.1-0.5-0.1,0.4-0.1,0.4c-0.1,0.4-0.2,0.7-0.3,1.1
					c-0.3,0.9,0,2,0.7,2.7c0.8,0.8,1.7,0.9,2.7,0.7c-0.4,0.1,0.1,0,0.1,0c0.2,0,0.4,0,0.6-0.1c0.4,0,0.9,0,1.3,0
					c0.6,0,1.3,0.1,1.9,0.1c0.4,0-0.5-0.1-0.1,0c0.1,0,0.3,0,0.4,0.1c0.3,0.1,0.6,0.1,0.9,0.2c0.6,0.1,1.1,0.3,1.7,0.5
					c0.3,0.1,0.6,0.2,0.9,0.3c-0.1,0-0.6-0.3-0.1,0c0.1,0.1,0.2,0.1,0.4,0.2c0.5,0.3,1.1,0.5,1.6,0.9c0.4,0.3,1,0.5,1.3,0.9
					c-0.4-0.5,0,0,0.2,0.2c0.3,0.2,0.5,0.4,0.7,0.7c0.4,0.4,0.8,0.7,1.1,1.1c0.2,0.2,0.4,0.5,0.6,0.7c0.2,0.3-0.3-0.4-0.1-0.1
					c0.1,0.1,0.2,0.3,0.3,0.4c0.3,0.5,0.6,0.9,0.9,1.4c0.1,0.3,0.3,0.5,0.4,0.8c0.1,0.1,0.1,0.2,0.2,0.4c0,0.1,0.3,0.6,0.1,0.2
					c-0.1-0.4,0.2,0.4,0.2,0.5c0.1,0.3,0.2,0.6,0.3,0.9c0.2,0.6,0.3,1.2,0.4,1.8c0,0.2,0.2,1,0.1,0.3c0.1,0.3,0.1,0.6,0.1,0.8
					c0.1,0.7,0.1,1.4,0,2.1c0,0.4-0.1,0.9-0.1,1.3c0-0.1,0.1-0.5,0,0c0,0.2-0.1,0.4-0.1,0.6c-0.2,0.8-0.4,1.5-0.6,2.3
					c-0.1,0.2-0.1,0.3-0.2,0.5c-0.2,0.6,0.1-0.3-0.1,0.3c-0.2,0.4-0.4,0.7-0.6,1.1c-0.4,0.7-0.8,1.4-1.3,2.1
					c-1.1,1.5,0.1,3.6,1.7,4.1c0.3,0.1,0.3,0.1,0,0c0.1,0.1,0.3,0.1,0.4,0.2c-0.5-0.4,0.2,0.3,0.3,0.3c0.2,0.2,0.2,0.2,0,0
					c0.1,0.1,0.2,0.2,0.3,0.4c0.1,0.2,0.2,0.4,0.4,0.6c0.1,0.1,0.1,0.3,0.2,0.4c-0.1-0.3-0.1-0.3,0,0c0.1,0.3,0.2,0.6,0.3,0.9
					c0,0.1,0.1,0.3,0.1,0.5c0-0.3,0-0.4,0-0.2c0,0.3,0,0.5,0,0.8c0,0.1-0.1,1.1,0,0.4c0,0.3-0.1,0.6-0.2,0.9
					c-0.1,0.2-0.1,0.4-0.2,0.6c0.2-0.7-0.1,0.2-0.2,0.3c-0.1,0.3-0.3,0.5-0.5,0.7c0.4-0.5-0.1,0.1-0.2,0.2c-0.2,0.2-0.4,0.4-0.5,0.5
					c-0.1,0.1-0.2,0.2-0.3,0.3c0.3-0.2,0.3-0.2,0,0c-0.2,0.1-0.5,0.3-0.7,0.4c-0.2,0.1-0.6,0.3-0.1,0.1c-0.5,0.2-0.9,0.4-1.3,0.7
					c-0.3,0.2-0.6,0.5-0.9,0.7c-1.2,0.8-2.3,1.7-3.5,2.5c-2.4,1.6-4.8,3.1-7.3,4.5c-1.1,0.6-1.5,1.9-1.3,3.1
					c0.7,3.3,1.4,6.5,2.1,9.8c0.4,1.6,0.8,3.1,1.2,4.7c1.3,5.1,2.2,10.2,3.3,15.3c0.6,2.7,1.1,5.3,1.8,8c0.4,1.4,2,2.4,3.4,1.9
					C195.4,156.2,196.3,154.7,195.9,153.2z"/>
			</g>
		</g>
		<g>
			<path class="st4" d="M112.5,95.7c3.8-2.5,9.1-10.1,6.3-14.6c-0.9-1.3-2.5-2-4.1-2.1s-3.1,0.2-4.7,0.6c-5.7,1.4-11.2,3.5-16.3,6.2
				c-1.2,0.5-1.7,1.3-1.6,2.6c0,2.2,0.4,4.5,1.8,6.1c1.8,2.1,4.7,2.7,7.3,3.1c3.7,0.6,8,0.9,10.9-1.5"/>
		</g>
		<g>
			<path class="st5" d="M98.6,95.5c-2.7-1.7-2.3-2.8-1.7-3.8c0.5-0.7,1.3-0.9,2.1-1.2c5.1-1.6,10.6-2.4,15.8-4
				c1.5-0.5,3.1-1.2,4.5-2.3c-0.6,1.8-0.6,2.4-1.5,4.3c-1,2.3-3.3,5.1-7.1,6.7C107.8,96.4,102.5,97.9,98.6,95.5z"/>
		</g>
		<g>
			<path class="st4" d="M130.1,196.5c3,1,6.1,5.4,11.8,8.3c6,3.1,11.1,4.4,12.3,2.9c1.2-1.5-8.5-7.7-3.2-11.2
				C152.2,195.9,130.1,196.5,130.1,196.5z"/>
		</g>
		<g>
			<circle class="st13" cx="184.4" cy="84.1" r="17.2"/>
		</g>
		<g>
			<g>
				<g>
					<path class="st3" d="M182.1,78.9C182,78.7,182.1,78.9,182.1,78.9C182,79,182.1,78.9,182.1,78.9c0.1-0.1,0.2-0.2,0.3-0.3
						c0.2-0.2,0.4-0.2,0.7-0.2c0.8,0.3,1,1.2,1,1.9c0.1,1.1,0,2.2,0,3.4c0,1.2,0,2.4-0.1,3.6c0,1.2,1.8,1.2,1.8,0
						c0-1.6,0-3.1,0.1-4.7c0-1.5,0.2-3.1-0.5-4.4c-0.6-1.1-1.9-1.9-3.2-1.6c-1.1,0.3-2.3,1.5-1.9,2.7
						C180.7,80.5,182.5,80,182.1,78.9L182.1,78.9z"/>
				</g>
			</g>
			<g>
				<g>
					<path class="st3" d="M186,78.9C185.9,78.7,186,78.9,186,78.9c0-0.1,0.1-0.1,0.2-0.2c0.1-0.1,0.4-0.2,0.5-0.3
						c0.5-0.1,0.9,0.4,1.1,0.9c0.3,0.7,0.2,1.5,0.2,2.2c0,0.6-0.1,1.2-0.2,1.8c-0.1,1.3-0.1,2.7,0.8,3.7c0.5,0.6,1.2,0.9,1.9,1
						c0.8,0.1,1.5-0.1,2.3-0.2c0.5,0,0.9-0.4,0.9-0.9c0-0.5-0.4-1-0.9-0.9c-0.9,0.1-2.3,0.6-2.9-0.3c-0.5-0.8-0.3-2-0.2-2.9
						c0.1-1.2,0.3-2.6-0.1-3.8c-0.4-1.3-1.5-2.4-2.9-2.4c-1.3,0-3,1.4-2.5,2.8C184.5,80.5,186.3,80,186,78.9L186,78.9z"/>
				</g>
			</g>
			<g>
				<g>
					<path class="st3" d="M178.4,78.9C178.3,78.7,178.4,78.9,178.4,78.9C178.3,79,178.4,78.9,178.4,78.9c0.1-0.1,0.2-0.2,0.3-0.3
						c0.2-0.2,0.4-0.2,0.7-0.2c0.8,0.3,1,1.2,1,1.9c0.1,1.1,0,2.2,0,3.4c0,1.2,0,2.4-0.1,3.6c0,1.2,1.8,1.2,1.8,0
						c0-1.6,0-3.1,0.1-4.7c0-1.5,0.2-3.1-0.5-4.4c-0.6-1.1-1.9-1.9-3.2-1.6c-1.1,0.3-2.3,1.5-1.9,2.7C177,80.5,178.7,80,178.4,78.9
						L178.4,78.9z"/>
				</g>
			</g>
			<g>
				<g>
					<path class="st3" d="M191.8,86.2c0.4,0.5,0.9,0.9,1.5,1.3c-0.1-0.5-0.1-1-0.2-1.4c-0.3,0.3-0.6,0.5-1,0.8
						c0.1,0,0.1-0.1,0.2-0.1c-0.3,0.2-0.6,0.5-1,0.7c-0.2,0.1-0.4,0.3-0.4,0.6c-0.1,0.2,0,0.5,0.1,0.7c0.3,0.4,0.8,0.6,1.3,0.3
						c0.7-0.5,1.5-1.1,2.1-1.7c0.2-0.2,0.3-0.5,0.3-0.8c0-0.3-0.2-0.5-0.4-0.7c-0.1-0.1-0.2-0.2-0.3-0.2c0.1,0,0.1,0.1,0.2,0.1
						c-0.3-0.3-0.7-0.6-0.9-0.9c-0.1-0.2-0.4-0.3-0.7-0.3c-0.2,0-0.5,0.1-0.7,0.3c-0.2,0.2-0.3,0.4-0.3,0.7
						C191.6,85.8,191.6,86,191.8,86.2L191.8,86.2z"/>
				</g>
			</g>
		</g>
		<g>
			<path class="st3" d="M194.1,156.8c-1.4-2.2-5.1-23.3-6.7-28.2c-4.9-11.1-4.8-23.6-8.3-35.1c-11.7-36-58.6-39.7-69.1-2.4
				c-3.1,7.5-1.5,17.5-9.8,51.3c-8.9,36.3-5,42.9-2.3,48.9c3.4,10.2,10,13.8,19.9,9.1c1.8-0.9,3.6-0.8,5.7-1.3
				c15.3-3.8,31.7,2.4,46.2,5.8c2,0.5,6,1.6,8,1.3c3.7-0.5,5.8-1.5,9.3-2.9C205.5,195.5,205.5,172.3,194.1,156.8z"/>
		</g>
		<g>
			<path class="st3" d="M194.1,156.8c-1.4-2.2-6-26.6-6.7-28.2c-0.7-1.6-4.8-23.6-8.3-35.1c-11.7-36-58.6-39.7-69.1-2.4
				c-3.1,7.5-1.5,17.5-9.8,51.3c-8.9,36.3-5,42.9-2.3,48.9c3.4,10.2,10,13.8,19.9,9.1c1.8-0.9,3.6-0.8,5.7-1.3
				c15.3-3.8,31.7,2.4,46.2,5.8c2,0.5,6,1.6,8,1.3c3.7-0.5,5.8-1.5,9.3-2.9C205.5,195.5,205.5,172.3,194.1,156.8z"/>
		</g>
		<g>
			<path class="st6" d="M110.6,89.4c-0.1,0.6-0.3,1.1-0.5,1.6c0,0,0,0,0,0c-1.4,3.4-1.8,7.4-2.7,13.9c3.1,0.4,6.5-0.9,9.3-2
				c4.4-1.8,8.4-3.6,10.9-8.5c2.5-4.9,3.7-8.2,4.3-11.2c0.5-3,0.1-13.3-2.4-15c-0.5-0.3-1.2-0.2-2.1,0
				C119.9,72.2,113.8,79.2,110.6,89.4z"/>
		</g>
		<g>
			<path class="st6" d="M138.7,79.9c-2.7-4.2-2-10.1,3.1-11.9c2-0.8,6.2,1.4,6.4-0.9c0.3-3.2,5.1-1,7.3-1.1c1.9-0.1,3.1,0.8,4.8,1.6
				c1.5,0.7,2.6,2,3.8,3.2c2.2,2.2,4.7,4.2,6.6,6.8s2.9,6.1,1.6,9.1c-1.9,4.6-7.4,5.5-11.8,5.6c-4.7,0.2-9.2,0.1-13.4-3.4
				C142.9,85.1,140.4,82.4,138.7,79.9z"/>
		</g>
		<g>
			<path class="st7" d="M127.7,91.9c0.7,1.7-0.1,3.6-1.7,4.3c-4,1.5-6.4-4.2-2.5-6C125.1,89.4,127,90.2,127.7,91.9z"/>
		</g>
		<g>
			<path class="st7" d="M152.2,83.5c0.7,1.7-0.1,3.6-1.7,4.3c-4,1.5-6.4-4.2-2.5-6C149.6,81,151.5,81.8,152.2,83.5z"/>
		</g>
		<g>
			<path class="st5" d="M137.2,88.8c3.8-0.5,8.2-0.9,11.3,1.7c2.4,2.1,3,6,1.4,8.7c-1.1,1.8-2.9,3.1-4.7,4.1
				c-5.7,3.4-11.5,4-15.1-2.3c-1-1.5-1-2.9-0.5-4.6c0.6-2.7,1.8-6.1,4.9-6.6C134.6,89.8,137.2,88.8,137.2,88.8z"/>
		</g>
		<g>
			<g>
				<path class="st4" d="M143.1,95.1c0-0.1,0-0.1,0-0.2c-0.1-0.2-0.1-0.2-0.2-0.4c0-0.1-0.1-0.1-0.1-0.2c-0.2-0.2-0.3-0.2-0.5-0.3
					c0,0-0.1,0-0.1,0c-0.1,0-0.2,0-0.3,0c0,0,0,0,0,0c-0.1,0-0.2,0-0.3,0c-0.1,0-0.2,0.1-0.3,0.1c0,0,0,0-0.1,0
					c-0.1,0.1-0.2,0.1-0.2,0.2c-0.1,0.1-0.1,0.2-0.2,0.3c-0.1,0.1-0.1,0.2-0.1,0.3c-0.1,0.2-0.1,0.3-0.1,0.5c0,0.1,0,0.2,0,0.3
					c0,0.2,0,0.4,0.1,0.5c0,0.1,0.1,0.2,0.2,0.3c0.1,0.1,0.2,0.2,0.3,0.2c0.1,0.1,0.2,0.1,0.3,0.1c0.1,0,0.2,0,0.4,0
					c0.2-0.1,0.4-0.2,0.6-0.4c0-0.1,0.1-0.1,0.1-0.2c0,0,0-0.1,0-0.1c0,0,0.1,0,0.1,0c0.2,0,0.3-0.1,0.4-0.2c0-0.1,0.1-0.1,0.1-0.2
					c0.1-0.1,0.1-0.3,0.1-0.5C143.1,95.2,143.1,95.2,143.1,95.1z"/>
			</g>
			<g>
				<path class="st4" d="M136.5,97.2c0,0,0-0.1-0.1-0.1c-0.1-0.1-0.1-0.2-0.2-0.3c0,0-0.1-0.1-0.1-0.1c-0.1-0.1-0.2-0.2-0.3-0.2
					c0,0-0.1,0-0.1-0.1c-0.1,0-0.2-0.1-0.3-0.1c-0.1,0-0.2,0-0.4,0c-0.1,0-0.2,0-0.3,0.1c-0.1,0.1-0.2,0.1-0.3,0.2
					c-0.1,0.1-0.1,0.2-0.2,0.3c0,0.1,0,0.2,0,0.2c0,0.2,0,0.3,0.1,0.5c0,0.1,0.1,0.1,0.1,0.2c0.1,0.1,0.2,0.2,0.4,0.2c0,0,0,0,0,0
					c0,0,0,0,0,0c0,0,0,0,0,0c0,0,0,0.1,0,0.1c0,0.1,0.1,0.2,0.2,0.3c0.1,0.1,0.2,0.2,0.3,0.2c0.1,0.1,0.2,0.1,0.3,0.1
					c0.1,0,0.2,0,0.4,0c0.1,0,0.1-0.1,0.2-0.1c0.1-0.1,0.2-0.2,0.3-0.3c0-0.1,0.1-0.1,0.1-0.2c0-0.2,0-0.3,0-0.5
					C136.6,97.5,136.6,97.3,136.5,97.2z"/>
			</g>
		</g>
		<g>
			<path class="st4" d="M153.1,68.9c0.1-2.5,3.1-3.3,5.1-3.6c3.8-0.8,7.5-2.3,10.8-4.4c1.7-1.1,3.3-2.3,5.2-3
				c1.9-0.7,4.1-0.8,5.7,0.4c1,0.8,1.7,1.9,2,3.1c1.4,4.7-1.5,9.9-5.7,12.4c-4.2,2.5-3.3,1-10.4,2.3c-1.8,0.3-3.9,1.6-9-2
				S153.1,68.9,153.1,68.9z"/>
		</g>
		<g>
			<path class="st5" d="M145.3,55.9c3.1,0.3,10.8,11.6,4.3,12.3c-1.6,0.2-3.3,0.3-4.8-0.3c-2.3-1-2.5-2.2-2.5-4.5
				c-0.1-2.2,0.2-4.4,0.8-6.5c0.1-0.5,0.3-1,0.8-1.1C144.1,55.8,144.9,55.9,145.3,55.9z"/>
		</g>
		<g>
			<path class="st5" d="M118.5,68.3c0.6-1.5,1.5-1.9,1.7-2c0.5-0.2,1,0.3,1.2,0.8c1.6,3.6,2.7,7-0.1,10.3c-0.5,0.5-1,1.1-1.6,1.4
				c-2.5,1.2-2-2.3-2.1-3.8C117.5,72.7,117.9,69.8,118.5,68.3z"/>
		</g>
		<g>
			<path class="st5" d="M163.3,75.1c-1-2.7,0.1-4.7,2.1-6.4c2.9-2.6,6.5-4.6,10.2-5.6c1.4-0.4,2.9-0.6,4.1,0.2
				c1.1,0.8,1.4,2.3,1.1,3.6c-0.3,1.3-1.1,2.4-2,3.4c-1.9,2.4-3.5,3.2-6.5,3.6C172.3,73.9,163.3,75.1,163.3,75.1z"/>
		</g>
		<g>
			<g>
				<path class="st8" d="M135.9,102c4.1,0.4,8.2-1.8,10-5.5c0.3-0.5-0.8-0.5-1-0.1c-1.6,3.1-5.1,5.1-8.6,4.8c-0.2,0-0.6,0.1-0.7,0.3
					C135.5,101.8,135.6,102,135.9,102L135.9,102z"/>
			</g>
		</g>
		<g>
			<g>
				<path class="st3" d="M148.5,84.4C148.5,84.4,148.5,84.4,148.5,84.4c-0.1,0-0.1,0.1-0.2,0.1C148.3,84.5,148.4,84.5,148.5,84.4
					c-0.1,0-0.1,0-0.2,0.1C148.3,84.5,148.4,84.5,148.5,84.4c-0.1,0.1-0.1,0-0.2,0C148.3,84.5,148.4,84.5,148.5,84.4
					c0,0.1-0.1,0-0.2,0c0.1,0,0.1,0.1,0.2,0.1c-0.1,0-0.1-0.1-0.2-0.1c0.1,0,0.1,0.1,0.2,0.2c0.1,0.1,0.2,0.2,0.3,0.2
					c0.1,0.1,0.2,0.1,0.4,0.1c0.1,0,0.2,0,0.4-0.1c0.1,0,0.2-0.1,0.3-0.2c0.2-0.2,0.3-0.4,0.3-0.7c0-0.1,0-0.2,0-0.2
					c0-0.2-0.1-0.3-0.2-0.4c0,0-0.1-0.1-0.1-0.1c-0.1-0.1-0.2-0.2-0.3-0.2c-0.1,0-0.2-0.1-0.2-0.1c-0.1,0-0.2-0.1-0.3-0.1
					c-0.1,0-0.3,0-0.4-0.1c-0.1,0-0.1,0-0.2,0c-0.1,0-0.3,0-0.4,0.1c-0.1,0-0.2,0.1-0.4,0.1c-0.1,0.1-0.2,0.1-0.3,0.2
					c-0.1,0.1-0.1,0.2-0.2,0.3c0,0.1,0,0.2,0,0.4c0,0.1,0,0.2,0.1,0.3c0.1,0.2,0.3,0.4,0.6,0.4c0.1,0,0.2,0,0.2,0
					C148.2,84.6,148.3,84.5,148.5,84.4L148.5,84.4z"/>
			</g>
		</g>
		<g>
			<path class="st3" d="M96.4,115.9c1-1.4,1-1.5,2.2-2.7c1.8-2.2,8.1-1.3,10.3,0.1c3.4,2.1,6.3,1.8,6.1,7c-0.2,5-4.4,8.9-9.2,9.2
				c-2.3,0.2-4.5-0.2-6.8-0.7c-1.6-0.3-3.3-0.7-4.4-1.9C92.2,123.7,94.2,118.8,96.4,115.9z"/>
		</g>
		<g>
			<path class="st3" d="M171.6,110.7c2.5-4.8,7.9-8.7,13.1-11.4c2.6-1.5,5.9-4.3,8.1-2.1c2.2,2,2.6,7.2,4,9.8
				c0.1,0.2,1.4,0.2,0.1,1.3c-7.3,5.4-15.2,10.3-23.8,13.4c-1.7,0.7-2.8,0.2-2.8-1.8C170.2,119.8,169.1,115.5,171.6,110.7z"/>
		</g>
		<g>
			<path class="st4" d="M188.1,97.3c0.8-0.9,5.7-3,9.1-3c1-0.1,1.9,0.3,2.5,1c1.9,1.8,2.7,4.7,2.1,7.2c-0.6,2.6-2.5,4.7-5,5.6
				c-1.6,0.6-2.8,0-3.8-1.2c-1.8-2-3.1-4.3-4.7-6.7C187.9,99.6,187.2,98.2,188.1,97.3z"/>
		</g>
		<g>
			<path class="st4" d="M105.2,126.8c-2.1-1.9-1.9-4.7-0.6-6.9c1.2-2.1,4.8-5.6,6.3-5.6s3.5,1.2,4.9,3.7c1.4,2.5,1.9,10.2-6.3,10.5
				C106.8,128.6,105.2,126.8,105.2,126.8z"/>
		</g>
		<g>
			<path class="st4" d="M172.5,171.7c2.9,0.1,5.7,1.4,8.3,2.8c0.6,0.3,1.3,0.7,1.5,1.3c0.2,0.6,0,1.2-0.2,1.8
				c-1.2,3.1-3.2,5.9-5.2,8.6c-0.9,1.2-2,2.5-3.5,2.4c-1-0.1-1.9-0.8-2.5-1.6c-1.7-2.1-2.9-4.7-2.9-7.4c-0.1-2.7,1.1-5.4,3.2-7.1"/>
		</g>
		<g>
			<path class="st4" d="M102.6,184.4c2.2-2.5,7.2-5.6,11.6-5.9c0.5,0,1,0,1.4,0.2c0.4,0.2,1.7,1.5,2,1.9c1.3,2.2,1.1,3.7,0.3,6.6
				c-0.2,0.7-0.8,1.4-1.1,2c-0.4,0.6-1.9,1.9-2.5,2.3c-3.5,1.9-5.7,3-9.6,2.2c-0.5-0.1-1.1-0.3-1.5-0.6c-0.4-0.3-0.6-0.8-0.9-1.3
				C102.2,191.8,100.4,186.9,102.6,184.4z"/>
		</g>
		<g>
			<g>
				<path class="st7" d="M123.6,91.1C123.6,91.1,123.4,91.1,123.6,91.1c0,0-0.1,0-0.1,0c-0.1,0-0.1,0-0.2,0c-0.1,0-0.2,0-0.2,0
					c0.1,0,0,0,0,0c0,0-0.1,0-0.1,0c-0.4-0.1-0.7-0.2-1.1-0.3c-0.7-0.2-1.4-0.4-2.1-0.3c-0.2,0-0.6,0.2-0.6,0.4
					c0,0.3,0.3,0.3,0.5,0.3c0,0,0.1,0,0,0c0,0,0.1,0,0.1,0c0.1,0,0.1,0,0.2,0c0.1,0,0.2,0,0.2,0c-0.1,0,0,0,0,0c0,0,0.1,0,0.1,0
					c0.4,0.1,0.7,0.2,1.1,0.3c0.7,0.2,1.4,0.4,2.1,0.3c0.2,0,0.6-0.2,0.6-0.4C124.1,91.2,123.8,91.1,123.6,91.1L123.6,91.1z"/>
			</g>
		</g>
		<g>
			<g>
				<path class="st7" d="M121.2,93.2c-0.1,0.2-0.3,0.5-0.5,0.7c-0.2,0.2-0.3,0.4-0.6,0.5c-0.1,0-0.1,0.1-0.2,0.1c0,0-0.1,0-0.1,0.1
					c0,0-0.1,0.1-0.1,0c0,0-0.1,0-0.1,0c0,0-0.1,0-0.1,0.1c-0.1,0-0.1,0.1-0.2,0.1c0,0-0.1,0-0.1,0c0,0-0.1,0.1,0,0c0.1,0,0,0-0.1,0
					c0,0-0.1,0-0.1,0c-0.1,0-0.1,0.1-0.2,0.1c-0.1,0-0.1,0,0,0c0,0-0.1,0-0.1,0c-0.1,0-0.5,0.2-0.5,0.4c0.1,0.2,0.5,0.1,0.6,0.1
					c1.3-0.4,2.4-1.2,3.1-2.3c0-0.1,0.1-0.1,0-0.2c-0.1-0.1-0.2-0.1-0.3-0.1c-0.1,0-0.3,0-0.4,0.1C121.4,93.1,121.2,93.1,121.2,93.2
					L121.2,93.2z"/>
			</g>
		</g>
		<g>
			<g>
				<path class="st7" d="M150.4,81.8c0.7-0.4,1.4-0.8,2-1.3c0.1-0.1,0.2-0.1,0.2-0.2c0-0.1,0-0.2-0.1-0.2c-0.2-0.1-0.6-0.1-0.8,0.1
					c-0.6,0.5-1.3,0.9-2,1.3c-0.2,0.1-0.3,0.3-0.1,0.4C149.8,82,150.1,81.9,150.4,81.8L150.4,81.8z"/>
			</g>
		</g>
		<g>
			<g>
				<path class="st7" d="M152,82.9c1.1,0.1,2.2,0,3.3-0.1c0.2,0,0.5-0.1,0.7-0.2c0.2-0.2-0.2-0.2-0.2-0.2c-1,0.1-2,0.1-3,0
					c-0.2,0-0.5,0.1-0.8,0.2c0,0-0.1,0.1-0.1,0.1C151.9,82.9,152,82.9,152,82.9L152,82.9z"/>
			</g>
		</g>
		<g>
			<g>
				<g>
					<circle class="st14" cx="156.5" cy="69.2" r="4.7"/>
				</g>
				<g>
					<path class="st14" d="M158.1,67c-5.1-2.5-10.2-4.9-15.4-7.3c-0.6-0.3-1.3-0.6-1.9-0.2c-0.6,0.4-0.8,1.2-0.8,2
						c-0.2,2.6-0.3,5.4,1.2,7.4c1.3,1.7,3.5,2.4,5.6,2.3c2.1-0.1,4.2-1,6.1-2"/>
				</g>
				<g>
					<path class="st14" d="M158.7,67.3c4.5-0.9,9.2-1.9,13.5-0.3c0.6,0.2,1.1,0.5,1.4,1c0.3,0.6,0.2,1.3,0.1,2
						c-0.4,2.1-1,4.4-2.6,5.8c-1.9,1.7-4.9,1.7-7.2,0.7s-4.2-2.9-5.9-4.9"/>
				</g>
				<g>
					<path class="st14" d="M155.1,72.4c-1.3,2.1-2.6,4.2-3.9,6.3c-0.2,0.3-0.3,0.5-0.6,0.7c-0.9,0.5-2.1-0.6-3,0
						c-0.5-1.1,0.4-2.2,1.2-3c1.3-1.3,2.6-2.6,3.8-3.9"/>
				</g>
				<g>
					<path class="st14" d="M156.4,71c-0.1,2.7-0.3,5.4-0.4,8.1c0,0.8-0.1,1.6,0.4,2.3c0.4,0.7,1.5,0.9,2,0.3
						c0.3-0.3,0.3-0.8,0.3-1.2c0-3.1-0.1-6.3-0.4-9.4"/>
				</g>
			</g>
			<g>
				<path class="st15" d="M162.3,68.2c2.9,1.7,6.6,1.9,9.7,0.7c-1-1.7-3.4-1.9-5.3-1.6s-4,0.9-5.8,0.1"/>
			</g>
		</g>
		<g>
			<g>
				<path class="st15" d="M156.6,67.3C156.7,67.3,156.8,67.3,156.6,67.3c0.1,0,0.2,0,0.3,0c0.2,0,0.3,0.1,0.4,0.1c0,0,0.1,0,0.1,0
					c-0.1,0-0.1,0-0.1,0c0.1,0,0.1,0.1,0.2,0.1c0.1,0.1,0.2,0.1,0.4,0.2c0,0,0.1,0,0.1,0.1c-0.1-0.1-0.1-0.1,0,0
					c0.1,0.1,0.1,0.1,0.2,0.2c0.1,0.1,0.2,0.2,0.3,0.3c0,0,0.2,0.2,0,0c0,0.1,0.1,0.1,0.1,0.2c0.1,0.1,0.1,0.2,0.2,0.4
					c0,0,0.1,0.3,0,0c0,0.1,0.1,0.1,0.1,0.2c0,0.1,0.1,0.3,0.1,0.4c0,0.2,0-0.2,0,0c0,0.1,0,0.1,0,0.2c0,0.1,0,0.1,0,0.2
					c0,0.2,0-0.2,0,0c0,0.1,0,0.3-0.1,0.4c0.1-0.1,0.1-0.1,0,0c0,0,0,0,0,0.1c0,0-0.1,0.2-0.1,0.2c0.1-0.1,0.1-0.1,0,0
					c0,0,0,0-0.1,0.1c-0.1,0,0,0,0.1,0c0,0,0,0-0.1,0c-0.2,0.1,0.1,0,0,0c-0.1,0-0.1,0-0.2,0c-0.5,0.1-0.8,0.7-0.6,1.1
					c0.2,0.5,0.6,0.7,1.1,0.6c0.9-0.1,1.5-0.9,1.7-1.7c0.2-0.8,0.1-1.7-0.3-2.5c-0.7-1.5-2.2-2.6-3.9-2.7c-0.5,0-0.9,0.4-0.9,0.9
					C155.7,66.9,156.1,67.2,156.6,67.3L156.6,67.3z"/>
			</g>
		</g>
		<g>
			<g>
				<path class="st3" d="M123.5,93.1c0.3,0,0.5,0,0.8,0c0.1,0,0.2,0,0.4-0.1c0.1,0,0.2-0.1,0.3-0.2c0.1-0.1,0.2-0.2,0.2-0.3
					c0.1-0.1,0.1-0.2,0.1-0.4c0-0.1,0-0.2,0-0.2c0-0.2-0.1-0.3-0.2-0.4c-0.1,0-0.1-0.1-0.2-0.1c-0.1-0.1-0.3-0.1-0.5-0.1
					c-0.3,0-0.5,0-0.8,0c-0.1,0-0.2,0-0.4,0.1c-0.1,0-0.2,0.1-0.3,0.2c-0.1,0.1-0.2,0.2-0.2,0.3c-0.1,0.1-0.1,0.2-0.1,0.4
					c0,0.1,0,0.2,0,0.2c0,0.2,0.1,0.3,0.2,0.4c0.1,0,0.1,0.1,0.2,0.1C123.2,93,123.4,93.1,123.5,93.1L123.5,93.1z"/>
			</g>
		</g>
		<g>
			<path class="st16" d="M96.7,158.5"/>
		</g>
		<g>
			<path class="st16" d="M94,158.5"/>
		</g>
	</g>
</g>
</svg>
